<svg xmlns="http://www.w3.org/2000/svg" width="300" height="111" fill="none"><path fill="#0F172A" d="m184.875 27.584.413.113c4.068 1.146 7.762 3.389 9.9 7.134 1.438 2.678 2.062 5.43 2.062 8.464h-11.625l-.375-2.06c-.602-1.571-1.599-2.547-3.131-3.258-2.269-.955-5.513-.834-7.8.022-1.526.71-2.55 1.523-3.319 3.053-.433 1.247-.392 2.977.035 4.213.825 1.591 1.851 2.284 3.525 2.902 1.073.315 2.175.524 3.263.742.703.138 1.404.284 2.1.43.517.108 1.037.214 1.554.319 5.4 1.108 11.081 2.36 14.456 7.115 2.269 3.558 2.7 8.108 1.862 12.172-1.046 4.27-3.525 7.846-7.293 10.149-1.894 1.078-3.919 1.833-6.019 2.397l-.371.101c-3.882.993-9.075.95-12.938-.101l-.411-.11c-4.5-1.25-8.306-3.614-10.706-7.715-1.419-2.584-1.826-4.925-1.826-7.902h11.437l.563 2.247c.577 1.305 1.474 2.266 2.775 2.865 1.639.61 3.094.734 4.837.742l.634.011c2.25.01 4.631-.391 6.394-1.891.992-1.028 1.446-2.135 1.509-3.558-.056-1.241-.36-2.434-1.147-3.427-.971-.732-1.95-1.132-3.113-1.411l-.463-.116c-2.025-.498-4.087-.886-6.15-1.277-5.25-1.006-10.65-2.584-13.931-7.135-2.438-3.782-3.206-8.389-2.363-12.808.604-2.34 1.529-4.344 2.982-6.291l.251-.343c2.737-3.502 7.744-5.693 12.056-6.31 3.338-.375 7.125-.428 10.388.468l-.015.054ZM262.5 27.958h11.438c1.367 3.708 2.7 7.416 4.031 11.142l.709 2.003.144.407.286.81c.142.401.284.8.424 1.2.763 2.154 1.532 4.326 2.306 6.48.239.666.475 1.331.713 2.004l.183.513a1941.542 1941.542 0 0 1 2.752 7.75c.981 2.771 1.969 5.524 2.963 8.276l.24.669 1.11 3.09a672.728 672.728 0 0 1 3.094 8.838h-12.375l-1.242-3.633-.384-1.121-.315-.92-.154-.45a653.732 653.732 0 0 1-1.656-4.924h-17.25c-.866 2.603-1.732 5.187-2.625 7.865l-1.125 3.183H243.58c1.081-3.24 2.156-6.479 3.318-9.681l.675-1.87a1861.737 1861.737 0 0 0 3.285-9.157l.467-1.305c1.114-3.109 2.231-6.236 3.338-9.344.605-1.7 1.211-3.408 1.818-5.094.207-.576.411-1.151.617-1.728 1.783-5 3.6-10 5.419-14.98l-.017-.023Zm5.625 15.917a83.03 83.03 0 0 0-.881 2.734c-1.05 3.464-2.213 6.89-3.394 10.299a279.194 279.194 0 0 1-.568 1.64l-.166.481c-.048.14-.096.28-.146.421-.12.343-.12.343-.102.718h10.5c-.302-1.384-.302-1.384-.707-2.715a63.35 63.35 0 0 1-.191-.557l-.207-.586-.44-1.277c-.229-.659-.458-1.318-.687-1.985a131.16 131.16 0 0 1-2.831-9.175h-.187l.007.002ZM126 27.958h11.437a744.873 744.873 0 0 1 3.957 10.955l.693 1.966.143.404.289.813.433 1.226c.956 2.697 1.913 5.412 2.869 8.108.13.367.261.733.39 1.1 1.393 3.913 2.794 7.846 4.181 11.76a4018.707 4018.707 0 0 1 2.26 6.35 934.607 934.607 0 0 0 3.147 8.738l.39 1.073c.176.506.176.506.176.693H143.99c-.615-1.796-.615-1.796-1.241-3.633l-.385-1.122-.315-.919-.154-.45c-.561-1.64-1.106-3.276-1.656-4.924h-17.25c-1.237 3.651-2.475 7.284-3.75 11.048h-12.187c.634-2.116.634-2.116.949-2.996l.215-.609.231-.644.245-.691.66-1.852.557-1.562c1.497-4.213 3-8.407 4.519-12.602.909-2.528 1.815-5.056 2.719-7.583l.232-.65c.915-2.547 1.825-5.112 2.738-7.678l.268-.754.134-.377.665-1.872.131-.37c1.534-4.326 3.094-8.633 4.688-12.94l-.003-.006Zm5.625 15.917c-.311.92-.613 1.839-.894 2.771a255.775 255.775 0 0 1-3.094 9.438l-.168.485-.313.898a47.71 47.71 0 0 0-.143.414l-.124.354c-.195.637-.347 1.287-.508 1.929h10.5c-.244-1.096-.478-2.06-.844-3.108l-.136-.392a439.384 439.384 0 0 1-1.048-3.015l-.153-.445c-1.062-3.09-2.1-6.18-2.888-9.344h-.187v.015ZM205.125 27.958c26.062 0 26.062 0 28.875 1.077l.394.145c1.968.757 3.656 1.892 5.25 3.277l.384.33c1.969 1.822 3.319 4.25 4.125 6.778l.119.364c1.082 3.464 1.127 7.77.069 11.254l-.201.662c-1.508 4.55-4.406 7.771-8.663 9.944-3.168 1.458-6.487 1.775-9.937 1.762l-.675-.001c-.825 0-1.65-.004-2.475-.006l-5.606-.012v17.602h-11.625v-53.18l-.034.004Zm11.625 10.3c-.004 1.928-.008 3.857-.01 5.767l-.004 2.677-.004 2.584-.002.99-.001 1.38-.002.417c-.055.627-.055.627.21 1.15.587.023 1.17.035 1.758.038l.546.003a231.762 231.762 0 0 1 2.88.017c3.206.017 6.431-.018 8.906-2.303 1.51-1.695 1.757-3.839 1.701-6.011-.126-2.004-.776-3.633-2.25-5-1.913-1.578-4.181-1.792-6.6-1.77l-.623.002-1.95.012-1.329.005c-1.08.004-2.156.01-3.244.018l.018.023ZM12.563 35.261h64.5c.871 3.483.871 3.483.984 4.887l.042.478c.452 5.468-.558 10.767-2.718 15.804-.188.187-.188.187-.6.21H72.11c-.69 0-1.38 0-2.063-.002h-2.23c-1.289 0-2.57 0-3.863-.002l-5.588-.002c-3.019 0-6.037-.002-9.056-.003l-8.813-.004h-.547l-2.719-.001c-7.537-.002-15.056-.005-22.687-.01-.181-.353-.362-.71-.542-1.065l-.304-.6c-.377-.787-.64-1.581-.878-2.415l-.14-.483a30.594 30.594 0 0 1-1.183-8.501l-.001-.388c0-2.715.324-5.261.986-7.902h.08Zm7.874 3.183c-.935 1.29-1.543 2.491-1.558 4.083l-.004.378c-.005.41-.006.822-.008 1.232l-.005.86c-.003.599-.004 1.198-.005 1.799-.001.768-.008 1.535-.017 2.303-.005.592-.007 1.184-.007 1.774 0 .282-.003.565-.007.85a64.36 64.36 0 0 0-.002 1.187l-.003.681c.067.609.067.609.565 1.023.504.313.748.399 1.333.384l.416-.001c.58-.11.904-.273 1.365-.642.13-.616.13-.616.092-1.324l-.007-.71-.026-.902-.059-2.865h6.375c-.011 2.677-.011 2.677-.017 3.501l-.001.663-.003.678c.002.618.002.618.208 1.333h3.75c.013-1.7.023-3.408.03-5.112.002-.79.006-1.58.013-2.378.006-.764.009-1.528.01-2.284.002-.29.003-.58.007-.871.025-2.472-.197-4.326-1.932-6.217-1.372-1.337-3.056-1.187-4.856-1.181l-.703-.01c-1.969 0-3.506.335-4.931 1.753l-.012.015Zm17.063.375c-.992 1.217-1.26 2.378-1.125 3.932.319 1.555 1.367 2.697 2.644 3.577 1.129.642 2.381.938 3.637 1.254 1.103.285 2.081.568 2.794 1.508.152.573.086.957-.082 1.52-.662.684-1.373.725-2.288.796-2.006-.131-3.506-1.007-4.95-2.36-.489-.428-.632-.49-1.312-.608-.76.14-1.069.277-1.571.865-.274.75-.274.75-.188 1.498 1.176 2.041 3.225 3.427 5.494 4.045 2.419.339 4.631.187 6.769-1.04 1.089-.853 2.193-1.928 2.362-3.389.116-1.443-.2-2.808-1.09-3.97-1.488-1.537-3.618-2.153-5.643-2.64-.791-.196-1.395-.428-2.081-.876h-.375a32.666 32.666 0 0 1-.13-.807l-.072-.455c.014-.423.014-.423.257-.747.964-.715 2.381-.534 3.506-.425 1.07.352 1.97.934 2.813 1.685.652-.285 1.117-.67 1.64-1.146l.454-.412.343-.315c-.155-1.074-1.052-1.629-1.875-2.246-3.093-1.84-7.2-1.693-9.937.748l.006.008Zm17.625.187c-.193.14-.386.28-.585.422-1.612 1.54-2.663 3.539-2.831 5.767-.063 2.865.767 4.98 2.718 7.04 1.83 1.748 3.807 2.491 6.338 2.566 2.925-.08 4.95-1.163 6.975-3.24.53-.63.714-.966.684-1.799-.178-.712-.347-.957-.915-1.404-.534-.268-.905-.246-1.5-.188a4.246 4.246 0 0 0-1.265 1.206c-.86.98-2.063 1.532-3.356 1.648-1.67.042-2.85-.285-4.238-1.204-1.108-1.157-1.586-2.284-1.652-3.895.063-1.526.458-2.715 1.53-3.82 1.446-1.215 3.038-1.376 4.875-1.247a5.685 5.685 0 0 1 3.169 1.929l.199.316c.793-.116 1.41-.395 2.118-.76l.608-.31c.227-.12.227-.12.46-.24-.243-1.392-1.7-2.584-2.813-3.371-3.375-1.985-7.369-1.857-10.5.562l-.019.022Z"/><path fill="#0F172A" d="m65.438 13.353.57.408a38.093 38.093 0 0 1 3.13 2.565c.398.365.807.715 1.22 1.064 2.437 2.116 4.387 5 5.962 7.79.191.34.386.677.581 1.016 4.388 7.734 5.344 17.714 3.02 26.216-2.682 9.269-8.588 17.47-17.1 22.283-.554.298-1.113.586-1.677.865l-.407.202c-8.306 4.082-18.3 4.738-27.188 1.873-5.212-1.802-9.843-4.57-13.837-8.37a59.069 59.069 0 0 0-.559-.527C12.347 62.372 8.878 53.047 8.522 43.834 8.35 33.816 12.347 24.547 19.247 17.43l.34-.369c5.024-5.318 12.58-8.614 19.687-9.737l.418-.067c8.737-1.318 18.469.828 25.687 6.067l.059.028Zm-45 4.868-.449.412C13.614 24.7 10.183 33.651 9.902 42.414c-.123 5.992 1.279 12.003 4.162 17.265l.35.663c1.28 2.34 2.887 4.475 4.724 6.441.26.283.508.577.746.879.552.68 1.195 1.205 1.868 1.763l.296.25a39.002 39.002 0 0 0 5.513 3.876l.343.202c5.044 2.94 10.969 4.363 16.781 4.363h.39c9.506-.035 18.113-4.008 24.938-10.524 1.089-1.116 2.043-2.322 2.962-3.577l.238-.322c3.394-4.681 5.531-10.074 6.319-15.785l.057-.382c1.162-8.838-1.361-18.107-6.75-25.092-1.44-1.91-1.44-1.91-3.056-3.651h-.375l-.188-.562c-.455-.483-.986-.89-1.5-1.31l-.28-.233c-5.305-4.363-11.643-7.134-18.468-8.014l-.577-.075c-10.425-1.077-20.25 2.753-27.938 9.812l-.02-.18ZM95.063 5.488c.633.164.633.164 1.008.54.038.526.051 1.033.049 1.56l.001.495c.002.556.001 1.113 0 1.667l.003 1.2c.002 1.105.002 2.21.002 3.315a5607.154 5607.154 0 0 1 .008 10.542c0 1.891 0 3.782.002 5.674l.001 1.633v.41c.003 3.8.004 7.62.004 11.422v3.942c0 4.55.002 9.1.007 13.65.006 5.112.01 10.224.01 15.336v1.633l-.001.406c0 2.154.002 4.326.006 6.48.003 2.172.003 4.344 0 6.516 0 1.176 0 2.36.003 3.539.003 1.077.002 2.153-.001 3.22 0 .392 0 .781.002 1.173.003.528 0 1.056-.002 1.584l.005.466c-.013 1.019-.013 1.019-.437 1.498-.626.276-1.074.162-1.725-.006-.48-.72-.427-1.304-.423-2.135l-.002-.496c-.002-.553-.001-1.107 0-1.66l-.003-1.194c-.002-1.1-.002-2.19-.002-3.296l-.003-3.558c-.004-2.322-.005-4.643-.005-6.965 0-1.892 0-3.764-.002-5.655v-1.628l-.001-.408c-.002-3.801-.004-7.584-.004-11.385v-3.915c0-4.532-.002-9.063-.007-13.595-.006-5.093-.01-10.168-.009-15.26V30.2c0-2.154-.002-4.307-.005-6.46-.004-2.154-.004-4.326-.002-6.48.002-1.172.002-2.34-.002-3.52a549.185 549.185 0 0 1 .001-3.22c0-.39 0-.778-.002-1.167-.003-.527 0-1.053.003-1.579l-.006-.462c.008-.667.046-1.062.437-1.613.412-.273.412-.273 1.091-.249v.037Z"/><path fill="#0F172A" d="m31.5 16.723.85.17c2.456.502 2.456.502 2.905.953-.219.093-.438.186-.665.28-3.825 1.643-7.575 3.877-9.45 7.772-1.031 2.64-.938 4.4-.938 7.49H12.577c-.33-.66.066-1.399.278-2.079 1.875-5.636 6.112-10.299 11.381-12.957 2.213-1.07 4.819-2.229 7.294-1.645l-.03.016Z"/><path fill="#0F172A" d="m45.938 16.161.392.082c2.55.555 4.875 1.495 6.918 3.109l.467.348c1.65 1.406 2.963 3.54 3.131 5.749.034 1.966-.41 3.052-1.779 4.494-1.95 1.767-4.95 3.277-7.631 3.277l.082-.422c.604-3.426.534-6.703-1.39-9.737-2.868-3.913-7.8-5.71-12.43-6.46a52.35 52.35 0 0 0-1.818-.234l.188-.375c4.331-.893 9.581-.72 13.875.188l-.005-.019Z"/><path fill="#0F172A" d="M69.938 14.85c.465.426.92.858 1.376 1.293l.485.455c1.29 1.241 2.382 2.603 3.45 4.044.076.102.15.203.23.308 3.73 5.093 5.905 10.898 6.9 17.114l.062.394c.565 4.194.32 8.8-.626 12.901l-.116.502c-2.08 8.633-7.293 16.89-14.7 21.909l-.376.26c-8.138 5.543-18.338 7.977-28.126 6.292-7.743-1.51-14.606-5.019-20.25-10.487-.14-.132-.28-.265-.425-.4-6.6-6.367-10.5-15.973-10.669-25.092-.057-7.883 1.794-15.448 6.225-22.096l.25-.374a30.88 30.88 0 0 1 3.075-3.858c.369-.393.716-.794 1.063-1.207 2.718-3.09 6.225-5.45 9.862-7.303l.394-.203c13.481-6.91 30.75-4.625 42 5.468l-.085.08Zm-34.5-7.564-.544.145c-4.556 1.26-8.738 3.426-12.506 6.273l-.524.384c-2.887 2.228-5.512 5-7.537 8.033l-.403.6a38.573 38.573 0 0 0-1.097 1.834l-.221.388C9.436 30.56 7.862 36.608 7.899 43.03l.001.476c.009 2.34.105 4.606.621 6.89l.095.45c1.78 8.39 6.487 15.954 13.218 21.347l.535.444c7.256 5.86 17.175 8.389 26.437 7.471 7.313-.837 14.363-3.651 19.875-8.464.146-.125.293-.25.443-.38 7.48-6.572 12.13-15.56 12.843-25.466.56-9.925-2.68-19.662-9.3-27.152-5.418-6.03-12.375-10-20.25-11.778l-.422-.1c-2.325-.532-4.706-.519-7.087-.532l-.478-.005c-3.056-.022-6 .349-8.963 1.14l-.03-.086Z"/><path fill="#0F172A" d="M41.25 19.907c.53.352 1.009.715 1.5 1.123-.53.354-1.003.562-1.594.796-2.962 1.224-5.381 2.79-6.919 5.674-.766 1.859-.543 3.913-.49 5.88a1616.416 1616.416 0 0 1-4.499.013c-.546.003-1.091.004-1.637.005l-.52.002c-.406 0-.815-.01-1.222-.02-.455-.456-.245-1.757-.247-2.398.052-3.65 1.464-6.74 4.087-9.287 3.638-3.183 7.332-4.25 11.532-1.796l.009.008ZM11.812 34.325h66c1.845 4.606 1.709 11.123.563 15.916l-.095.427c-.54 2.416-1.41 4.55-2.343 6.873H13.874c-.641-1.28-1.183-2.453-1.605-3.783l-.168-.532c-1.913-6.31-1.709-12.527-.29-18.912l.001.011Zm.375.562c-.12.526-.242 1.052-.36 1.58l-.102.444c-1.47 6.516-.632 13.594 2.194 19.661.288.478.288.478.791.553l.564-.001.651.005.718-.008.76.003c.697.002 1.395-.002 2.1-.007.751-.004 1.503-.002 2.25-.002 1.303 0 2.606-.002 3.918-.008 1.875-.007 3.769-.01 5.644-.01 3.056-.003 6.113-.009 9.169-.018 2.962-.008 5.944-.015 8.906-.02h.555l2.756-.003c7.613-.01 15.244-.027 22.875-.048l.717-1.668c.067-.155.134-.309.202-.47.69-1.618 1.151-3.258 1.517-4.98l.093-.432c.904-4.381.926-9.362-.386-13.67l-.154-.505-.117-.382c-19.5-.154-19.5-.154-38.812-.21h-.6c-8.606.002-17.194.092-25.875.21l.026-.014ZM60 18.783c1.817 1.745 3.019 3.726 3.131 6.31-.109 2.041-1.05 3.483-2.53 4.85-1.608 1.324-3.732 2.603-5.813 2.996l-.563-.187.281-.227c1.913-1.59 3.263-3.426 3.507-5.954a9.393 9.393 0 0 0-2.57-6.685c-3.205-2.865-7.724-4.026-11.905-4.532v-.187C48.844 14.454 55.8 15.203 60 18.8v-.017Z"/><path fill="#0F172A" d="M43.5 21.966c1.09.695 1.894 1.892 2.437 3.052-.211.635-.363.736-.879 1.135-1.404 1.197-2.1 2.715-2.494 4.476l-.187 2.621h-7.313c-.54-2.153-.217-4.363.838-6.31 1.08-1.652 5.25-5.824 7.594-4.981l.004.007ZM59.438 17.472c3.112.444 6.056 2.434 7.93 4.925 1.068 1.68 1.533 3.39 1.263 5.374-.364 1.462-1.296 2.603-2.57 3.39-1.795 1.016-3.955 2.134-6.055 2.04.164-.219.328-.436.49-.655l.312-.417c.199-.263.4-.523.606-.78 1.822-2.284 2.625-4.774 2.343-7.696-.487-2.34-2.062-4.025-3.75-5.617l-.562-.562-.008-.002ZM47.25 87.505h1.313c.751 1.599 1.415 3.22 2.062 4.868a34.036 34.036 0 0 0 1.693-3.764c.35-.902.35-.902.557-1.108h1.313v6.928h-1.313l-.188-3.183c-.361.977-.361.977-.723 1.947-.38 1.02-.38 1.02-.589 1.229a37.05 37.05 0 0 1-1.313 0 281.18 281.18 0 0 1-.53-1.19c-.264-.6-.523-1.203-.782-1.806l-.188 2.996H47.25v-6.929.012ZM54.938 96.68h1.5c.618 1.607 1.237 3.22 1.874 4.869.599-1.18.599-1.18 1.11-2.379l.173-.445.17-.45.18-.466c.144-.374.286-.749.429-1.125h1.5v6.741h-1.313l-.187-2.996-.724 1.831c-.38.957-.38.957-.588 1.165h-1.5c-.372-.989-.743-1.985-1.125-2.996l-.188 2.996h-1.313v-6.741l.002-.004Z"/><path fill="#0F172A" d="M67.125 20.843c2.213.79 4.875 2.846 5.944 4.98.424 1.163.433 2.229-.024 3.39-1.455 2.135-4.03 3.37-6.487 4.007l.375-.352c1.768-1.784 2.869-3.483 3-6.03-.02-2.172-1.106-3.95-2.569-5.505-.247-.273-.247-.273-.247-.46l.008-.03ZM27.562 40.317c.572.356.99.77 1.311 1.356.107.561.09 1.093.059 1.663-.02.501-.04 1.003-.059 1.52h-6.187c-.188-2.622-.188-2.622.058-3.39 1.363-1.488 2.944-1.784 4.819-1.157v.008ZM62.25 87.505c1.5 0 1.5 0 1.931.378l.334.522.37.564c.12.197.243.393.367.596l.386.595c.313.485.62.974.926 1.464l.188-4.12h1.312v6.929c-1.5 0-1.5 0-1.912-.361l-.31-.5a276.63 276.63 0 0 0-.344-.538c-.17-.28-.17-.28-.342-.569l-.358-.57c-.29-.462-.576-.93-.86-1.396l-.188 3.932h-1.5v-6.928.002ZM38.25 87.88c.842.649 1.26 1.364 1.483 2.396.126 1.17-.087 2.21-.827 3.146-.843.816-1.755 1.138-2.925 1.166-1.18-.151-1.875-.63-2.606-1.55-.622-.976-.467-2.21-.392-3.314.315-.98.846-1.478 1.688-2.06 1.213-.536 2.437-.433 3.58.225v-.01Zm-3.581 1.647c-.37.738-.274 1.631-.188 2.434.338.562.544.834 1.125 1.124.737.07 1.182.07 1.84-.281.542-.618.723-1.15.785-1.966-.117-.781-.257-1.18-.785-1.768-1.103-.612-1.913-.412-2.775.457h-.002ZM42.188 96.68l1.78-.058.552-.026c1.19-.019 2.025.223 2.925 1.02.679.905.872 1.787.823 2.903-.158 1.007-.568 1.717-1.303 2.415-.65.418-1.138.504-1.894.498l-.457-.001-.578-.005-1.84-.012v-6.741l-.008.007Zm1.5 1.31v4.12c1.749.191 1.749.191 2.456-.445.572-.776.615-1.208.551-2.172-.332-.879-.45-1.068-1.313-1.498h-1.687l-.008-.004ZM40.687 87.505l1.71-.035.533-.016c.96-.01 1.612.08 2.437.612.567.566.719 1.079.75 1.873-.238.681-.425 1.174-.937 1.685.074.69.31 1.294.574 1.929l.206.502.157.376H44.43l-.469-1.007-.264-.566c-.205-.487-.205-.487-.205-.861H42.18v2.434h-1.5v-6.928l.007.002Zm1.5 1.31v1.873l.915.023.514.014c.482.009.482.009.821-.412.063-.562.063-.562 0-1.124-.339-.42-.339-.42-.82-.412l-.515.013-.915.024v.002ZM21.563 87.505c3.768 0 3.768 0 4.837.826.431.578.433 1.28.409 1.984-.246.526-.246.526-.563.937-.258.318-.258.318-.375.749.16.623.16.623.447 1.264l.273.664.218.506H25.12l-.159-.485c-.343-1.144-.343-1.144-1.132-1.948-.4-.06-.4-.06-.958.004v2.434h-1.313v-6.928l.003-.007Zm1.312 1.31v1.873a2456.853 2456.853 0 0 1 1.41.073c.491-.03.491-.03.816-.42.271-.406.271-.406.07-.905-.196-.414-.196-.414-.421-.62-.627-.027-1.249-.008-1.875 0ZM75 88.254c.465.434.56.6.739 1.24l.011.49c-.978.083-.978.083-1.5 0-.316-.309-.628-.62-.937-.936-.73-.077-1.363-.037-2.063.187-.45 1.243-.42 2.303 0 3.558.694.23 1.343.32 2.063.187l.469-.468c.469-.468.469-.468.859-.53.37.003.74.03 1.11.062-.014.575-.073.985-.447 1.434-.836.759-1.625 1.178-2.794 1.191-.982-.064-1.63-.286-2.4-.941-.875-1.135-1.1-2.154-.937-3.558.308-1.041.71-1.892 1.688-2.435 1.479-.55 2.85-.466 4.124.515l.015.004ZM33.375 96.867c.776.438 1.072.963 1.429 1.768v.374c-.99.066-.99.066-1.5 0a17.717 17.717 0 0 1-.75-.749c-.732-.198-1.137-.262-1.84.036-.446.369-.62.535-.785 1.088-.08.994-.098 1.632.562 2.434.5.393.758.374 1.407.352.665-.103.665-.103 1.02-.551.455-.427.58-.412 1.183-.41l.703.047c-.235 1.094-.791 1.635-1.688 2.247-1.078.36-2.212.354-3.262-.117-.876-.496-1.303-1.187-1.616-2.135-.178-2.359-.178-2.359.562-3.37 1.301-1.3 2.794-1.796 4.575-1.019v.005ZM9.75 87.505l1.71-.047.532-.02c1.034-.014 1.635.112 2.438.816.482.766.619 1.31.469 2.19-.214.778-.505 1.148-1.22 1.557-.558.176-1.057.207-1.64.198l-.797-.012v2.248h-1.5v-6.929l.008-.001Zm1.5 1.31v2.06l.714.024.402.013c.442-.012.442-.012.945-.412.078-.656.078-.656 0-1.31-.336-.415-.336-.415-.78-.413l-1.283.037.002.002ZM76.875 87.505h4.313v1.31h-2.813v1.499h2.438v1.31h-2.438v1.498h2.813v1.311h-4.313v-6.928ZM57.938 87.505l1.153.018c.322.897.64 1.792.962 2.696a492.343 492.343 0 0 1 .797 2.23l.148.414c.197.557.344 1.002.344 1.596h-1.5l-.375-1.498h-2.438l-.187 1.123-.188.375h-1.5c.392-1.54.885-3.034 1.429-4.513l.23-.644c.638-1.76.638-1.76 1.124-1.787v-.01Zm.215 2.266c-.095.237-.187.475-.281.713l-.158.4c-.152.405-.152.405-.123.944h1.312c-.088-.76-.165-1.398-.562-2.06h-.188v.002ZM37.313 96.68H39c.32.899.641 1.8.962 2.696.109.308.217.613.328.92l.469 1.318.149.416c.343.97.343.97.343 1.387h-1.5l-.375-1.31h-2.438l-.375 1.31h-1.5c.392-1.544.891-3.033 1.442-4.531l.237-.648c.189-.52.38-1.043.572-1.564l-.002.006Zm.75 2.06-.282.713-.158.401c-.152.404-.152.404-.123.944h1.313a71.669 71.669 0 0 0-.165-.82l-.092-.461c-.093-.44-.093-.44-.493-.779v.002ZM24.188 96.68h1.687c.32.899.641 1.8.962 2.696.109.308.217.613.328.92l.469 1.318.149.416c.343.97.343.97.343 1.387h-1.5l-.375-1.31h-2.438l-.374 1.31h-1.5c.429-1.492.928-2.958 1.441-4.419l.237-.678c.19-.546.38-1.093.572-1.638l-.002-.002Zm.75 2.06-.282.713-.158.401c-.152.404-.152.404-.123.944h1.313a71.669 71.669 0 0 0-.165-.82l-.092-.461c-.093-.44-.093-.44-.493-.779v.002ZM15.938 87.505h4.312v1.31l-2.813.188-.187 1.31h2.625v1.311H17.25v1.498h3v1.311h-4.313v-6.928ZM49.313 96.68h4.312v1.31h-3v1.312h2.625v1.31l-2.438.188-.187 1.31h3v1.311h-4.313v-6.74ZM27.938 87.505h4.312v1.31h-2.813v1.499l.486-.007.628-.005.627-.007c.51.019.51.019.697.206v1.124h-2.438v2.808h-1.5v-6.928ZM62.812 96.68H64.5l1.312 2.434.54-.9c.312-.519.625-1.03.96-1.534.366-.055.366-.055.773-.035l.727.035-1.117 2.228-.197.397c-.161.319-.334.631-.508.942-.289.661-.336 1.212-.37 1.929l-.037.706-.021.534h-1.5c.01-.16.02-.319.032-.484.012-2.265-.921-3.838-2.1-5.748-.187-.32-.187-.32-.187-.508l.005.004ZM51.375 59.604l.938.187.75 2.247.187-2.434H54v5.43h-.75l-.938-2.621-.187 2.621h-.75v-5.43ZM36 59.604h1.5l.281 2.285.082.657.077.633.07.582c.053.515.053.515.053 1.264h-.75l-.376-1.124h-.75v1.124h-.75c.09-1.831.244-3.614.563-5.43v.01Zm.563 1.124-.188 2.434h.563c.01-.335.017-.67.023-1.008l.013-.565c.015-.517.015-.517-.412-.861ZM47.438 59.604h1.5c.095.66.187 1.318.28 1.985l.082.562c.136.973.233 1.91.2 2.883h-.75l-.374-1.123H48l-.375 1.123h-.75c.107-1.827.302-3.614.562-5.43Zm.75 1.124c-.327.325-.257.784-.293 1.228l-.048.575-.034.444.75.187-.188-2.434h-.187ZM36.938 66.158h.75l.187 4.307.75.187.188-4.494h.75c.016.666.026 1.333.035 2.004l.014.57c.018 1.796.018 1.796-.611 2.491-.645.199-.645.199-1.313.187-.515-.385-.725-.606-.834-1.247l.012-.558.007-.606.02-.631.01-.64c.008-.52.02-1.04.036-1.56l-.001-.01ZM55.875 66.158c.427.305.547.474.637.994.006.543.01 1.084.007 1.627l.011.573V70.407c-.093.432-.093.432-.432.773-.623.333-1.056.206-1.725.034-.546-.819-.437-1.566-.433-2.528l-.01-.547v-.524l-.002-.48c.184-1.095.98-1.08 1.95-.977h-.003Zm-.938.562c-.225.184-.225.184-.208.535l.003.45.002.485.005.509.002.511.01 1.257.937.187c.218-.65.22-1.176.223-1.861l.008-.695c-.04-.58-.11-.891-.418-1.376h-.562l-.002-.002ZM40.875 66.158c1.688 0 1.688 0 2.175.27.452.805.392 1.7.16 2.584l-.078.333.187.187c.014.285.016.57.012.854a1493.845 1493.845 0 0 1-.012.83h-.75V69.53h-.937l-.188 1.686h-.562V66.16l-.007-.002Zm.75.562c-.23.189-.23.189-.206.575a558.233 558.233 0 0 0 .018 1.297c.572.19.572.19 1.125 0v-1.685a16.582 16.582 0 0 0-.937-.187ZM41.063 59.604c.495.014.71.027 1.136.292.187.328.187.328.187 1.077-.75 0-.75 0-1.053-.281-.085-.093-.17-.185-.26-.28H40.7c.197 1.033.197 1.033.949 1.755.577.515.65.624.76 1.347.028.597.005.786-.316 1.31-.581.343-.917.37-1.582.27-.353-.234-.353-.234-.563-.561v-.75h.75l.188.375h.562c-.026-.556-.049-.977-.444-1.393-.285-.229-.578-.448-.868-.667-.222-.44-.22-.726-.224-1.217l-.008-.451c.086-.773.428-.768 1.157-.826h.003ZM35.063 66.158c.562.374.562.374.691.865.02.147.04.294.059.446h-.75l-.375-.562-.563-.187v1.498l.634.245c.679.316.679.316 1.054.878.015.41.015.41-.035.854l-.043.446c-.11.385-.11.385-.672.76-.656.07-.656.07-1.312 0-.364-.339-.364-.339-.563-.749v-.562h.75l.375.562.563-.187v-.937l-.527-.245c-.915-.483-.915-.483-1.16-.878-.074-.764-.1-1.264.198-1.966.555-.429.996-.354 1.676-.281ZM52.125 66.158c.364.198.364.198.563.562.035.69.035.69 0 1.31h-.563l-.375-1.123h-.563v3.558l.75.187.188-1.31h.563c.09 1.377.09 1.377-.293 1.89-.654.251-1.099.162-1.77-.011-.546-.819-.437-1.566-.433-2.528l-.01-.547v-.524l-.001-.48c.183-1.095.98-1.08 1.95-.977l-.006-.007ZM44.625 66.158h2.25v.749h-1.5v1.498h1.5v.562h-1.5v2.247h-.75v-5.056ZM44.25 59.604H45v5.43h-.75v-5.43ZM56.25 61.664c.491.07.491.07.938.187.117.352.117.352.187.75l-.375.374c-.491-.07-.491-.07-.938-.188-.117-.352-.117-.352-.187-.749l.375-.374ZM32.813 61.477c.397.07.397.07.75.187.117.445.117.445.187.936l-.375.375c-.398-.07-.398-.07-.75-.188-.117-.445-.117-.445-.188-.936l.376-.374ZM43.313 74.959h.937l-.75.187v.562l.75.187h-.75v.749l.75.187h-.938V74.96ZM53.25 74.397l.188.562.374.187-.374.562v-.375H52.5l.75-.187v-.749ZM39.75 75.333c.117.352.117.352.188.75l-.376.374c-.117-.352-.117-.352-.187-.75l.375-.374ZM38.813 74.397l.187.374c-.176.397-.176.397-.375.75a18.73 18.73 0 0 1 0-.937l.188-.187ZM46.688 76.27l.374.561H46.5l.188-.562ZM36 74.772l.188.748-.376-.187.188-.561ZM50.438 74.772h.187v.936h-.188v-.936ZM50.813 76.082l.562.188-.563-.188ZM48.75 74.772l.563.187-.563-.188ZM41.625 74.772l.563.187-.563-.188ZM53.063 74.022l.187.375-.375-.187.188-.188Z"/></svg>