<svg width="300" height="111" viewBox="0 0 300 111" fill="none" xmlns="http://www.w3.org/2000/svg">
<path d="M184.875 27.5838C185.079 27.6396 185.079 27.6396 185.288 27.6966C189.356 28.8425 193.05 31.0858 195.188 34.8309C196.626 37.5086 197.25 40.2612 197.25 43.2947H185.625C185.439 42.276 185.439 42.276 185.25 41.2349C184.648 39.6639 183.651 38.6883 182.119 37.9767C179.85 37.0217 176.606 37.1434 174.319 37.9994C172.793 38.7091 171.769 39.5217 171 41.0516C170.567 42.2987 170.608 44.0289 171.035 45.2648C171.86 46.8564 172.886 47.5493 174.56 48.1672C175.633 48.4818 176.735 48.6915 177.823 48.9087C178.526 49.0473 179.227 49.1933 179.923 49.3394C180.44 49.4465 180.96 49.5529 181.477 49.6577C186.877 50.7663 192.558 52.0171 195.933 56.7733C198.202 60.3311 198.633 64.8814 197.795 68.9447C196.749 73.2141 194.27 76.7906 190.502 79.0938C188.608 80.1724 186.583 80.927 184.483 81.4907C184.36 81.5242 184.237 81.5579 184.112 81.5923C180.23 82.5848 175.037 82.5417 171.174 81.4907C171.039 81.4545 170.902 81.4182 170.763 81.3809C166.263 80.1301 162.457 77.767 160.057 73.6661C158.638 71.082 158.231 68.7414 158.231 65.7641H169.668C169.854 66.5056 170.04 67.2471 170.231 68.0111C170.808 69.3163 171.705 70.2769 173.006 70.8761C174.645 71.4865 176.1 71.6101 177.843 71.6176C178.053 71.6214 178.262 71.6253 178.477 71.6293C180.727 71.6397 183.108 71.2379 184.871 69.738C185.863 68.71 186.317 67.6034 186.38 66.1802C186.324 64.9388 186.02 63.746 185.233 62.7535C184.262 62.0214 183.283 61.6206 182.12 61.3416C181.968 61.3034 181.815 61.2652 181.657 61.2257C179.632 60.7276 177.57 60.34 175.507 59.9487C170.257 58.9431 164.857 57.3646 161.576 52.8143C159.138 49.0318 158.37 44.4254 159.213 40.0063C159.817 37.6656 160.742 35.662 162.195 33.7146C162.278 33.6017 162.36 33.488 162.446 33.3719C165.183 29.8703 170.19 27.6794 174.502 27.0615C177.84 26.687 181.627 26.6345 184.89 27.5296L184.875 27.5838Z" fill="#0F172A"/>
<path d="M262.5 27.9584H273.938C275.305 31.666 276.638 35.3736 277.969 39.0999C278.205 39.7665 278.441 40.435 278.678 41.1035C278.725 41.2376 278.773 41.3713 278.822 41.5098C278.917 41.7795 279.013 42.0491 279.108 42.3206C279.25 42.7214 279.392 43.1202 279.532 43.5209C280.295 45.6743 281.064 47.8465 281.838 49.9999C282.077 50.6665 282.313 51.3312 282.551 52.0035C282.611 52.1729 282.672 52.3424 282.734 52.5166C283.216 53.8666 283.696 55.213 284.174 56.5612C284.523 57.5443 284.871 58.5274 285.222 59.5198C285.311 59.7688 285.399 60.0179 285.486 60.2669C286.467 63.0383 287.455 65.7909 288.449 68.5435C288.528 68.7645 288.608 68.9854 288.689 69.212C289.058 70.24 289.43 71.2718 289.799 72.3017C290.858 75.2415 291.88 78.2001 292.893 81.14H280.518C279.903 79.3442 279.903 79.3442 279.276 77.5073C279.15 77.1365 279.023 76.7676 278.892 76.3856C278.787 76.0785 278.682 75.7733 278.577 75.4662C278.526 75.3177 278.475 75.1685 278.423 75.0168C277.862 73.3765 277.316 71.7399 276.767 70.0921H259.517C258.651 72.6949 257.785 75.279 256.892 77.9567C256.335 79.5315 256.335 79.5315 255.767 81.14H243.58C244.661 77.9005 245.736 74.661 246.898 71.459C247.123 70.8355 247.348 70.2119 247.573 69.5884C247.811 68.9255 248.051 68.2626 248.29 67.6035C249.152 65.2067 250.007 62.8286 250.858 60.4317C251.014 59.9973 251.17 59.561 251.325 59.1266C252.439 56.0182 253.556 52.8911 254.663 49.7827C255.268 48.0824 255.874 46.3747 256.481 44.6894C256.688 44.1127 256.892 43.5378 257.098 42.9611C258.881 37.9614 260.698 32.9618 262.517 27.9808L262.5 27.9584ZM268.125 43.8748C267.818 44.7811 267.521 45.6875 267.244 46.6087C266.194 50.0729 265.031 53.4996 263.85 56.9076C263.786 57.0949 263.721 57.284 263.653 57.4769C263.53 57.8345 263.406 58.1922 263.282 58.548C263.2 58.7858 263.2 58.7858 263.116 59.0292C263.068 59.1683 263.02 59.3082 262.97 59.4505C262.85 59.7932 262.85 59.7932 262.868 60.1677H273.368C273.066 58.7839 273.066 58.7839 272.661 57.4525C272.597 57.269 272.534 57.0855 272.47 56.8964C272.402 56.7035 272.334 56.5088 272.263 56.3103C272.117 55.8852 271.971 55.4602 271.823 55.0332C271.594 54.3741 271.365 53.715 271.136 53.0484C270.083 50.0149 269.13 46.9626 268.305 43.873H268.118L268.125 43.8748Z" fill="#0F172A"/>
<path d="M126 27.9584H137.437C138.782 31.5911 140.1 35.2425 141.394 38.9127C141.624 39.5662 141.855 40.2197 142.087 40.8788C142.135 41.0121 142.182 41.1447 142.23 41.2833C142.326 41.5548 142.422 41.8263 142.519 42.0959C142.664 42.5042 142.808 42.9124 142.952 43.3224C143.908 46.0189 144.865 48.734 145.821 51.4305C145.951 51.7975 146.082 52.1626 146.211 52.5297C147.604 56.4432 149.005 60.3755 150.392 64.2891C150.827 65.5081 151.26 66.7234 151.693 67.9405C151.95 68.6615 152.207 69.3843 152.464 70.1127C152.557 70.373 152.557 70.373 152.652 70.6407C153.642 73.4308 154.639 76.2021 155.652 78.9735C155.7 79.1072 155.749 79.2412 155.799 79.3779C155.929 79.7356 156.059 80.0932 156.189 80.4509C156.365 80.9565 156.365 80.9565 156.365 81.1437H143.99C143.375 79.348 143.375 79.348 142.749 77.511C142.622 77.1403 142.495 76.7714 142.364 76.3894C142.259 76.0823 142.154 75.7771 142.049 75.47C141.998 75.3215 141.947 75.1722 141.895 75.0206C141.334 73.3802 140.789 71.7436 140.239 70.0958H122.989C121.752 73.7472 120.514 77.38 119.239 81.1437H107.052C107.686 79.0278 107.686 79.0278 108.001 78.1477C108.072 77.9473 108.143 77.747 108.216 77.5391C108.292 77.3256 108.368 77.1141 108.447 76.895C108.528 76.6665 108.609 76.4399 108.692 76.204C108.912 75.5861 109.131 74.97 109.352 74.3521C109.538 73.8315 109.724 73.311 109.909 72.7904C111.406 68.5772 112.909 64.3827 114.428 60.1883C115.337 57.6604 116.243 55.1325 117.147 52.6046C117.224 52.3892 117.3 52.1758 117.379 51.9548C118.294 49.4082 119.204 46.8428 120.117 44.2774C120.206 44.0265 120.295 43.7737 120.385 43.5228C120.451 43.3361 120.451 43.3361 120.519 43.1464C120.74 42.521 120.963 41.8956 121.184 41.2739C121.228 41.1516 121.271 41.0286 121.315 40.9031C122.849 36.5776 124.409 32.2708 126.003 27.964L126 27.9584ZM131.625 43.8748C131.314 44.7943 131.012 45.7137 130.731 46.6462C129.767 49.8108 128.724 52.9566 127.637 56.0837C127.554 56.3234 127.554 56.3234 127.469 56.5687C127.365 56.8683 127.261 57.1679 127.156 57.4675C127.108 57.6038 127.061 57.7409 127.013 57.8813C126.952 58.0564 126.952 58.0564 126.889 58.2352C126.694 58.8719 126.542 59.5217 126.381 60.1639H136.881C136.637 59.0685 136.403 58.1042 136.037 57.0556C135.97 56.8627 135.97 56.8627 135.901 56.6642C135.806 56.3889 135.71 56.1155 135.613 55.8403C135.358 55.1119 135.105 54.3816 134.853 53.6494C134.803 53.5026 134.752 53.3554 134.7 53.2038C133.638 50.1141 132.6 47.0244 131.812 43.8599H131.625L131.625 43.8748Z" fill="#0F172A"/>
<path d="M205.125 27.9584C231.187 27.9584 231.187 27.9584 234 29.0351C234.195 29.107 234.195 29.107 234.394 29.1804C236.362 29.9369 238.05 31.0716 239.644 32.4573C239.833 32.6202 239.833 32.6202 240.028 32.7869C241.997 34.6088 243.347 37.0375 244.153 39.5654C244.212 39.7455 244.212 39.7455 244.272 39.9287C245.354 43.3929 245.399 47.6997 244.341 51.1826C244.275 51.4016 244.209 51.6207 244.14 51.8454C242.632 56.3957 239.734 59.6164 235.477 61.7886C232.309 63.2472 228.99 63.5637 225.54 63.5506C225.317 63.5504 225.094 63.5502 224.865 63.55C224.04 63.5491 223.215 63.5464 222.39 63.544C220.541 63.5402 218.696 63.5363 216.784 63.5323V81.1341H205.159V27.9543L205.125 27.9584ZM216.75 38.2573C216.746 40.186 216.742 42.1147 216.74 44.0246C216.739 44.9178 216.738 45.8129 216.736 46.7024C216.734 47.5637 216.733 48.427 216.732 49.2864C216.732 49.616 216.731 49.9456 216.73 50.2751C216.729 50.7358 216.729 51.1945 216.729 51.6552C216.728 51.7928 216.727 51.9304 216.727 52.0728C216.672 52.7001 216.672 52.7001 216.937 53.2225C217.524 53.2463 218.107 53.2579 218.695 53.2605C218.965 53.2621 218.965 53.2621 219.241 53.2637C219.625 53.2655 220.008 53.2667 220.392 53.2675C220.968 53.2692 221.545 53.275 222.121 53.281C225.327 53.2982 228.552 53.2631 231.027 50.9778C232.537 49.2831 232.784 47.1391 232.728 44.967C232.602 42.9634 231.952 41.3343 230.478 39.9673C228.565 38.3888 226.297 38.1753 223.878 38.1978C223.672 38.1983 223.467 38.1989 223.255 38.1994C222.607 38.2015 221.956 38.2062 221.305 38.211C220.863 38.2128 220.419 38.2145 219.976 38.2161C218.896 38.2202 217.82 38.2264 216.732 38.2344L216.75 38.2573Z" fill="#0F172A"/>
<path d="M12.5625 35.2612H77.0625C77.9344 38.7441 77.9344 38.7441 78.0469 40.1485C78.0608 40.3062 78.0748 40.4631 78.0892 40.626C78.5411 46.0938 77.5305 51.393 75.3705 56.4301C75.183 56.6174 75.183 56.6174 74.7705 56.6398C74.5866 56.6398 74.403 56.6397 74.2136 56.6396C74.0017 56.64 73.7917 56.6404 73.5724 56.6407C73.338 56.6402 73.1017 56.6397 72.8599 56.6391C72.6124 56.6393 72.3649 56.6394 72.1099 56.6396C71.4199 56.64 70.7299 56.6392 70.0474 56.6383C69.3049 56.6375 68.5605 56.6378 67.8161 56.6379C66.528 56.638 65.2474 56.6374 63.9536 56.6364C62.0917 56.6349 60.2224 56.6344 58.3661 56.6341C55.3474 56.6337 52.3286 56.6325 49.3099 56.6307C46.3661 56.629 43.4411 56.6276 40.4974 56.6269C40.3164 56.6268 40.1355 56.6268 39.9499 56.6267C39.0424 56.6265 38.1349 56.6262 37.2311 56.626C29.6936 56.624 22.1749 56.6208 14.5436 56.6166C14.3625 56.2627 14.1817 55.9069 14.0017 55.5511C13.9012 55.3526 13.8011 55.156 13.698 54.9519C13.3211 54.1636 13.0586 53.3696 12.8205 52.5363C12.774 52.3768 12.7277 52.218 12.6797 52.0532C11.8772 49.2257 11.5003 46.4918 11.4966 43.552C11.4962 43.4239 11.4959 43.2954 11.4956 43.1643C11.4952 40.4492 11.82 37.9026 12.4819 35.2623L12.5625 35.2612ZM20.4375 38.4445C19.5019 39.7347 18.8944 40.935 18.8794 42.5266C18.8778 42.6515 18.8763 42.7756 18.8746 42.9049C18.8701 43.3149 18.8685 43.7269 18.8672 44.137C18.8656 44.4235 18.8638 44.71 18.8621 44.9965C18.859 45.5957 18.8576 46.1949 18.857 46.796C18.856 47.5637 18.8489 48.3314 18.8404 49.0992C18.8348 49.6909 18.8334 50.2826 18.8333 50.8725C18.8325 51.1552 18.8301 51.438 18.8262 51.7226C18.8212 52.1177 18.8221 52.5147 18.8244 52.9098C18.8235 53.1345 18.8225 53.3592 18.8215 53.5914C18.8883 54.1999 18.8883 54.1999 19.3859 54.6138C19.8903 54.9265 20.134 55.0126 20.719 54.9976C20.8563 54.9974 20.9928 54.9971 21.1353 54.9969C21.7147 54.8872 22.039 54.7235 22.5003 54.3546C22.63 53.7386 22.63 53.7386 22.5918 53.0307C22.5895 52.7967 22.5871 52.5626 22.5847 52.3211C22.5762 52.0233 22.5676 51.7256 22.5588 51.4185C22.5298 49.9991 22.5298 49.9991 22.5003 48.5535H28.8753C28.8636 51.2312 28.8636 51.2312 28.8584 52.0552C28.858 52.2742 28.8575 52.4933 28.857 52.718C28.856 52.9409 28.8551 53.1656 28.854 53.3959C28.8564 54.0138 28.8564 54.0138 29.0622 54.7291H32.8122C32.8249 53.0289 32.8352 51.3211 32.8412 49.6171C32.8442 48.8269 32.8481 48.0367 32.8545 47.239C32.8607 46.475 32.864 45.711 32.8655 44.9545C32.8665 44.6643 32.8685 44.3741 32.8716 44.0838C32.8967 41.6121 32.6747 39.7583 30.9403 37.867C29.5678 36.53 27.8841 36.6798 26.0841 36.6855C25.8516 36.6824 25.6209 36.6794 25.3809 36.6763C23.4122 36.6753 21.8747 37.0115 20.4497 38.429L20.4375 38.4445ZM37.5 38.819C36.5081 40.0361 36.24 41.1971 36.375 42.7513C36.6937 44.3055 37.7419 45.4477 39.0187 46.3278C40.1475 46.9701 41.4 47.266 42.6562 47.5824C43.7587 47.867 44.7375 48.1498 45.45 49.0898C45.6017 49.6628 45.5364 50.0467 45.3679 50.6103C44.706 51.2938 43.9954 51.335 43.0804 51.4061C41.0741 51.2747 39.5741 50.3987 38.1304 49.0467C37.641 48.6179 37.4985 48.5561 36.8179 48.4382C36.0585 48.5786 35.7491 48.7153 35.2466 49.3033C34.9729 50.0523 34.9729 50.0523 35.0591 50.8013C36.2347 52.8423 38.2841 54.228 40.5529 54.8459C42.9716 55.1849 45.1841 55.0328 47.3216 53.8067C48.411 52.9528 49.5154 51.878 49.6841 50.4174C49.7998 48.9737 49.4835 47.6086 48.5947 46.4477C47.106 44.9103 44.976 44.2943 42.951 43.8074C42.1597 43.6108 41.556 43.3786 40.8697 42.9311H40.4947C40.4479 42.6633 40.4059 42.3937 40.3657 42.124C40.3299 41.8993 40.3299 41.8993 40.2932 41.669C40.3071 41.2458 40.3071 41.2458 40.5501 40.9218C41.5138 40.2065 42.9313 40.3882 44.0563 40.4968C45.1251 40.8488 46.0251 41.4312 46.8688 42.1821C47.5213 41.8974 47.9863 41.5117 48.5094 41.0361C48.6592 40.9005 48.8094 40.7646 48.9632 40.6241C49.0762 40.5204 49.1901 40.4163 49.3063 40.3095C49.1505 39.2347 48.2544 38.6804 47.4313 38.0625C44.3376 36.2237 40.2313 36.3697 37.4938 38.8115L37.5 38.819ZM55.125 39.0063C54.9319 39.1452 54.7387 39.2853 54.54 39.4276C52.9275 40.9687 51.8775 42.9666 51.7087 45.195C51.6463 48.0599 52.4756 50.1759 54.4275 52.2356C56.2575 53.9827 58.2337 54.7261 60.765 54.801C63.69 54.7205 65.715 53.6382 67.74 51.5615C68.2706 50.9305 68.4544 50.5953 68.4244 49.762C68.2464 49.0505 68.0775 48.8052 67.5094 48.3576C66.975 48.0899 66.6037 48.1123 66.0094 48.1704C65.4656 48.5187 65.1206 48.852 64.7437 49.3763C63.8831 50.3556 62.6812 50.908 61.3875 51.0241C59.7187 51.0659 58.5375 50.7395 57.15 49.8201C56.0419 48.6629 55.5637 47.5356 55.4981 45.9252C55.5606 44.3991 55.9556 43.2101 57.0281 42.1053C58.4737 40.89 60.0656 40.729 61.9031 40.8582C63.1481 41.1241 64.2656 41.8169 65.0719 42.7869C65.1377 42.8912 65.2033 42.9947 65.2706 43.1033C66.0637 42.9872 66.6806 42.7082 67.3894 42.3431L67.9969 42.0323C68.2237 41.9139 68.2237 41.9139 68.4562 41.7926C68.2144 40.4013 66.7575 39.2085 65.6437 38.422C62.2687 36.4371 58.275 36.5645 55.1437 38.9838L55.125 39.0063Z" fill="#0F172A"/>
<path d="M65.4376 13.3526C65.6251 13.4873 65.8144 13.6223 66.0076 13.7608C67.1026 14.5623 68.1263 15.4068 69.1388 16.3262C69.5363 16.6914 69.9451 17.0415 70.3576 17.3898C72.7951 19.5058 74.7451 22.3895 76.3201 25.1795C76.5113 25.5203 76.7063 25.8574 76.9013 26.1963C81.2888 33.9298 82.2451 43.9104 79.9201 52.4117C77.2388 61.6807 71.3326 69.8823 62.8201 74.6947C62.2669 74.9925 61.7082 75.2808 61.1438 75.5598C61.0099 75.6269 60.8757 75.6939 60.7369 75.7621C52.4307 79.8442 42.4369 80.4996 33.5494 77.6346C28.3369 75.8332 23.7057 73.0656 19.7119 69.2644C19.5267 69.0878 19.3407 68.9124 19.1532 68.7382C12.3469 62.3716 8.87818 53.0465 8.52193 43.8336C8.34999 33.8156 12.3469 24.5466 19.2469 17.431C19.3591 17.3093 19.4719 17.1876 19.5863 17.0621C24.6113 11.7441 32.1676 8.44849 39.2738 7.32498C39.4122 7.30307 39.5513 7.28116 39.6919 7.2585C48.4294 5.94024 58.1607 8.08616 65.3794 13.3255L65.4376 13.3526ZM20.4376 18.2212C20.2894 18.3568 20.1413 18.4927 19.9894 18.6332C13.6144 24.7001 10.1832 33.6508 9.90193 42.4142C9.77912 48.4063 11.1807 54.4171 14.0644 59.6789C14.1797 59.898 14.2951 60.1152 14.4132 60.3418C15.6938 62.6825 17.3007 64.8172 19.1382 66.7833C19.3988 67.0661 19.6463 67.36 19.8844 67.6615C20.4357 68.3413 21.0788 68.8674 21.7519 69.4254C21.8982 69.5483 21.8982 69.5483 22.0482 69.6745C23.7938 71.1351 25.5919 72.4084 27.5607 73.5506L27.9038 73.7529C32.9476 76.6927 38.8726 78.1158 44.6851 78.1158C44.8139 78.1157 44.9419 78.1156 45.0751 78.1155C54.5813 78.0813 63.1876 74.1083 70.0126 67.5919C71.1019 66.4759 72.0563 65.27 72.9751 64.0154C73.0533 63.909 73.1316 63.8019 73.2132 63.6933C76.6069 59.012 78.7444 53.6191 79.5319 47.9079C79.5507 47.7815 79.5694 47.6551 79.5889 47.5259C80.7514 38.6876 78.2277 29.4186 72.8389 22.4341C71.3989 20.5241 71.3989 20.5241 69.7827 18.7827H69.4077C69.3458 18.5973 69.2839 18.4119 69.2202 18.2209C68.7646 17.7378 68.2339 17.3314 67.7202 16.9101C67.5818 16.7955 67.5818 16.7955 67.4408 16.6779C62.1346 12.3149 55.7971 9.54361 48.9721 8.66352C48.7808 8.63899 48.5914 8.61428 48.3946 8.589C37.9696 7.51229 28.1446 11.3416 20.4571 18.401L20.4376 18.2212Z" fill="#0F172A"/>
<path d="M95.0626 5.48803C95.6964 5.65188 95.6964 5.65188 96.0714 6.02732C96.1087 6.5535 96.1222 7.06095 96.1196 7.58713C96.1202 7.75116 96.1209 7.91482 96.1215 8.08335C96.1233 8.63949 96.1224 9.19563 96.1215 9.7499C96.1222 10.1506 96.123 10.5495 96.124 10.9502C96.1263 12.055 96.1263 13.1598 96.1258 14.2646C96.1258 15.4536 96.1278 16.6427 96.1296 17.8224C96.1327 20.1443 96.1337 22.4849 96.1339 24.8069C96.1341 26.6981 96.1349 28.5894 96.1361 30.4806C96.1364 31.0255 96.1368 31.5686 96.1371 32.1135C96.1372 32.2489 96.1373 32.385 96.1373 32.5236C96.1396 36.3248 96.1411 40.1447 96.141 43.946C96.141 44.0896 96.1409 44.2325 96.1409 44.3804C96.1409 45.1088 96.1409 45.8372 96.1408 46.5713C96.1408 46.7885 96.1408 46.7885 96.1408 47.0094C96.1408 47.3015 96.1408 47.5937 96.1408 47.8876C96.1405 52.4379 96.1434 56.9881 96.1485 61.5384C96.1542 66.6503 96.1575 71.7624 96.1571 76.8743C96.1571 77.4193 96.1571 77.9642 96.1571 78.5072C96.1571 78.6413 96.157 78.775 96.157 78.9135C96.157 81.0669 96.1594 83.2391 96.1627 85.3925C96.1658 87.5646 96.1661 89.7367 96.1637 91.9089C96.1625 93.0848 96.1625 94.2682 96.1657 95.4479C96.1687 96.5246 96.1682 97.6013 96.1649 98.6687C96.1643 99.06 96.165 99.4495 96.1671 99.8409C96.1697 100.369 96.1678 100.897 96.1646 101.425C96.1665 101.579 96.1684 101.734 96.1703 101.891C96.1573 102.91 96.1573 102.91 95.7334 103.389C95.1071 103.665 94.659 103.551 94.0084 103.383C93.5284 102.663 93.5809 102.079 93.5846 101.248C93.584 101.084 93.5833 100.92 93.5827 100.752C93.5809 100.199 93.5818 99.645 93.5827 99.0926C93.582 98.6937 93.5812 98.2949 93.5802 97.8979C93.5779 96.7988 93.5779 95.7071 93.5784 94.6023C93.5784 93.4188 93.5764 92.2429 93.5746 91.0445C93.5715 88.7225 93.5705 86.4006 93.5703 84.0787C93.5701 82.1874 93.5693 80.3149 93.5681 78.4237C93.5678 77.8806 93.5674 77.3395 93.5671 76.7964C93.567 76.6616 93.5669 76.5268 93.5669 76.3882C93.5646 72.587 93.5631 68.8045 93.5632 65.0033C93.5632 64.8602 93.5633 64.7168 93.5633 64.5707C93.5633 63.846 93.5633 63.1214 93.5634 62.3986C93.5634 62.2546 93.5634 62.1102 93.5634 61.9623C93.5634 61.6702 93.5634 61.3799 93.5634 61.0878C93.5637 56.5563 93.5608 52.0248 93.5557 47.4933C93.55 42.4 93.5467 37.3254 93.5471 32.2322C93.5471 31.6891 93.5471 31.148 93.5471 30.605C93.5471 30.4714 93.5472 30.3372 93.5472 30.2005C93.5472 28.0471 93.5448 25.8937 93.5415 23.7403C93.5384 21.5869 93.5381 19.4147 93.5405 17.2613C93.5417 16.0891 93.5417 14.9207 93.5385 13.741C93.5355 12.6699 93.536 11.6063 93.5393 10.5202C93.5399 10.1308 93.5392 9.74314 93.5371 9.35365C93.5345 8.82747 93.5364 8.30129 93.5396 7.77511C93.5377 7.62232 93.5358 7.46989 93.5339 7.3126C93.5424 6.64598 93.5804 6.25088 93.9708 5.70036C94.3833 5.42697 94.3833 5.42697 95.0621 5.45131L95.0626 5.48803Z" fill="#0F172A"/>
<path d="M31.4999 16.7232C31.783 16.7803 32.0662 16.8368 32.3493 16.8928C34.8055 17.3947 34.8055 17.3947 35.2555 17.846C35.0362 17.9388 34.8168 18.0319 34.5899 18.1268C30.7649 19.769 27.0149 22.003 25.1399 25.8978C24.1087 28.5381 24.2024 30.2983 24.2024 33.3879H12.5774C12.2474 32.7288 12.6434 31.9891 12.8549 31.3094C14.7299 25.6731 18.9674 21.0105 24.2362 18.3515C26.4487 17.2823 29.0549 16.1232 31.5299 16.7075L31.4999 16.7232Z" fill="#0F172A"/>
<path d="M45.9376 16.1614C46.1326 16.2021 46.1326 16.2021 46.3295 16.2435C48.8795 16.7977 51.2045 17.7377 53.2482 19.3518C53.4024 19.4668 53.5557 19.5822 53.7151 19.7001C55.3651 21.1064 56.6776 23.2392 56.8464 25.4488C56.8801 27.4149 56.4357 28.501 55.067 29.9429C53.117 31.7105 50.117 33.2198 47.4357 33.2198C47.4627 33.081 47.4899 32.9426 47.5179 32.7985C48.1216 29.3717 48.0522 26.0948 46.1285 23.0613C43.2597 19.1477 38.3285 17.3501 33.6972 16.6011C33.0916 16.5135 32.4879 16.4333 31.8804 16.367C31.9422 16.2435 32.0041 16.1199 32.0679 15.9925C36.3991 15.0993 41.6491 15.2716 45.9429 16.1798L45.9376 16.1614Z" fill="#0F172A"/>
<path d="M69.9375 14.8507C70.4025 15.2757 70.8581 15.7083 71.3137 16.1427C71.4737 16.2927 71.6344 16.4423 71.7994 16.5977C73.0894 17.8392 74.1806 19.2005 75.2494 20.6424C75.3245 20.7435 75.3997 20.8446 75.4781 20.9495C79.2094 26.0428 81.3844 31.8476 82.3781 38.0644C82.4094 38.2591 82.4094 38.2591 82.4413 38.4576C83.0057 42.6521 82.7619 47.2585 81.815 51.3593C81.7577 51.6084 81.7577 51.6083 81.6994 51.8611C79.6181 60.4935 74.4056 68.7513 66.9994 73.7697C66.8749 73.8556 66.75 73.9418 66.6225 74.03C58.485 79.5727 48.285 82.0069 38.4975 80.3217C30.7537 78.8124 23.8912 75.3033 18.2475 69.8355C18.1072 69.7029 17.9662 69.5696 17.8219 69.4348C11.2219 63.0682 7.32186 53.4622 7.15311 44.343C7.09649 36.4596 8.94749 28.8946 13.3781 22.2471C13.5017 22.0621 13.5017 22.0621 13.6275 21.8726C14.5631 20.4945 15.5587 19.2324 16.7025 18.0152C17.0719 17.622 17.4187 17.2213 17.7656 16.8075C20.4844 13.7178 23.9906 11.3584 27.6281 9.50461C27.7581 9.43757 27.8887 9.37053 28.0219 9.30237C41.5031 2.39275 58.7719 4.67723 70.0219 14.7701L69.9375 14.8507ZM35.4375 7.28566C35.1675 7.35738 35.1675 7.35738 34.8937 7.43078C30.3375 8.69099 26.1562 10.8575 22.3875 13.7037C22.1287 13.8947 22.1287 13.8947 21.8644 14.0876C18.9769 16.3159 16.3519 19.0873 14.3269 22.1207C14.1939 22.3192 14.0606 22.5177 13.9237 22.7218C13.5394 23.3229 13.1775 23.9334 12.8269 24.555C12.7539 24.6831 12.681 24.8116 12.6056 24.9426C9.43687 30.5602 7.86187 36.6085 7.89937 43.0312C7.89971 43.188 7.90005 43.344 7.9004 43.5069C7.90899 45.8475 8.00484 48.1133 8.52103 50.3978L8.61553 50.8472C10.3968 59.2361 15.103 66.8011 21.8343 72.194C22.0107 72.3402 22.1868 72.4861 22.3686 72.6378C29.6249 78.4988 39.5436 81.0267 48.8061 80.1091C56.1186 79.2721 63.1687 76.4577 68.6812 71.6453C68.8274 71.5199 68.9736 71.3944 69.1236 71.2652C76.6049 64.6926 81.2549 55.7045 81.9674 45.7988C82.5261 35.8745 79.2861 26.1373 72.6674 18.6472C67.2486 12.6177 60.2924 8.64792 52.4174 6.86903C52.2781 6.83607 52.138 6.80293 51.9955 6.76885C49.6705 6.23705 47.2893 6.25016 44.908 6.23705C44.6718 6.23478 44.6718 6.23478 44.4299 6.23248C41.3736 6.21038 38.4299 6.58077 35.4674 7.37285L35.4375 7.28566Z" fill="#0F172A"/>
<path d="M41.25 19.9065C41.7806 20.2585 42.2588 20.6218 42.75 21.03C42.2194 21.3839 41.7469 21.5918 41.1563 21.8258C38.1938 23.0505 35.775 24.6159 34.2375 27.4996C33.4706 29.359 33.6938 31.4132 33.7463 33.3793C32.6288 33.3839 31.515 33.3873 30.39 33.3896C30.0094 33.3905 29.6288 33.3918 29.2481 33.3934C28.7025 33.3957 28.1569 33.3968 27.6113 33.3976C27.3544 33.399 27.3544 33.399 27.0919 33.4005C26.685 33.4005 26.2763 33.3909 25.8694 33.3793C25.4138 32.9243 25.6238 31.6229 25.6219 30.9825C25.674 27.3311 27.0863 24.2414 29.7094 21.6948C33.3469 18.5115 37.0407 17.4442 41.2407 19.899L41.25 19.9065Z" fill="#0F172A"/>
<path d="M11.8124 34.325H77.8124C79.6574 38.9314 79.5205 45.4478 78.3749 50.2414C78.3438 50.3822 78.3125 50.5223 78.2804 50.6684C77.7404 53.0839 76.8704 55.2186 75.9366 57.5405H13.8741C13.2329 56.2616 12.691 55.0875 12.2691 53.758C12.2134 53.5822 12.1579 53.406 12.1006 53.2262C10.1881 46.9158 10.3924 40.699 11.8118 34.3137L11.8124 34.325ZM12.1874 34.8867C12.0664 35.4129 11.9455 35.9391 11.8274 36.4671C11.7936 36.6137 11.7597 36.7611 11.725 36.9109C10.255 43.4273 11.0931 50.5055 13.9188 56.5724C14.2075 57.0499 14.2075 57.0499 14.71 57.1248C14.896 57.1245 15.0813 57.1241 15.2744 57.1238C15.5969 57.1265 15.5969 57.1265 15.925 57.1294C16.1613 57.1267 16.3994 57.124 16.6431 57.1212C16.8963 57.1216 17.1494 57.1224 17.4025 57.1236C18.1 57.1257 18.7975 57.1219 19.5025 57.1172C20.2544 57.1132 21.0063 57.1145 21.7525 57.1153C23.0556 57.1157 24.3588 57.1128 25.6713 57.1075C27.5463 57.0999 29.44 57.0975 31.315 57.0963C34.3713 57.0943 37.4275 57.088 40.4838 57.0792C43.4463 57.0706 46.4275 57.064 49.39 57.0599C49.573 57.0597 49.7556 57.0594 49.945 57.0592C50.8638 57.0579 51.7806 57.0568 52.7013 57.0556C60.3138 57.0459 67.945 57.0294 75.5763 57.0084C75.8163 56.4523 76.0544 55.8961 76.2925 55.34C76.3596 55.1851 76.4268 55.031 76.495 54.87C77.185 53.2521 77.6463 51.6118 78.0119 49.8891L78.1049 49.4584C79.0086 45.0767 79.0311 40.0957 77.7186 35.7889C77.668 35.6225 77.6174 35.4556 77.5653 35.2833C77.5075 35.0942 77.5075 35.0942 77.4484 34.9014C57.9484 34.7467 57.9485 34.7467 38.636 34.6916H38.0359C29.4297 34.6929 20.8422 34.783 12.1609 34.9014L12.1874 34.8867Z" fill="#0F172A"/>
<path d="M60.0001 18.783C61.817 20.5282 63.0188 22.5093 63.1313 25.0934C63.022 27.1344 62.0813 28.5763 60.6001 29.9432C58.9932 31.2671 56.8688 32.546 54.7876 32.9393C54.602 32.8775 54.4163 32.8157 54.2251 32.752C54.3181 32.6769 54.4113 32.6018 54.5063 32.5254C56.4188 30.9357 57.7688 29.0987 58.0126 26.5708C58.0702 24.0804 57.1463 21.6835 55.4438 19.8859C52.2376 17.0209 47.7188 15.86 43.5376 15.3544V15.1671C48.8438 14.4537 55.8001 15.2025 60.0001 18.7998V18.783Z" fill="#0F172A"/>
<path d="M43.4999 21.9663C44.5893 22.661 45.3937 23.8575 45.9374 25.0185C45.7256 25.6533 45.5737 25.7544 45.0581 26.1532C43.6537 27.3498 42.9581 28.8684 42.5643 30.6286C42.5024 31.4937 42.4406 32.3588 42.3768 33.2501H35.0643C34.5243 31.0967 34.8468 28.8871 35.9024 26.9397C36.9824 25.2881 41.1524 21.1161 43.4962 21.9588L43.4999 21.9663Z" fill="#0F172A"/>
<path d="M59.4375 17.4722C62.55 17.916 65.4937 19.9065 67.3687 22.3969C68.4356 24.0766 68.9006 25.7862 68.6306 27.7711C68.2669 29.2335 67.335 30.3739 66.0619 31.1604C64.2656 32.1771 62.1056 33.295 60.0056 33.2014C60.1697 32.9823 60.3338 32.7651 60.4969 32.546C60.5998 32.408 60.7031 32.2708 60.8081 32.1285C61.0069 31.8663 61.2075 31.606 61.4137 31.3495C63.2362 29.065 64.0388 26.5745 63.7575 23.6534C63.27 21.3127 61.695 19.6275 60.0075 18.0358C59.82 17.8491 59.6325 17.6613 59.445 17.4741L59.4375 17.4722Z" fill="#0F172A"/>
<path d="M47.25 87.5047H48.5625C49.3144 89.1038 49.9781 90.7254 50.625 92.3732C51.2756 91.1505 51.8194 89.9015 52.3181 88.6095C52.6688 87.7069 52.6687 87.7069 52.875 87.5009H54.1875V94.4293H52.875C52.8131 93.3788 52.7512 92.332 52.6875 91.246C52.3256 92.2234 52.3256 92.2234 51.9637 93.1934C51.5831 94.2139 51.5831 94.2139 51.375 94.4218C50.9381 94.4294 50.4994 94.4297 50.0625 94.4218C49.9491 94.169 49.8356 93.9143 49.7231 93.6615C49.6601 93.5204 49.5969 93.3788 49.5319 93.2327C49.2675 92.6317 49.0087 92.0287 48.75 91.4257C48.6881 92.4144 48.6263 93.4106 48.5625 94.4218H47.25V87.4934V87.5047Z" fill="#0F172A"/>
<path d="M54.9375 96.6801H56.4375C57.0562 98.2867 57.675 99.9008 58.3125 101.549C58.9106 100.369 58.9106 100.369 59.4225 99.1705C59.5076 98.9496 59.5076 98.9496 59.5946 98.7249C59.6508 98.5767 59.7073 98.429 59.7652 98.2754C59.8245 98.1215 59.8837 97.9684 59.9446 97.8092C60.0886 97.4347 60.2315 97.0602 60.374 96.6838H61.874V103.425H60.5615C60.4996 102.436 60.4378 101.44 60.374 100.429C60.0121 101.345 60.0121 101.345 59.6503 102.26C59.2696 103.217 59.2696 103.217 59.0615 103.425H57.5615C57.1903 102.436 56.819 101.44 56.4365 100.429C56.3746 101.418 56.3128 102.414 56.249 103.425H54.9365V96.6838L54.9375 96.6801Z" fill="#0F172A"/>
<path d="M67.125 20.8427C69.3375 21.6329 72 23.689 73.0688 25.8237C73.4925 26.9865 73.5019 28.052 73.0454 29.2129C71.5904 31.3476 69.0141 32.5835 66.5579 33.2201C66.6816 33.1042 66.8054 32.9879 66.9329 32.8681C68.701 31.0836 69.8016 29.3852 69.9329 26.8386C69.9122 24.6664 68.8266 22.8875 67.3641 21.3333C67.1166 21.06 67.1166 21.06 67.1166 20.8727L67.125 20.8427Z" fill="#0F172A"/>
<path d="M27.5624 40.317C28.1343 40.6728 28.5524 41.0866 28.8731 41.6727C28.9805 42.2345 28.9629 42.7663 28.9316 43.3355C28.9123 43.8374 28.8929 44.3392 28.8731 44.856H22.6856C22.4981 42.2345 22.4981 42.2345 22.7441 41.4667C24.1072 39.9781 25.6878 39.6822 27.5628 40.3095L27.5624 40.317Z" fill="#0F172A"/>
<path d="M62.25 87.5047C63.75 87.5047 63.75 87.5047 64.1813 87.8829C64.2913 88.0556 64.4006 88.2275 64.515 88.4054C64.6371 88.5913 64.7587 88.778 64.8844 88.969C65.0059 89.1656 65.1281 89.3622 65.2519 89.5645C65.3792 89.7611 65.5069 89.9577 65.6381 90.1599C65.9512 90.6449 66.2587 91.1336 66.5644 91.6242C66.6263 90.2648 66.6881 88.9091 66.7519 87.5047H68.0644V94.433C66.5644 94.433 66.5644 94.433 66.1519 94.0716C65.9987 93.8245 65.9987 93.8245 65.8425 93.5717C65.7289 93.3943 65.6156 93.2178 65.4975 93.0343C65.3286 92.7534 65.3286 92.7534 65.1562 92.465C64.9787 92.1841 64.9787 92.1841 64.7981 91.8958C64.5075 91.4332 64.2225 90.9651 63.9375 90.4988C63.8756 91.7965 63.8138 93.1017 63.75 94.4312H62.25V87.5028V87.5047Z" fill="#0F172A"/>
<path d="M38.2501 87.8792C39.0919 88.529 39.5101 89.2443 39.7332 90.276C39.8588 91.4464 39.6464 92.4856 38.9063 93.4219C38.0626 94.2383 37.1513 94.5604 35.9813 94.5885C34.8019 94.437 34.1063 93.9574 33.3751 93.038C32.7526 92.0624 32.9082 90.8284 32.9832 89.7236C33.2982 88.7443 33.8288 88.2462 34.6707 87.6639C35.8838 87.1283 37.1082 87.2313 38.2519 87.8886L38.2501 87.8792ZM34.6688 89.527C34.2994 90.2648 34.3951 91.158 34.4813 91.9613C34.8188 92.5231 35.0251 92.7946 35.6063 93.0848C36.3432 93.1541 36.7876 93.1545 37.4457 92.8039C37.9876 92.186 38.1694 91.6542 38.2313 90.8378C38.1141 90.0569 37.9744 89.6581 37.4457 89.0701C36.3432 88.4578 35.5332 88.6582 34.6707 89.527H34.6688Z" fill="#0F172A"/>
<path d="M42.1875 96.68C42.7744 96.6608 43.3631 96.6415 43.9688 96.6216C44.2425 96.6088 44.2425 96.6088 44.52 96.5958C45.7106 96.5771 46.545 96.8186 47.445 97.6163C48.1238 98.5207 48.3169 99.4027 48.2681 100.519C48.1097 101.526 47.7 102.236 46.965 102.934C46.3144 103.352 45.8269 103.438 45.0713 103.432C44.9203 103.432 44.7694 103.431 44.6138 103.431C44.3269 103.428 44.3269 103.428 44.0363 103.426C43.125 103.42 43.125 103.42 42.1969 103.414V96.673L42.1875 96.68ZM43.6875 97.9908V102.11C45.4369 102.301 45.4369 102.301 46.1438 101.665C46.7156 100.889 46.7588 100.457 46.695 99.4926C46.3631 98.6144 46.245 98.4252 45.3825 97.9946H43.695L43.6875 97.9908Z" fill="#0F172A"/>
<path d="M40.6874 87.5047C41.2518 87.4931 41.8162 87.4815 42.3974 87.4695C42.5731 87.4644 42.7481 87.4593 42.9299 87.454C43.8899 87.4445 44.5424 87.5338 45.3674 88.0663C45.9337 88.6318 46.0856 89.1449 46.1174 89.9388C45.8793 90.6204 45.6918 91.1129 45.1799 91.6241C45.254 92.3132 45.4893 92.918 45.7537 93.5528C45.8216 93.7182 45.8894 93.8842 45.9599 94.0546C46.0119 94.179 46.0638 94.3037 46.1174 94.431H44.4299C44.2728 94.0958 44.1168 93.7607 43.9612 93.4236C43.8742 93.2367 43.7872 93.0491 43.6968 92.8581C43.4924 92.3712 43.4924 92.3712 43.4924 91.9967H42.1799V94.431H40.6799V87.5027L40.6874 87.5047ZM42.1874 88.8155V90.688C42.6393 90.6996 42.6393 90.6996 43.1024 90.7114C43.2721 90.7157 43.4418 90.7201 43.6162 90.7246C44.0981 90.7335 44.0981 90.7335 44.4374 90.3126C44.4999 89.7508 44.4999 89.7508 44.4374 89.1891C44.0981 88.7696 44.0981 88.7696 43.6162 88.7771C43.4465 88.7815 43.2768 88.7858 43.1024 88.7903C42.8006 88.798 42.4987 88.8057 42.1874 88.8137V88.8155Z" fill="#0F172A"/>
<path d="M21.5625 87.5047C25.3312 87.5047 25.3312 87.5047 26.4 88.3305C26.8312 88.9091 26.8331 89.6113 26.8087 90.3154C26.5631 90.8415 26.5631 90.8415 26.2462 91.2516C25.9875 91.57 25.9875 91.57 25.8712 92.0006C26.031 92.6242 26.031 92.6242 26.3175 93.2646C26.453 93.5942 26.453 93.5942 26.5912 93.9293C26.6632 94.0964 26.7352 94.2626 26.8087 94.4349H25.1212C25.0687 94.2748 25.0164 94.1147 24.9622 93.9499C24.6191 92.8058 24.6191 92.8058 23.8297 92.0025C23.4303 91.9428 23.4303 91.9428 22.8716 92.0062V94.4404H21.5591V87.5121L21.5625 87.5047ZM22.875 88.8155V90.688C23.1731 90.7034 23.4712 90.7189 23.7768 90.7348C24.0281 90.7478 24.0281 90.7478 24.285 90.7612C24.7762 90.7303 24.7762 90.7303 25.1006 90.3418C25.3725 89.9354 25.3725 89.9354 25.1716 89.4355C24.9748 89.0216 24.9748 89.0216 24.7498 88.8157C24.1235 88.7889 23.501 88.8077 22.8748 88.8157L22.875 88.8155Z" fill="#0F172A"/>
<path d="M75 88.2537C75.465 88.6881 75.5606 88.8548 75.7388 89.4933C75.7426 89.6555 75.7465 89.8173 75.7505 89.9839C74.7717 90.0667 74.7717 90.0667 74.2505 89.9839C73.9336 89.675 73.6224 89.3641 73.313 89.0477C72.5836 88.9709 71.9499 89.0113 71.2505 89.2349C70.8005 90.4783 70.8305 91.5381 71.2505 92.7927C71.9442 93.023 72.593 93.1129 73.313 92.98C73.4677 92.8255 73.6224 92.671 73.7817 92.5118C74.2505 92.0437 74.2505 92.0437 74.6405 91.9819C75.0117 91.9851 75.3811 92.0128 75.7505 92.0441C75.7368 92.6189 75.6783 93.029 75.3042 93.4784C74.468 94.2368 73.6786 94.6562 72.5105 94.6694C71.528 94.6053 70.8792 94.3829 70.1105 93.7275C69.2349 92.5927 69.0099 91.5741 69.173 90.1697C69.4805 89.1286 69.8836 88.2784 70.8605 87.7354C72.3399 87.1849 73.7105 87.2691 74.9855 88.2503L75 88.2537Z" fill="#0F172A"/>
<path d="M33.375 96.8673C34.1512 97.3055 34.4475 97.8298 34.8037 98.635V99.0095C33.8137 99.0754 33.8137 99.0754 33.3037 99.0095C33.0468 98.7679 32.7956 98.517 32.5537 98.2605C31.8225 98.062 31.4175 97.9983 30.7143 98.2957C30.2681 98.6646 30.0937 98.8312 29.9287 99.3836C29.8496 100.378 29.831 101.016 30.4912 101.818C30.9918 102.211 31.2487 102.192 31.8975 102.17C32.5631 102.067 32.5631 102.067 32.9175 101.619C33.3731 101.192 33.4987 101.207 34.1006 101.209C34.3331 101.225 34.5637 101.24 34.8037 101.256C34.5693 102.35 34.0125 102.891 33.1162 103.503C32.0381 103.863 30.9037 103.857 29.8537 103.386C28.9781 102.89 28.5506 102.199 28.2375 101.251C28.0595 98.8921 28.0595 98.8921 28.8 97.8809C30.1012 96.5814 31.5937 96.0852 33.375 96.8623V96.8673Z" fill="#0F172A"/>
<path d="M9.74993 87.5047C10.3143 87.4893 10.8787 87.4738 11.4599 87.4579C11.6356 87.4511 11.8106 87.4443 11.9924 87.4373C13.0256 87.4237 13.6274 87.5498 14.4299 88.2537C14.9118 89.0196 15.0487 89.5645 14.8987 90.4446C14.6849 91.2217 14.3943 91.5924 13.6799 92.0006C13.1212 92.1767 12.6224 92.2085 12.0393 92.1991C11.6456 92.1933 11.6456 92.1933 11.2424 92.1874V94.4345H9.74243V87.5061L9.74993 87.5047ZM11.2499 88.8155V90.8752C11.6043 90.8868 11.6043 90.8868 11.9643 90.8987C12.0971 90.903 12.2306 90.9073 12.3656 90.9118C12.8081 90.9001 12.8081 90.9001 13.3106 90.4999C13.3887 89.8445 13.3887 89.8445 13.3106 89.1891C12.9749 88.7753 12.9749 88.7753 12.5306 88.7771L11.2481 88.8137L11.2499 88.8155Z" fill="#0F172A"/>
<path d="M76.875 87.5047H81.1875V88.8155H78.375V90.3135H80.8125V91.6243H78.375V93.1223H81.1875V94.433H76.875V87.5047Z" fill="#0F172A"/>
<path d="M57.9375 87.5047C58.3219 87.5108 58.7062 87.5169 59.0906 87.523C59.4131 88.4199 59.7319 89.315 60.0525 90.2194C60.1612 90.5247 60.27 90.8299 60.3806 91.1351C60.5377 91.5733 60.6937 92.0114 60.8494 92.4496C60.8985 92.5859 60.9478 92.723 60.9984 92.8634C61.1953 93.4196 61.3416 93.8652 61.3416 94.4588H59.8416C59.7178 93.9645 59.5941 93.4701 59.4666 92.9608H57.0291C56.9672 93.3316 56.9053 93.7023 56.8416 94.0843C56.7797 94.2079 56.7178 94.3315 56.6541 94.4588H55.1541C55.5459 92.9196 56.0391 91.4253 56.5828 89.946C56.6974 89.6277 56.6974 89.6277 56.8134 89.3019C57.4509 87.5417 57.4509 87.5417 57.9366 87.5155L57.9375 87.5047ZM58.1531 89.7705C58.0582 90.0083 57.9656 90.2461 57.8719 90.4839C57.8197 90.6165 57.7674 90.7498 57.7136 90.8846C57.5619 91.2891 57.5619 91.2891 57.5906 91.8284H58.9031C58.8154 91.0681 58.7381 90.4296 58.3406 89.7686H58.1531V89.7705Z" fill="#0F172A"/>
<path d="M37.3125 96.6801H39C39.3207 97.5789 39.6413 98.4796 39.9619 99.3765C40.0709 99.6836 40.1794 99.9888 40.29 100.296C40.447 100.736 40.6032 101.176 40.7588 101.614C40.8079 101.751 40.8572 101.889 40.9079 102.03C41.251 103 41.251 103 41.251 103.417H39.751C39.6272 102.985 39.5035 102.552 39.376 102.107H36.9385C36.7529 102.755 36.7529 102.755 36.5635 103.417H35.0635C35.4554 101.873 35.9541 100.384 36.5054 98.8859C36.6224 98.5657 36.6224 98.5657 36.7416 98.238C36.931 97.7174 37.1222 97.195 37.3135 96.6744L37.3125 96.6801ZM38.0625 98.7398C37.9677 98.9776 37.875 99.2155 37.7813 99.4533C37.7292 99.5858 37.6769 99.7192 37.623 99.854C37.4714 100.258 37.4714 100.258 37.5 100.798H38.8125C38.7597 100.524 38.7045 100.251 38.6485 99.9776C38.6027 99.7491 38.6027 99.7491 38.5562 99.5169C38.4627 99.0769 38.4627 99.0769 38.0631 98.738L38.0625 98.7398Z" fill="#0F172A"/>
<path d="M24.1875 96.6801H25.875C26.1957 97.5789 26.5163 98.4796 26.8369 99.3765C26.9459 99.6836 27.0544 99.9888 27.165 100.296C27.322 100.736 27.4782 101.176 27.6338 101.614C27.6829 101.751 27.7322 101.889 27.7829 102.03C28.126 103 28.126 103 28.126 103.417H26.626C26.5022 102.985 26.3785 102.552 26.251 102.107H23.8135C23.6279 102.755 23.6279 102.755 23.4385 103.417H21.9385C22.3679 101.925 22.8666 100.459 23.3804 98.9982C23.4974 98.6631 23.4974 98.6631 23.6166 98.3204C23.8079 97.7736 23.9972 97.2268 24.1885 96.6819L24.1875 96.6801ZM24.9375 98.7398C24.8427 98.9776 24.75 99.2155 24.6563 99.4533C24.6042 99.5858 24.5519 99.7192 24.498 99.854C24.3464 100.258 24.3464 100.258 24.375 100.798H25.6875C25.6347 100.524 25.5795 100.251 25.5235 99.9776C25.4777 99.7491 25.4777 99.7491 25.4312 99.5169C25.3377 99.0769 25.3377 99.0769 24.9381 98.738L24.9375 98.7398Z" fill="#0F172A"/>
<path d="M15.9375 87.5047H20.25V88.8155C19.3219 88.8773 18.3937 88.9391 17.4375 89.0027C17.3756 89.4353 17.3138 89.8678 17.25 90.3135H19.875V91.6243H17.25V93.1223H20.25V94.433H15.9375V87.5047Z" fill="#0F172A"/>
<path d="M49.3125 96.6801H53.625V97.9908H50.625V99.3016H53.25V100.612C52.0425 100.705 52.0425 100.705 50.8125 100.8C50.7506 101.232 50.6888 101.665 50.625 102.11H53.625V103.421H49.3125V96.6801Z" fill="#0F172A"/>
<path d="M27.9375 87.5047H32.25V88.8155H29.4375V90.3135C29.5978 90.3113 29.7581 90.3091 29.9231 90.3069C30.1294 90.3052 30.3375 90.3035 30.5512 90.3018C30.7575 90.2996 30.9638 90.2974 31.1775 90.2952C31.6875 90.3135 31.6875 90.3135 31.875 90.5012V91.6247H29.4375V94.4335H27.9375V87.5051V87.5047Z" fill="#0F172A"/>
<path d="M62.8124 96.6801H64.4999C64.933 97.4834 65.3661 98.2867 65.8124 99.1144C65.9903 98.8166 66.1686 98.5189 66.3524 98.2137C66.6636 97.695 66.9768 97.1838 67.3124 96.6801C67.678 96.6252 67.678 96.6252 68.0849 96.6449C68.3249 96.6565 68.5649 96.6681 68.8124 96.6801L67.6949 98.9084C67.5976 99.105 67.5976 99.105 67.498 99.3054C67.3368 99.6237 67.1643 99.9364 66.9899 100.247C66.7011 100.908 66.6543 101.459 66.6205 102.176C66.6082 102.41 66.5959 102.642 66.5832 102.882C66.5762 103.058 66.5692 103.234 66.562 103.416H65.062C65.0724 103.256 65.0828 103.097 65.0935 102.932C65.1056 100.667 64.1729 99.0938 62.9935 97.1838C62.8071 96.8636 62.8071 96.8636 62.8071 96.6763L62.8124 96.6801Z" fill="#0F172A"/>
<path d="M51.375 59.604C51.84 59.6967 51.84 59.6967 52.3125 59.7913C52.56 60.5328 52.8075 61.2743 53.0625 62.0383C53.1244 61.235 53.1862 60.4317 53.25 59.604H54V65.0344H53.25C52.9406 64.1693 52.6313 63.3041 52.3125 62.4128C52.2506 63.2779 52.1888 64.143 52.125 65.0344H51.375V59.604Z" fill="#0F172A"/>
<path d="M36 59.6041H37.5C37.5945 60.368 37.6875 61.1339 37.7812 61.8885C37.8081 62.1058 37.8349 62.323 37.8626 62.5458C37.8879 62.7555 37.9134 62.9634 37.9395 63.1787C37.9631 63.3716 37.9866 63.5626 38.0109 63.7611C38.0625 64.276 38.0625 64.276 38.0625 65.025H37.3125C37.1888 64.6543 37.065 64.2835 36.9375 63.9015H36.1875V65.025H35.4375C35.5269 63.1937 35.6812 61.411 36 59.5947V59.6041ZM36.5625 60.7276C36.5006 61.5309 36.4388 62.3342 36.375 63.1619H36.9375C36.9476 62.8267 36.9549 62.4915 36.9609 62.1544C36.9653 61.9676 36.9696 61.7799 36.9741 61.5889C36.9885 61.0721 36.9885 61.0721 36.5616 60.7276H36.5625Z" fill="#0F172A"/>
<path d="M47.4375 59.604H48.9375C49.0327 60.2632 49.125 60.9223 49.2187 61.5889C49.2455 61.7745 49.2724 61.9597 49.3001 62.1507C49.4362 63.1244 49.5326 64.0606 49.5007 65.0344H48.7507C48.627 64.6636 48.5032 64.2928 48.3757 63.9108H48.0007C47.877 64.2816 47.7532 64.6524 47.6257 65.0344H46.8757C46.9828 63.2068 47.1776 61.4204 47.4382 59.604H47.4375ZM48.1875 60.7276C47.8612 61.0534 47.9306 61.5121 47.895 61.9559C47.8793 62.1451 47.8635 62.3342 47.8474 62.5308C47.836 62.6772 47.8247 62.8229 47.8129 62.9746C48.0604 63.0364 48.3079 63.0982 48.5629 63.1618C48.501 62.3585 48.4391 61.5552 48.3754 60.7276H48.1879H48.1875Z" fill="#0F172A"/>
<path d="M36.9376 66.1579H37.6876C37.7495 67.5791 37.8113 69.0041 37.8751 70.4647C38.1226 70.5265 38.3701 70.5883 38.6251 70.652C38.687 69.1689 38.7488 67.6934 38.8126 66.1579H39.5626C39.579 66.8245 39.589 67.4911 39.5978 68.1615C39.6049 68.4443 39.6049 68.4443 39.6121 68.7326C39.6299 70.5284 39.6299 70.5284 39.0009 71.2231C38.3559 71.4216 38.3559 71.4216 37.6884 71.4103C37.1728 71.0246 36.9628 70.8036 36.854 70.1632C36.8579 69.9788 36.8619 69.7943 36.8659 69.6052C36.8683 69.4049 36.8707 69.2045 36.8732 68.9985C36.8795 68.7907 36.8858 68.5828 36.8924 68.3675C36.8957 68.1559 36.8991 67.9462 36.9026 67.7289C36.9115 67.2084 36.9238 66.6878 36.9392 66.1673L36.9376 66.1579Z" fill="#0F172A"/>
<path d="M55.8749 66.1579C56.3024 66.4631 56.4224 66.6317 56.5124 67.1522C56.5184 67.6953 56.5225 68.2364 56.5187 68.7795C56.5224 68.9686 56.5262 69.1577 56.53 69.3524C56.5299 69.5339 56.5298 69.7157 56.5297 69.903C56.53 70.0691 56.5304 70.2344 56.5307 70.4067C56.4366 70.8392 56.4366 70.8392 56.0976 71.18C55.4751 71.5133 55.042 71.386 54.3726 71.2137C53.827 70.3954 53.9357 69.6483 53.9395 68.6858C53.9364 68.5055 53.9334 68.3244 53.9303 68.139C53.9302 67.966 53.9301 67.7926 53.9299 67.6147C53.9294 67.4565 53.9288 67.2983 53.9283 67.1354C54.112 66.0399 54.9089 66.0549 55.8783 66.1579H55.8749ZM54.9374 66.7197C54.7124 66.9039 54.7124 66.9039 54.7293 67.2552C54.7303 67.4033 54.7313 67.5511 54.7323 67.7046C54.7329 67.8645 54.7335 68.0248 54.7341 68.1896C54.7357 68.3578 54.7373 68.5267 54.7389 68.6989C54.7397 68.8678 54.7406 69.036 54.7414 69.2101C54.7436 69.6296 54.7467 70.0472 54.7506 70.4666C55.06 70.5284 55.3693 70.5902 55.6881 70.6539C55.9056 70.0041 55.9075 69.4779 55.9112 68.7926C55.9139 68.5622 55.9165 68.3338 55.9193 68.0979C55.8791 67.5174 55.8086 67.2065 55.5011 66.7215H54.9386L54.9374 66.7197Z" fill="#0F172A"/>
<path d="M40.875 66.1579C42.5625 66.1579 42.5625 66.1579 43.05 66.4275C43.5019 67.2327 43.4419 68.1278 43.2103 69.0116C43.1844 69.1217 43.1586 69.2326 43.1319 69.3449C43.1938 69.4067 43.2557 69.4685 43.3194 69.5322C43.3329 69.8168 43.3352 70.1014 43.3312 70.3861C43.3295 70.5407 43.3278 70.695 43.326 70.8542C43.3239 70.9737 43.3217 71.0939 43.3194 71.2156H42.5694V69.5303H41.6319C41.5701 70.0865 41.5082 70.6426 41.4444 71.2156H40.8819V66.1598L40.875 66.1579ZM41.625 66.7197C41.3944 66.9088 41.3944 66.9088 41.4188 67.2945C41.4209 67.4488 41.4231 67.6035 41.4254 67.7627C41.427 67.9173 41.4287 68.0716 41.4305 68.2308C41.4326 68.3503 41.4348 68.4705 41.4371 68.5922C42.0089 68.7813 42.0089 68.7813 42.5621 68.5922V66.9069C42.2508 66.8354 41.9396 66.7732 41.6246 66.7197H41.625Z" fill="#0F172A"/>
<path d="M41.0626 59.604C41.5576 59.6175 41.7733 59.631 42.1989 59.8961C42.3864 60.2238 42.3864 60.2238 42.3864 60.9729C41.6364 60.9729 41.6364 60.9729 41.3326 60.692C41.2475 60.5993 41.1626 60.5066 41.0739 60.4111H40.6989C40.8958 61.4447 40.8958 61.4447 41.6476 62.1675C42.2251 62.6825 42.2983 62.7911 42.4089 63.5139C42.4359 64.1112 42.4125 64.3003 42.092 64.8246C41.5108 65.1673 41.1751 65.1935 40.5095 65.0943C40.157 64.8602 40.157 64.8602 39.947 64.5325V63.7835H40.697C40.7589 63.9071 40.8208 64.0307 40.8845 64.158H41.447C41.4211 63.6019 41.3984 63.1806 41.0026 62.7649C40.7176 62.5364 40.4251 62.3173 40.1345 62.0982C39.9133 61.6582 39.9151 61.3717 39.9114 60.8811C39.9087 60.7324 39.9061 60.5834 39.9033 60.4298C39.9886 59.6565 40.3308 59.6621 41.0602 59.604H41.0626Z" fill="#0F172A"/>
<path d="M35.0626 66.1579C35.6251 66.5324 35.6251 66.5324 35.7544 67.023C35.7737 67.1698 35.7931 67.317 35.8129 67.4687H35.0629C34.9392 67.2833 34.8154 67.0979 34.6879 66.9069C34.5023 66.8451 34.3167 66.7833 34.1254 66.7196V68.2177C34.3336 68.2988 34.5436 68.3798 34.7592 68.463C35.4379 68.7794 35.4379 68.7794 35.8129 69.3412C35.8283 69.7513 35.8283 69.7513 35.7777 70.1951C35.7634 70.3421 35.7492 70.489 35.7346 70.6407C35.6254 71.0265 35.6254 71.0265 35.0633 71.401C34.4071 71.4712 34.4071 71.4712 33.7508 71.401C33.3871 71.062 33.3871 71.062 33.1883 70.652V70.0902H33.9383C34.0621 70.2756 34.1858 70.461 34.3133 70.652C34.4989 70.5902 34.6846 70.5284 34.8758 70.4647V69.5284C34.6152 69.4067 34.6152 69.4067 34.3489 69.2831C33.4339 68.8 33.4339 68.8 33.1883 68.4049C33.1154 67.6409 33.0884 67.141 33.3871 66.4388C33.9421 66.01 34.3827 66.0849 35.0633 66.1579H35.0626Z" fill="#0F172A"/>
<path d="M52.125 66.1579C52.4888 66.3564 52.4888 66.3564 52.6875 66.7196C52.7228 67.4106 52.7228 67.4106 52.6875 68.0304H52.125C52.0013 67.6596 51.8775 67.2889 51.75 66.9069H51.1875V70.4647C51.435 70.5265 51.6825 70.5883 51.9375 70.6519C51.9994 70.2194 52.0613 69.7868 52.125 69.3412H52.6875C52.7781 70.7194 52.7781 70.7194 52.395 71.2324C51.7407 71.4833 51.2963 71.3942 50.625 71.2207C50.0794 70.4024 50.1882 69.6553 50.1919 68.6928C50.1889 68.5125 50.1859 68.3314 50.1828 68.146C50.1826 67.973 50.1825 67.7996 50.1824 67.6217C50.1818 67.4635 50.1813 67.3053 50.1807 67.1424C50.3644 66.0469 51.1613 66.0619 52.1307 66.1649L52.125 66.1579Z" fill="#0F172A"/>
<path d="M44.625 66.1579H46.875V66.9069H45.375V68.4049H46.875V68.9667H45.375V71.2137H44.625V66.1579Z" fill="#0F172A"/>
<path d="M44.25 59.604H45V65.0344H44.25V59.604Z" fill="#0F172A"/>
<path d="M56.25 61.6638C56.7412 61.734 56.7412 61.734 57.1875 61.8511C57.3047 62.2031 57.3047 62.2031 57.375 62.6001C57.2513 62.7237 57.1275 62.8473 57 62.9746C56.5088 62.9044 56.5088 62.9044 56.0625 62.7873C55.9453 62.4353 55.9453 62.4353 55.875 62.0383C55.9988 61.9147 56.1225 61.7912 56.25 61.6638Z" fill="#0F172A"/>
<path d="M32.8125 61.4766C33.21 61.5468 33.21 61.5468 33.5625 61.6638C33.6797 62.1095 33.6797 62.1095 33.75 62.6001C33.6263 62.7237 33.5025 62.8473 33.375 62.9746C32.9775 62.9044 32.9775 62.9044 32.625 62.7873C32.5078 62.3417 32.5078 62.3417 32.4375 61.8511C32.5613 61.7275 32.685 61.6039 32.8125 61.4766Z" fill="#0F172A"/>
<path d="M43.3125 74.9587H44.25C44.0025 75.0205 43.755 75.0823 43.5 75.146V75.7078C43.8713 75.8004 43.8713 75.8004 44.25 75.895H43.5V76.644C43.8713 76.7367 43.8713 76.7367 44.25 76.8313H43.3125V74.9587Z" fill="#0F172A"/>
<path d="M53.25 74.397C53.3119 74.5824 53.3737 74.7678 53.4375 74.9588C53.5612 75.0206 53.685 75.0823 53.8125 75.146C53.6269 75.425 53.6269 75.425 53.4375 75.7078V75.3333H52.5C52.7475 75.2715 52.995 75.2097 53.25 75.146V74.397Z" fill="#0F172A"/>
<path d="M39.75 75.3333C39.8672 75.6853 39.8672 75.6853 39.9375 76.0823C39.8137 76.2059 39.69 76.3295 39.5625 76.4568C39.4453 76.1048 39.4453 76.1048 39.375 75.7078C39.4988 75.5842 39.6225 75.4606 39.75 75.3333Z" fill="#0F172A"/>
<path d="M38.8125 74.397C38.8744 74.5206 38.9362 74.6442 39 74.7715C38.8241 75.1685 38.8241 75.1685 38.625 75.5205C38.617 75.2078 38.6174 74.897 38.625 74.5843C38.6869 74.5225 38.7487 74.4607 38.8125 74.397Z" fill="#0F172A"/>
<path d="M46.6875 76.2695C46.8113 76.4549 46.935 76.6403 47.0625 76.8313H46.5C46.5619 76.6459 46.6238 76.4605 46.6875 76.2695Z" fill="#0F172A"/>
<path d="M36 74.7715L36.1875 75.5205C36.0637 75.4587 35.94 75.3969 35.8125 75.3333C35.8744 75.1479 35.9363 74.9625 36 74.7715Z" fill="#0F172A"/>
<path d="M50.4375 74.7715H50.625V75.7078H50.4375V74.7715Z" fill="#0F172A"/>
<path d="M50.8125 76.0823C51.375 76.2695 51.375 76.2695 51.375 76.2695L50.8125 76.0823Z" fill="#0F172A"/>
<path d="M48.75 74.7715C49.3125 74.9588 49.3125 74.9588 49.3125 74.9588L48.75 74.7715Z" fill="#0F172A"/>
<path d="M41.625 74.7715C42.1875 74.9588 42.1875 74.9588 42.1875 74.9588L41.625 74.7715Z" fill="#0F172A"/>
<path d="M53.0625 74.0225L53.25 74.397C53.1262 74.3352 53.0025 74.2734 52.875 74.2097C52.9369 74.148 52.9988 74.0862 53.0625 74.0225Z" fill="#0F172A"/>
</svg>
