<svg width="300" height="111" viewBox="0 0 300 111" fill="none" xmlns="http://www.w3.org/2000/svg">
<path d="M184.875 27.1048C185.079 27.1606 185.079 27.1606 185.288 27.2175C189.356 28.3635 193.05 30.6068 195.188 34.3518C196.626 37.0296 197.25 39.7822 197.25 42.8157H185.625C185.439 41.797 185.439 41.797 185.25 40.7559C184.648 39.1848 183.651 38.2092 182.119 37.4977C179.85 36.5427 176.606 36.6644 174.319 37.5203C172.793 38.23 171.769 39.0427 171 40.5726C170.567 41.8197 170.608 43.5499 171.035 44.7857C171.86 46.3774 172.886 47.0702 174.56 47.6882C175.633 48.0027 176.735 48.2125 177.823 48.4297C178.526 48.5682 179.227 48.7143 179.923 48.8604C180.44 48.9675 180.96 49.0738 181.477 49.1787C186.877 50.2872 192.558 51.5381 195.933 56.2943C198.202 59.8521 198.633 64.4023 197.795 68.4657C196.749 72.7351 194.27 76.3116 190.502 78.6148C188.608 79.6934 186.583 80.448 184.483 81.0116C184.36 81.0452 184.237 81.0789 184.112 81.1133C180.23 82.1058 175.037 82.0627 171.174 81.0116C171.039 80.9755 170.902 80.9392 170.763 80.9019C166.263 79.6511 162.457 77.2879 160.057 73.1871C158.638 70.603 158.231 68.2624 158.231 65.285H169.668C169.854 66.0266 170.04 66.7681 170.231 67.5321C170.808 68.8372 171.705 69.7978 173.006 70.397C174.645 71.0075 176.1 71.1311 177.843 71.1386C178.053 71.1424 178.262 71.1463 178.477 71.1503C180.727 71.1607 183.108 70.7589 184.871 69.259C185.863 68.231 186.317 67.1243 186.38 65.7012C186.324 64.4597 186.02 63.2669 185.233 62.2745C184.262 61.5423 183.283 61.1416 182.12 60.8626C181.968 60.8244 181.815 60.7862 181.657 60.7467C179.632 60.2486 177.57 59.861 175.507 59.4696C170.257 58.4641 164.857 56.8855 161.576 52.3353C159.138 48.5528 158.37 43.9464 159.213 39.5272C159.817 37.1866 160.742 35.183 162.195 33.2355C162.278 33.1226 162.36 33.009 162.446 32.8929C165.183 29.3912 170.19 27.2004 174.502 26.5825C177.84 26.2079 181.627 26.1555 184.89 27.0506L184.875 27.1048Z" fill="white"/>
<path d="M262.5 27.4793H273.938C275.305 31.1869 276.638 34.8945 277.969 38.6209C278.205 39.2875 278.441 39.956 278.678 40.6245C278.725 40.7585 278.773 40.8922 278.822 41.0308C278.917 41.3005 279.013 41.5701 279.108 41.8416C279.25 42.2423 279.392 42.6412 279.532 43.0419C280.295 45.1953 281.064 47.3674 281.838 49.5208C282.077 50.1875 282.313 50.8522 282.551 51.5244C282.611 51.6939 282.672 51.8634 282.734 52.0375C283.216 53.3876 283.696 54.734 284.174 56.0822C284.523 57.0653 284.871 58.0483 285.222 59.0408C285.311 59.2898 285.399 59.5389 285.486 59.7879C286.467 62.5592 287.455 65.3119 288.449 68.0645C288.528 68.2854 288.608 68.5064 288.689 68.733C289.058 69.761 289.43 70.7927 289.799 71.8226C290.858 74.7625 291.88 77.7211 292.893 80.661H280.518C279.903 78.8652 279.903 78.8652 279.276 77.0283C279.15 76.6575 279.023 76.2886 278.892 75.9066C278.787 75.5995 278.682 75.2943 278.577 74.9872C278.526 74.8387 278.475 74.6895 278.423 74.5378C277.862 72.8975 277.316 71.2609 276.767 69.613H259.517C258.651 72.2159 257.785 74.7999 256.892 77.4777C256.335 79.0525 256.335 79.0525 255.767 80.661H243.58C244.661 77.4215 245.736 74.182 246.898 70.98C247.123 70.3564 247.348 69.7329 247.573 69.1093C247.811 68.4465 248.051 67.7836 248.29 67.1245C249.152 64.7276 250.007 62.3495 250.858 59.9527C251.014 59.5183 251.17 59.082 251.325 58.6475C252.439 55.5391 253.556 52.412 254.663 49.3036C255.268 47.6034 255.874 45.8956 256.481 44.2104C256.688 43.6336 256.892 43.0588 257.098 42.482C258.881 37.4824 260.698 32.4827 262.517 27.5018L262.5 27.4793ZM268.125 43.3958C267.818 44.3021 267.521 45.2084 267.244 46.1297C266.194 49.5939 265.031 53.0206 263.85 56.4286C263.786 56.6158 263.721 56.805 263.653 56.9978C263.53 57.3555 263.406 57.7131 263.282 58.0689C263.2 58.3067 263.2 58.3067 263.116 58.5502C263.068 58.6893 263.02 58.8292 262.97 58.9715C262.85 59.3142 262.85 59.3142 262.868 59.6887H273.368C273.066 58.3049 273.066 58.3049 272.661 56.9735C272.597 56.79 272.534 56.6065 272.47 56.4174C272.402 56.2245 272.334 56.0297 272.263 55.8313C272.117 55.4062 271.971 54.9811 271.823 54.5542C271.594 53.8951 271.365 53.2359 271.136 52.5693C270.083 49.5358 269.13 46.4836 268.305 43.3939H268.118L268.125 43.3958Z" fill="white"/>
<path d="M126 27.4793H137.437C138.782 31.112 140.1 34.7635 141.394 38.4336C141.624 39.0871 141.855 39.7406 142.087 40.3998C142.135 40.5331 142.182 40.6657 142.23 40.8042C142.326 41.0758 142.422 41.3473 142.519 41.6169C142.664 42.0251 142.808 42.4333 142.952 42.8434C143.908 45.5399 144.865 48.255 145.821 50.9515C145.951 51.3185 146.082 51.6836 146.211 52.0506C147.604 55.9642 149.005 59.8965 150.392 63.8101C150.827 65.0291 151.26 66.2444 151.693 67.4615C151.95 68.1824 152.207 68.9052 152.464 69.6336C152.557 69.8939 152.557 69.8939 152.652 70.1617C153.642 72.9518 154.639 75.7231 155.652 78.4944C155.7 78.6281 155.749 78.7622 155.799 78.8989C155.929 79.2566 156.059 79.6142 156.189 79.9719C156.365 80.4774 156.365 80.4774 156.365 80.6647H143.99C143.375 78.8689 143.375 78.8689 142.749 77.032C142.622 76.6612 142.495 76.2924 142.364 75.9104C142.259 75.6033 142.154 75.298 142.049 74.9909C141.998 74.8424 141.947 74.6932 141.895 74.5415C141.334 72.9012 140.789 71.2646 140.239 69.6168H122.989C121.752 73.2682 120.514 76.9009 119.239 80.6647H107.052C107.686 78.5487 107.686 78.5487 108.001 77.6687C108.072 77.4683 108.143 77.2679 108.216 77.0601C108.292 76.8466 108.368 76.635 108.447 76.4159C108.528 76.1875 108.609 75.9609 108.692 75.725C108.912 75.107 109.131 74.491 109.352 73.873C109.538 73.3525 109.724 72.8319 109.909 72.3114C111.406 68.0982 112.909 63.9037 114.428 59.7093C115.337 57.1813 116.243 54.6534 117.147 52.1255C117.224 51.9102 117.3 51.6967 117.379 51.4758C118.294 48.9291 119.204 46.3638 120.117 43.7984C120.206 43.5475 120.295 43.2947 120.385 43.0438C120.451 42.8571 120.451 42.8571 120.519 42.6674C120.74 42.042 120.963 41.4166 121.184 40.7949C121.228 40.6726 121.271 40.5496 121.315 40.4241C122.849 36.0986 124.409 31.7918 126.003 27.485L126 27.4793ZM131.625 43.3958C131.314 44.3152 131.012 45.2346 130.731 46.1671C129.767 49.3317 128.724 52.4776 127.637 55.6047C127.554 55.8444 127.554 55.8444 127.469 56.0897C127.365 56.3893 127.261 56.6889 127.156 56.9885C127.108 57.1248 127.061 57.2619 127.013 57.4023C126.952 57.5774 126.952 57.5774 126.889 57.7562C126.694 58.3929 126.542 59.0426 126.381 59.6849H136.881C136.637 58.5895 136.403 57.6251 136.037 56.5765C135.97 56.3836 135.97 56.3837 135.901 56.1852C135.806 55.9099 135.71 55.6365 135.613 55.3612C135.358 54.6328 135.105 53.9026 134.853 53.1704C134.803 53.0236 134.752 52.8764 134.7 52.7247C133.638 49.6351 132.6 46.5454 131.812 43.3808H131.625L131.625 43.3958Z" fill="white"/>
<path d="M205.125 27.4793C231.187 27.4793 231.187 27.4793 234 28.556C234.195 28.6279 234.195 28.6279 234.394 28.7013C236.362 29.4578 238.05 30.5926 239.644 31.9783C239.833 32.1412 239.833 32.1412 240.028 32.3078C241.997 34.1298 243.347 36.5585 244.153 39.0864C244.212 39.2665 244.212 39.2665 244.272 39.4496C245.354 42.9138 245.399 47.2206 244.341 50.7035C244.275 50.9226 244.209 51.1417 244.14 51.3664C242.632 55.9166 239.734 59.1374 235.477 61.3095C232.309 62.7682 228.99 63.0847 225.54 63.0716C225.317 63.0714 225.094 63.0712 224.865 63.071C224.04 63.07 223.215 63.0674 222.39 63.065C220.541 63.0611 218.696 63.0573 216.784 63.0533V80.655H205.159V27.4753L205.125 27.4793ZM216.75 37.7782C216.746 39.7069 216.742 41.6356 216.74 43.5456C216.739 44.4388 216.738 45.3339 216.736 46.2233C216.734 47.0847 216.733 47.9479 216.732 48.8074C216.732 49.137 216.731 49.4665 216.73 49.7961C216.729 50.2567 216.729 50.7155 216.729 51.1762C216.728 51.3138 216.727 51.4514 216.727 51.5937C216.672 52.221 216.672 52.221 216.937 52.7435C217.524 52.7672 218.107 52.7788 218.695 52.7815C218.965 52.7831 218.965 52.7831 219.241 52.7847C219.625 52.7865 220.008 52.7877 220.392 52.7884C220.968 52.7902 221.545 52.796 222.121 52.802C225.327 52.8192 228.552 52.7841 231.027 50.4987C232.537 48.8041 232.784 46.6601 232.728 44.4879C232.602 42.4843 231.952 40.8552 230.478 39.4883C228.565 37.9098 226.297 37.6963 223.878 37.7188C223.672 37.7193 223.467 37.7198 223.255 37.7204C222.607 37.7224 221.956 37.7271 221.305 37.7319C220.863 37.7338 220.419 37.7355 219.976 37.737C218.896 37.7411 217.82 37.7474 216.732 37.7553L216.75 37.7782Z" fill="white"/>
<path d="M12.5625 34.7822H77.0625C77.9344 38.2651 77.9344 38.2651 78.0469 39.6695C78.0608 39.8271 78.0748 39.984 78.0892 40.147C78.5411 45.6147 77.5305 50.914 75.3705 55.9511C75.183 56.1383 75.183 56.1383 74.7705 56.1608C74.5866 56.1607 74.403 56.1607 74.2136 56.1606C74.0017 56.161 73.7917 56.1613 73.5724 56.1617C73.338 56.1612 73.1017 56.1606 72.8599 56.1601C72.6124 56.1602 72.3649 56.1604 72.1099 56.1605C71.4199 56.161 70.7299 56.1602 70.0474 56.1593C69.3049 56.1585 68.5605 56.1587 67.8161 56.1589C66.528 56.159 65.2474 56.1584 63.9536 56.1573C62.0917 56.1558 60.2224 56.1553 58.3661 56.1551C55.3474 56.1547 52.3286 56.1534 49.3099 56.1517C46.3661 56.1499 43.4411 56.1486 40.4974 56.1478C40.3164 56.1478 40.1355 56.1477 39.9499 56.1477C39.0424 56.1474 38.1349 56.1472 37.2311 56.147C29.6936 56.145 22.1749 56.1417 14.5436 56.1375C14.3625 55.7836 14.1817 55.4279 14.0017 55.0721C13.9012 54.8736 13.8011 54.677 13.698 54.4729C13.3211 53.6845 13.0586 52.8906 12.8205 52.0573C12.774 51.8978 12.7277 51.739 12.6797 51.5742C11.8772 48.7467 11.5003 46.0128 11.4966 43.0729C11.4962 42.9448 11.4959 42.8164 11.4956 42.6853C11.4952 39.9702 11.82 37.4235 12.4819 34.7833L12.5625 34.7822ZM20.4375 37.9655C19.5019 39.2556 18.8944 40.4559 18.8794 42.0476C18.8778 42.1725 18.8763 42.2966 18.8746 42.4258C18.8701 42.8359 18.8685 43.2479 18.8672 43.6579C18.8656 43.9444 18.8638 44.2309 18.8621 44.5174C18.859 45.1166 18.8576 45.7158 18.857 46.3169C18.856 47.0847 18.8489 47.8524 18.8404 48.6201C18.8348 49.2119 18.8334 49.8036 18.8333 50.3934C18.8325 50.6762 18.8301 50.9589 18.8262 51.2435C18.8212 51.6386 18.8221 52.0356 18.8244 52.4307C18.8235 52.6554 18.8225 52.8801 18.8215 53.1123C18.8883 53.7209 18.8883 53.7209 19.3859 54.1347C19.8903 54.4474 20.134 54.5336 20.719 54.5186C20.8563 54.5183 20.9928 54.5181 21.1353 54.5179C21.7147 54.4081 22.039 54.2445 22.5003 53.8756C22.63 53.2595 22.63 53.2595 22.5918 52.5517C22.5895 52.3176 22.5871 52.0836 22.5847 51.842C22.5762 51.5443 22.5676 51.2466 22.5588 50.9395C22.5298 49.5201 22.5298 49.5201 22.5003 48.0745H28.8753C28.8636 50.7522 28.8636 50.7522 28.8584 51.5761C28.858 51.7952 28.8575 52.0143 28.857 52.239C28.856 52.4618 28.8551 52.6865 28.854 52.9168C28.8564 53.5348 28.8564 53.5348 29.0622 54.2501H32.8122C32.8249 52.5498 32.8352 50.8421 32.8412 49.1381C32.8442 48.3479 32.8481 47.5577 32.8545 46.76C32.8607 45.996 32.864 45.232 32.8655 44.4755C32.8665 44.1853 32.8685 43.895 32.8716 43.6048C32.8967 41.133 32.6747 39.2792 30.9403 37.388C29.5678 36.051 27.8841 36.2008 26.0841 36.2064C25.8516 36.2034 25.6209 36.2004 25.3809 36.1973C23.4122 36.1962 21.8747 36.5325 20.4497 37.95L20.4375 37.9655ZM37.5 38.34C36.5081 39.5571 36.24 40.7181 36.375 42.2723C36.6937 43.8265 37.7419 44.9687 39.0187 45.8488C40.1475 46.4911 41.4 46.7869 42.6562 47.1034C43.7587 47.388 44.7375 47.6708 45.45 48.6108C45.6017 49.1838 45.5364 49.5676 45.3679 50.1313C44.706 50.8147 43.9954 50.8559 43.0804 50.9271C41.0741 50.7956 39.5741 49.9197 38.1304 48.5677C37.641 48.1389 37.4985 48.0771 36.8179 47.9591C36.0585 48.0996 35.7491 48.2363 35.2466 48.8242C34.9729 49.5732 34.9729 49.5732 35.0591 50.3223C36.2347 52.3633 38.2841 53.749 40.5529 54.3669C42.9716 54.7058 45.1841 54.5538 47.3216 53.3277C48.411 52.4738 49.5154 51.399 49.6841 49.9384C49.7998 48.4947 49.4835 47.1296 48.5947 45.9686C47.106 44.4313 44.976 43.8152 42.951 43.3284C42.1597 43.1318 41.556 42.8996 40.8697 42.452H40.4947C40.4479 42.1843 40.4059 41.9146 40.3657 41.645C40.3299 41.4203 40.3299 41.4203 40.2932 41.1899C40.3071 40.7668 40.3071 40.7668 40.5501 40.4428C41.5138 39.7275 42.9313 39.9091 44.0563 40.0177C45.1251 40.3698 46.0251 40.9521 46.8688 41.703C47.5213 41.4184 47.9863 41.0327 48.5094 40.557C48.6592 40.4215 48.8094 40.2855 48.9632 40.1451C49.0762 40.0413 49.1901 39.9372 49.3063 39.8305C49.1505 38.7557 48.2544 38.2014 47.4313 37.5835C44.3376 35.7446 40.2313 35.8907 37.4938 38.3325L37.5 38.34ZM55.125 38.5272C54.9319 38.6662 54.7387 38.8062 54.54 38.9485C52.9275 40.4896 51.8775 42.4876 51.7087 44.7159C51.6463 47.5809 52.4756 49.6968 54.4275 51.7566C56.2575 53.5037 58.2337 54.2471 60.765 54.322C63.69 54.2415 65.715 53.1591 67.74 51.0825C68.2706 50.4515 68.4544 50.1163 68.4244 49.283C68.2464 48.5714 68.0775 48.3261 67.5094 47.8786C66.975 47.6108 66.6037 47.6333 66.0094 47.6914C65.4656 48.0397 65.1206 48.373 64.7437 48.8973C63.8831 49.8766 62.6812 50.429 61.3875 50.5451C59.7187 50.5868 58.5375 50.2605 57.15 49.3411C56.0419 48.1838 55.5637 47.0566 55.4981 45.4462C55.5606 43.9201 55.9556 42.731 57.0281 41.6262C58.4737 40.411 60.0656 40.2499 61.9031 40.3791C63.1481 40.645 64.2656 41.3379 65.0719 42.3078C65.1377 42.4121 65.2033 42.5157 65.2706 42.6243C66.0637 42.5082 66.6806 42.2292 67.3894 41.8641L67.9969 41.5532C68.2237 41.4349 68.2237 41.4349 68.4562 41.3135C68.2144 39.9222 66.7575 38.7295 65.6437 37.943C62.2687 35.9581 58.275 36.0854 55.1437 38.5047L55.125 38.5272Z" fill="white"/>
<path d="M65.4376 12.8736C65.6251 13.0082 65.8144 13.1432 66.0076 13.2818C67.1026 14.0833 68.1263 14.9278 69.1388 15.8472C69.5363 16.2123 69.9451 16.5625 70.3576 16.9108C72.7951 19.0267 74.7451 21.9104 76.3201 24.7005C76.5113 25.0413 76.7063 25.3783 76.9013 25.7173C81.2888 33.4508 82.2451 43.4314 79.9201 51.9326C77.2388 61.2016 71.3326 69.4033 62.8201 74.2157C62.2669 74.5134 61.7082 74.8018 61.1438 75.0808C61.0099 75.1478 60.8757 75.2149 60.7369 75.283C52.4307 79.3652 42.4369 80.0205 33.5494 77.1556C28.3369 75.3542 23.7057 72.5866 19.7119 68.7854C19.5267 68.6088 19.3407 68.4333 19.1532 68.2592C12.3469 61.8926 8.87818 52.5674 8.52193 43.3546C8.34999 33.3366 12.3469 24.0676 19.2469 16.952C19.3591 16.8303 19.4719 16.7085 19.5863 16.5831C24.6113 11.2651 32.1676 7.96946 39.2738 6.84594C39.4122 6.82403 39.5513 6.80212 39.6919 6.77947C48.4294 5.46121 58.1607 7.60712 65.3794 12.8465L65.4376 12.8736ZM20.4376 17.7422C20.2894 17.8777 20.1413 18.0137 19.9894 18.1541C13.6144 24.2211 10.1832 33.1718 9.90193 41.9352C9.77912 47.9273 11.1807 53.9381 14.0644 59.1999C14.1797 59.419 14.2951 59.6362 14.4132 59.8628C15.6938 62.2034 17.3007 64.3381 19.1382 66.3043C19.3988 66.587 19.6463 66.881 19.8844 67.1825C20.4357 67.8622 21.0788 68.3884 21.7519 68.9464C21.8982 69.0692 21.8982 69.0692 22.0482 69.1955C23.7938 70.656 25.5919 71.9293 27.5607 73.0716L27.9038 73.2738C32.9476 76.2137 38.8726 77.6368 44.6851 77.6368C44.8139 77.6367 44.9419 77.6366 45.0751 77.6365C54.5813 77.6022 63.1876 73.6293 70.0126 67.1129C71.1019 65.9969 72.0563 64.791 72.9751 63.5364C73.0533 63.43 73.1316 63.3229 73.2132 63.2143C76.6069 58.533 78.7444 53.1401 79.5319 47.4289C79.5507 47.3025 79.5694 47.1761 79.5889 47.0469C80.7514 38.2086 78.2277 28.9396 72.8389 21.955C71.3989 20.0451 71.3989 20.0451 69.7827 18.3036H69.4077C69.3458 18.1182 69.2839 17.9329 69.2202 17.7419C68.7646 17.2588 68.2339 16.8524 67.7202 16.4311C67.5818 16.3165 67.5818 16.3165 67.4408 16.1989C62.1346 11.8359 55.7971 9.06458 48.9721 8.18449C48.7808 8.15996 48.5914 8.13524 48.3946 8.10996C37.9696 7.03326 28.1446 10.8626 20.4571 17.922L20.4376 17.7422Z" fill="white"/>
<path d="M95.0626 5.00901C95.6964 5.17286 95.6964 5.17286 96.0714 5.5483C96.1087 6.07448 96.1222 6.58193 96.1196 7.10811C96.1202 7.27215 96.1209 7.4358 96.1215 7.60433C96.1233 8.16047 96.1224 8.71661 96.1215 9.27088C96.1222 9.6716 96.123 10.0704 96.124 10.4712C96.1263 11.576 96.1263 12.6807 96.1258 13.7855C96.1258 14.9746 96.1278 16.1636 96.1296 17.3433C96.1327 19.6653 96.1337 22.0059 96.1339 24.3279C96.1341 26.2191 96.1349 28.1104 96.1361 30.0016C96.1364 30.5465 96.1368 31.0896 96.1371 31.6345C96.1372 31.7698 96.1373 31.906 96.1373 32.0445C96.1396 35.8458 96.1411 39.6657 96.141 43.467C96.141 43.6106 96.1409 43.7534 96.1409 43.9014C96.1409 44.6298 96.1409 45.3582 96.1408 46.0922C96.1408 46.3094 96.1408 46.3094 96.1408 46.5304C96.1408 46.8225 96.1408 47.1146 96.1408 47.4086C96.1405 51.9589 96.1434 56.5091 96.1485 61.0593C96.1542 66.1713 96.1575 71.2833 96.1571 76.3953C96.1571 76.9402 96.1571 77.4851 96.1571 78.0282C96.1571 78.1622 96.157 78.2959 96.157 78.4345C96.157 80.5879 96.1594 82.76 96.1627 84.9134C96.1658 87.0856 96.1661 89.2577 96.1637 91.4298C96.1625 92.6058 96.1625 93.7892 96.1657 94.9689C96.1687 96.0456 96.1682 97.1223 96.1649 98.1897C96.1643 98.581 96.165 98.9705 96.1671 99.3619C96.1697 99.8899 96.1678 100.418 96.1646 100.946C96.1665 101.1 96.1684 101.255 96.1703 101.412C96.1573 102.431 96.1573 102.431 95.7334 102.91C95.1071 103.186 94.659 103.072 94.0084 102.904C93.5284 102.184 93.5809 101.6 93.5846 100.769C93.584 100.605 93.5833 100.441 93.5827 100.273C93.5809 99.7202 93.5818 99.166 93.5827 98.6136C93.582 98.2147 93.5812 97.8159 93.5802 97.4189C93.5779 96.3197 93.5779 95.2281 93.5784 94.1233C93.5784 92.9398 93.5764 91.7639 93.5746 90.5655C93.5715 88.2435 93.5705 85.9216 93.5703 83.5997C93.5701 81.7084 93.5693 79.8359 93.5681 77.9446C93.5678 77.4016 93.5674 76.8604 93.5671 76.3174C93.567 76.1826 93.5669 76.0478 93.5669 75.9092C93.5646 72.108 93.5631 68.3255 93.5632 64.5242C93.5632 64.3812 93.5633 64.2377 93.5633 64.0917C93.5633 63.367 93.5633 62.6423 93.5634 61.9196C93.5634 61.7756 93.5634 61.6312 93.5634 61.4833C93.5634 61.1911 93.5634 60.9009 93.5634 60.6088C93.5637 56.0773 93.5608 51.5458 93.5557 47.0142C93.55 41.921 93.5467 36.8464 93.5471 31.7532C93.5471 31.2101 93.5471 30.669 93.5471 30.1259C93.5471 29.9924 93.5472 29.8582 93.5472 29.7215C93.5472 27.5681 93.5448 25.4147 93.5415 23.2613C93.5384 21.1078 93.5381 18.9357 93.5405 16.7823C93.5417 15.6101 93.5417 14.4417 93.5385 13.262C93.5355 12.1909 93.536 11.1273 93.5393 10.0412C93.5399 9.65173 93.5392 9.26412 93.5371 8.87463C93.5345 8.34845 93.5364 7.82227 93.5396 7.2961C93.5377 7.1433 93.5358 6.99087 93.5339 6.83358C93.5424 6.16696 93.5804 5.77186 93.9708 5.22134C94.3833 4.94795 94.3833 4.94795 95.0621 4.97229L95.0626 5.00901Z" fill="white"/>
<path d="M31.4999 16.2442C31.783 16.3013 32.0662 16.3578 32.3493 16.4138C34.8055 16.9156 34.8055 16.9156 35.2555 17.3669C35.0362 17.4598 34.8168 17.5529 34.5899 17.6478C30.7649 19.29 27.0149 21.5239 25.1399 25.4188C24.1087 28.059 24.2024 29.8192 24.2024 32.9089H12.5774C12.2474 32.2498 12.6434 31.5101 12.8549 30.8304C14.7299 25.1941 18.9674 20.5315 24.2362 17.8725C26.4487 16.8033 29.0549 15.6442 31.5299 16.2284L31.4999 16.2442Z" fill="white"/>
<path d="M45.9376 15.6824C46.1326 15.723 46.1326 15.723 46.3295 15.7644C48.8795 16.3187 51.2045 17.2587 53.2482 18.8728C53.4024 18.9878 53.5557 19.1031 53.7151 19.2211C55.3651 20.6274 56.6776 22.7602 56.8464 24.9698C56.8801 26.9359 56.4357 28.022 55.067 29.4638C53.117 31.2315 50.117 32.7407 47.4357 32.7407C47.4627 32.602 47.4899 32.4636 47.5179 32.3194C48.1216 28.8927 48.0522 25.6158 46.1285 22.5823C43.2597 18.6687 38.3285 16.8711 33.6972 16.1221C33.0916 16.0344 32.4879 15.9543 31.8804 15.888C31.9422 15.7644 32.0041 15.6408 32.0679 15.5135C36.3991 14.6203 41.6491 14.7926 45.9429 15.7008L45.9376 15.6824Z" fill="white"/>
<path d="M69.9375 14.3716C70.4025 14.7967 70.8581 15.2292 71.3137 15.6637C71.4737 15.8137 71.6344 15.9633 71.7994 16.1187C73.0894 17.3602 74.1806 18.7215 75.2494 20.1634C75.3245 20.2645 75.3997 20.3656 75.4781 20.4704C79.2094 25.5637 81.3844 31.3686 82.3781 37.5853C82.4094 37.7801 82.4094 37.7801 82.4413 37.9786C83.0057 42.173 82.7619 46.7794 81.815 50.8803C81.7577 51.1293 81.7577 51.1293 81.6994 51.3821C79.6181 60.0145 74.4056 68.2723 66.9994 73.2907C66.8749 73.3766 66.75 73.4627 66.6225 73.5509C58.485 79.0936 48.285 81.5279 38.4975 79.8426C30.7537 78.3334 23.8912 74.8243 18.2475 69.3565C18.1072 69.2239 17.9662 69.0906 17.8219 68.9558C11.2219 62.5892 7.32186 52.9831 7.15311 43.8639C7.09649 35.9806 8.94749 28.4156 13.3781 21.7681C13.5017 21.5831 13.5017 21.5831 13.6275 21.3936C14.5631 20.0154 15.5587 18.7533 16.7025 17.5362C17.0719 17.143 17.4187 16.7423 17.7656 16.3284C20.4844 13.2388 23.9906 10.8794 27.6281 9.02557C27.7581 8.95853 27.8887 8.8915 28.0219 8.82334C41.5031 1.91372 58.7719 4.1982 70.0219 14.2911L69.9375 14.3716ZM35.4375 6.80663C35.1675 6.87835 35.1675 6.87835 34.8937 6.95175C30.3375 8.21196 26.1562 10.3785 22.3875 13.2247C22.1287 13.4157 22.1287 13.4157 21.8644 13.6086C18.9769 15.8369 16.3519 18.6082 14.3269 21.6417C14.1939 21.8402 14.0606 22.0387 13.9237 22.2428C13.5394 22.8439 13.1775 23.4543 12.8269 24.076C12.7539 24.2041 12.681 24.3325 12.6056 24.4636C9.43687 30.0812 7.86187 36.1294 7.89937 42.5522C7.89971 42.7089 7.90005 42.8649 7.9004 43.0278C7.90899 45.3685 8.00484 47.6343 8.52103 49.9187L8.61553 50.3681C10.3968 58.7571 15.103 66.3221 21.8343 71.7149C22.0107 71.8612 22.1868 72.007 22.3686 72.1587C29.6249 78.0197 39.5436 80.5476 48.8061 79.6301C56.1186 78.7931 63.1687 75.9787 68.6812 71.1663C68.8274 71.0408 68.9736 70.9154 69.1236 70.7862C76.6049 64.2136 81.2549 55.2255 81.9674 45.3198C82.5261 35.3954 79.2861 25.6583 72.6674 18.1682C67.2486 12.1386 60.2924 8.16889 52.4174 6.38999C52.2781 6.35703 52.138 6.32389 51.9955 6.28981C49.6705 5.75801 47.2893 5.77112 44.908 5.75801C44.6718 5.75575 44.6718 5.75575 44.4299 5.75344C41.3736 5.73135 38.4299 6.10173 35.4674 6.89381L35.4375 6.80663Z" fill="white"/>
<path d="M41.25 19.4275C41.7806 19.7795 42.2588 20.1428 42.75 20.551C42.2194 20.9049 41.7469 21.1127 41.1563 21.3468C38.1938 22.5714 35.775 24.1369 34.2375 27.0205C33.4706 28.88 33.6938 30.9341 33.7463 32.9003C32.6288 32.9049 31.515 32.9083 30.39 32.9106C30.0094 32.9115 29.6288 32.9128 29.2481 32.9144C28.7025 32.9167 28.1569 32.9177 27.6113 32.9186C27.3544 32.92 27.3544 32.92 27.0919 32.9215C26.685 32.9215 26.2763 32.9119 25.8694 32.9003C25.4138 32.4453 25.6238 31.1439 25.6219 30.5035C25.674 26.8521 27.0863 23.7624 29.7094 21.2158C33.3469 18.0325 37.0407 16.9651 41.2407 19.42L41.25 19.4275Z" fill="white"/>
<path d="M11.8124 33.8459H77.8124C79.6574 38.4523 79.5205 44.9687 78.3749 49.7624C78.3438 49.9032 78.3125 50.0433 78.2804 50.1893C77.7404 52.6049 76.8704 54.7396 75.9366 57.0615H13.8741C13.2329 55.7826 12.691 54.6085 12.2691 53.279C12.2134 53.1032 12.1579 52.927 12.1006 52.7472C10.1881 46.4368 10.3924 40.22 11.8118 33.8347L11.8124 33.8459ZM12.1874 34.4077C12.0664 34.9339 11.9455 35.46 11.8274 35.9881C11.7936 36.1347 11.7597 36.2821 11.725 36.4319C10.255 42.9483 11.0931 50.0264 13.9188 56.0934C14.2075 56.5709 14.2075 56.5709 14.71 56.6458C14.896 56.6454 15.0813 56.6451 15.2744 56.6447C15.5969 56.6475 15.5969 56.6475 15.925 56.6504C16.1613 56.6476 16.3994 56.6449 16.6431 56.6421C16.8963 56.6425 17.1494 56.6433 17.4025 56.6445C18.1 56.6466 18.7975 56.6429 19.5025 56.6382C20.2544 56.6342 21.0063 56.6355 21.7525 56.6362C23.0556 56.6367 24.3588 56.6338 25.6713 56.6285C27.5463 56.6209 29.44 56.6185 31.315 56.6173C34.3713 56.6152 37.4275 56.609 40.4838 56.6002C43.4463 56.5916 46.4275 56.5849 49.39 56.5809C49.573 56.5806 49.7556 56.5804 49.945 56.5801C50.8638 56.5789 51.7806 56.5777 52.7013 56.5765C60.3138 56.5668 67.945 56.5503 75.5763 56.5294C75.8163 55.9732 76.0544 55.4171 76.2925 54.8609C76.3596 54.7061 76.4268 54.552 76.495 54.3909C77.185 52.7731 77.6463 51.1327 78.0119 49.41L78.1049 48.9793C79.0086 44.5976 79.0311 39.6167 77.7186 35.3099C77.668 35.1434 77.6174 34.9766 77.5653 34.8043C77.5075 34.6152 77.5075 34.6152 77.4484 34.4223C57.9484 34.2676 57.9485 34.2676 38.636 34.2126H38.0359C29.4297 34.2139 20.8422 34.304 12.1609 34.4223L12.1874 34.4077Z" fill="white"/>
<path d="M60.0001 18.3039C61.817 20.0491 63.0188 22.0303 63.1313 24.6144C63.022 26.6554 62.0813 28.0973 60.6001 29.4642C58.9932 30.7881 56.8688 32.067 54.7876 32.4602C54.602 32.3984 54.4163 32.3367 54.2251 32.273C54.3181 32.1979 54.4113 32.1228 54.5063 32.0464C56.4188 30.4566 57.7688 28.6197 58.0126 26.0918C58.0702 23.6013 57.1463 21.2045 55.4438 19.4069C52.2376 16.5419 47.7188 15.3809 43.5376 14.8753V14.6881C48.8438 13.9747 55.8001 14.7235 60.0001 18.3208V18.3039Z" fill="white"/>
<path d="M43.4999 21.4872C44.5893 22.1819 45.3937 23.3785 45.9374 24.5394C45.7256 25.1742 45.5737 25.2754 45.0581 25.6742C43.6537 26.8707 42.9581 28.3894 42.5643 30.1495C42.5024 31.0146 42.4406 31.8798 42.3768 32.7711H35.0643C34.5243 30.6177 34.8468 28.4081 35.9024 26.4607C36.9824 24.8091 41.1524 20.6371 43.4962 21.4797L43.4999 21.4872Z" fill="white"/>
<path d="M59.4375 16.9932C62.55 17.437 65.4937 19.4274 67.3687 21.9179C68.4356 23.5976 68.9006 25.3072 68.6306 27.2921C68.2669 28.7545 67.335 29.8949 66.0619 30.6813C64.2656 31.6981 62.1056 32.816 60.0056 32.7224C60.1697 32.5033 60.3338 32.2861 60.4969 32.067C60.5998 31.929 60.7031 31.7917 60.8081 31.6494C61.0069 31.3873 61.2075 31.127 61.4137 30.8705C63.2362 28.586 64.0388 26.0955 63.7575 23.1744C63.27 20.8337 61.695 19.1484 60.0075 17.5568C59.82 17.3701 59.6325 17.1823 59.445 16.995L59.4375 16.9932Z" fill="white"/>
<path d="M47.25 87.0256H48.5625C49.3144 88.6248 49.9781 90.2464 50.625 91.8942C51.2756 90.6714 51.8194 89.4225 52.3181 88.1304C52.6688 87.2279 52.6687 87.2279 52.875 87.0219H54.1875V93.9502H52.875C52.8131 92.8998 52.7512 91.853 52.6875 90.7669C52.3256 91.7444 52.3256 91.7444 51.9637 92.7144C51.5831 93.7349 51.5831 93.7349 51.375 93.9428C50.9381 93.9504 50.4994 93.9507 50.0625 93.9428C49.9491 93.69 49.8356 93.4353 49.7231 93.1825C49.6601 93.0413 49.5969 92.8998 49.5319 92.7537C49.2675 92.1526 49.0087 91.5497 48.75 90.9467C48.6881 91.9354 48.6263 92.9316 48.5625 93.9428H47.25V87.0144V87.0256Z" fill="white"/>
<path d="M54.9375 96.201H56.4375C57.0562 97.8076 57.675 99.4218 58.3125 101.07C58.9106 99.8899 58.9106 99.8899 59.4225 98.6915C59.5076 98.4705 59.5076 98.4705 59.5946 98.2458C59.6508 98.0977 59.7073 97.95 59.7652 97.7964C59.8245 97.6425 59.8837 97.4893 59.9446 97.3302C60.0886 96.9556 60.2315 96.5811 60.374 96.2048H61.874V102.946H60.5615C60.4996 101.957 60.4378 100.961 60.374 99.9498C60.0121 100.865 60.0121 100.865 59.6503 101.781C59.2696 102.738 59.2696 102.738 59.0615 102.946H57.5615C57.1903 101.957 56.819 100.961 56.4365 99.9498C56.3746 100.939 56.3128 101.935 56.249 102.946H54.9365V96.2048L54.9375 96.201Z" fill="white"/>
<path d="M67.125 20.3637C69.3375 21.1539 72 23.2099 73.0688 25.3446C73.4925 26.5075 73.5019 27.5729 73.0454 28.7339C71.5904 30.8686 69.0141 32.1044 66.5579 32.7411C66.6816 32.6252 66.8054 32.5089 66.9329 32.3891C68.701 30.6046 69.8016 28.9062 69.9329 26.3595C69.9122 24.1874 68.8266 22.4085 67.3641 20.8543C67.1166 20.5809 67.1166 20.5809 67.1166 20.3937L67.125 20.3637Z" fill="white"/>
<path d="M27.5624 39.838C28.1343 40.1938 28.5524 40.6076 28.8731 41.1937C28.9805 41.7555 28.9629 42.2872 28.9316 42.8565C28.9123 43.3583 28.8929 43.8602 28.8731 44.377H22.6856C22.4981 41.7555 22.4981 41.7555 22.7441 40.9877C24.1072 39.4991 25.6878 39.2032 27.5628 39.8305L27.5624 39.838Z" fill="white"/>
<path d="M62.25 87.0256C63.75 87.0256 63.75 87.0256 64.1813 87.4039C64.2913 87.5765 64.4006 87.7484 64.515 87.9263C64.6371 88.1123 64.7587 88.299 64.8844 88.49C65.0059 88.6866 65.1281 88.8832 65.2519 89.0854C65.3792 89.282 65.5069 89.4787 65.6381 89.6809C65.9512 90.1659 66.2587 90.6546 66.5644 91.1452C66.6263 89.7857 66.6881 88.43 66.7519 87.0256H68.0644V93.954C66.5644 93.954 66.5644 93.954 66.1519 93.5926C65.9987 93.3454 65.9987 93.3454 65.8425 93.0926C65.7289 92.9153 65.6156 92.7387 65.4975 92.5552C65.3286 92.2743 65.3286 92.2743 65.1562 91.986C64.9787 91.7051 64.9787 91.7051 64.7981 91.4167C64.5075 90.9542 64.2225 90.4861 63.9375 90.0198C63.8756 91.3175 63.8138 92.6226 63.75 93.9521H62.25V87.0238V87.0256Z" fill="white"/>
<path d="M38.2501 87.4002C39.0919 88.0499 39.5101 88.7652 39.7332 89.797C39.8588 90.9673 39.6464 92.0066 38.9063 92.9428C38.0626 93.7593 37.1513 94.0813 35.9813 94.1094C34.8019 93.9579 34.1063 93.4784 33.3751 92.559C32.7526 91.5834 32.9082 90.3494 32.9832 89.2446C33.2982 88.2653 33.8288 87.7672 34.6707 87.1848C35.8838 86.6493 37.1082 86.7523 38.2519 87.4095L38.2501 87.4002ZM34.6688 89.048C34.2994 89.7858 34.3951 90.679 34.4813 91.4823C34.8188 92.044 35.0251 92.3155 35.6063 92.6058C36.3432 92.6751 36.7876 92.6754 37.4457 92.3249C37.9876 91.707 38.1694 91.1752 38.2313 90.3588C38.1141 89.5779 37.9744 89.1791 37.4457 88.5911C36.3432 87.9788 35.5332 88.1791 34.6707 89.048H34.6688Z" fill="white"/>
<path d="M42.1875 96.201C42.7744 96.1818 43.3631 96.1625 43.9688 96.1426C44.2425 96.1298 44.2425 96.1298 44.52 96.1168C45.7106 96.0981 46.545 96.3396 47.445 97.1373C48.1238 98.0417 48.3169 98.9237 48.2681 100.04C48.1097 101.047 47.7 101.757 46.965 102.455C46.3144 102.873 45.8269 102.959 45.0713 102.953C44.9203 102.953 44.7694 102.952 44.6138 102.952C44.3269 102.949 44.3269 102.949 44.0363 102.947C43.125 102.941 43.125 102.941 42.1969 102.935V96.194L42.1875 96.201ZM43.6875 97.5118V101.631C45.4369 101.822 45.4369 101.822 46.1438 101.186C46.7156 100.41 46.7588 99.9779 46.695 99.0136C46.3631 98.1354 46.245 97.9462 45.3825 97.5156H43.695L43.6875 97.5118Z" fill="white"/>
<path d="M40.6874 87.0257C41.2518 87.0141 41.8162 87.0024 42.3974 86.9905C42.5731 86.9853 42.7481 86.9802 42.9299 86.975C43.8899 86.9655 44.5424 87.0547 45.3674 87.5873C45.9337 88.1528 46.0856 88.6658 46.1174 89.4598C45.8793 90.1414 45.6918 90.6339 45.1799 91.1451C45.254 91.8342 45.4893 92.439 45.7537 93.0738C45.8216 93.2391 45.8894 93.4052 45.9599 93.5756C46.0119 93.6999 46.0638 93.8247 46.1174 93.952H44.4299C44.2728 93.6168 44.1168 93.2816 43.9612 92.9446C43.8742 92.7577 43.7872 92.5701 43.6968 92.3791C43.4924 91.8922 43.4924 91.8922 43.4924 91.5177H42.1799V93.952H40.6799V87.0236L40.6874 87.0257ZM42.1874 88.3364V90.209C42.6393 90.2205 42.6393 90.2205 43.1024 90.2324C43.2721 90.2367 43.4418 90.2411 43.6162 90.2455C44.0981 90.2545 44.0981 90.2545 44.4374 89.8336C44.4999 89.2718 44.4999 89.2718 44.4374 88.7101C44.0981 88.2906 44.0981 88.2906 43.6162 88.2981C43.4465 88.3024 43.2768 88.3068 43.1024 88.3113C42.8006 88.319 42.4987 88.3267 42.1874 88.3347V88.3364Z" fill="white"/>
<path d="M21.5625 87.0257C25.3312 87.0257 25.3312 87.0257 26.4 87.8514C26.8312 88.4301 26.8331 89.1323 26.8087 89.8363C26.5631 90.3625 26.5631 90.3625 26.2462 90.7726C25.9875 91.0909 25.9875 91.0909 25.8712 91.5216C26.031 92.1452 26.031 92.1452 26.3175 92.7856C26.453 93.1151 26.453 93.1151 26.5912 93.4503C26.6632 93.6173 26.7352 93.7836 26.8087 93.9559H25.1212C25.0687 93.7958 25.0164 93.6357 24.9622 93.4709C24.6191 92.3268 24.6191 92.3268 23.8297 91.5235C23.4303 91.4637 23.4303 91.4637 22.8716 91.5271V93.9614H21.5591V87.0331L21.5625 87.0257ZM22.875 88.3364V90.209C23.1731 90.2244 23.4712 90.2399 23.7768 90.2558C24.0281 90.2688 24.0281 90.2688 24.285 90.2822C24.7762 90.2513 24.7762 90.2513 25.1006 89.8627C25.3725 89.4564 25.3725 89.4564 25.1716 88.9564C24.9748 88.5426 24.9748 88.5426 24.7498 88.3366C24.1235 88.3098 23.501 88.3287 22.8748 88.3366L22.875 88.3364Z" fill="white"/>
<path d="M75 87.7747C75.465 88.2091 75.5606 88.3758 75.7388 89.0143C75.7426 89.1764 75.7465 89.3382 75.7505 89.5049C74.7717 89.5877 74.7717 89.5877 74.2505 89.5049C73.9336 89.1959 73.6224 88.8851 73.313 88.5686C72.5836 88.4919 71.9499 88.5323 71.2505 88.7559C70.8005 89.9992 70.8305 91.0591 71.2505 92.3137C71.9442 92.544 72.593 92.6339 73.313 92.5009C73.4677 92.3464 73.6224 92.192 73.7817 92.0328C74.2505 91.5647 74.2505 91.5647 74.6405 91.5029C75.0117 91.5061 75.3811 91.5338 75.7505 91.565C75.7368 92.1399 75.6783 92.55 75.3042 92.9994C74.468 93.7578 73.6786 94.1772 72.5105 94.1903C71.528 94.1263 70.8792 93.9038 70.1105 93.2484C69.2349 92.1137 69.0099 91.095 69.173 89.6906C69.4805 88.6495 69.8836 87.7994 70.8605 87.2564C72.3399 86.7058 73.7105 86.7901 74.9855 87.7713L75 87.7747Z" fill="white"/>
<path d="M33.375 96.3883C34.1512 96.8265 34.4475 97.3508 34.8037 98.156V98.5305C33.8137 98.5964 33.8137 98.5964 33.3037 98.5305C33.0468 98.2889 32.7956 98.038 32.5537 97.7814C31.8225 97.583 31.4175 97.5193 30.7143 97.8167C30.2681 98.1855 30.0937 98.3522 29.9287 98.9046C29.8496 99.8989 29.831 100.537 30.4912 101.339C30.9918 101.732 31.2487 101.713 31.8975 101.691C32.5631 101.588 32.5631 101.588 32.9175 101.14C33.3731 100.713 33.4987 100.728 34.1006 100.73C34.3331 100.746 34.5637 100.761 34.8037 100.777C34.5693 101.871 34.0125 102.412 33.1162 103.024C32.0381 103.384 30.9037 103.378 29.8537 102.907C28.9781 102.411 28.5506 101.72 28.2375 100.772C28.0595 98.4131 28.0595 98.4131 28.8 97.4019C30.1012 96.1024 31.5937 95.6061 33.375 96.3832V96.3883Z" fill="white"/>
<path d="M9.74993 87.0256C10.3143 87.0102 10.8787 86.9947 11.4599 86.9788C11.6356 86.972 11.8106 86.9652 11.9924 86.9582C13.0256 86.9446 13.6274 87.0708 14.4299 87.7746C14.9118 88.5405 15.0487 89.0854 14.8987 89.9655C14.6849 90.7426 14.3943 91.1134 13.6799 91.5216C13.1212 91.6976 12.6224 91.7294 12.0393 91.7201C11.6456 91.7143 11.6456 91.7143 11.2424 91.7084V93.9554H9.74243V87.027L9.74993 87.0256ZM11.2499 88.3364V90.3962C11.6043 90.4078 11.6043 90.4078 11.9643 90.4196C12.0971 90.4239 12.2306 90.4283 12.3656 90.4328C12.8081 90.421 12.8081 90.421 13.3106 90.0208C13.3887 89.3654 13.3887 89.3654 13.3106 88.71C12.9749 88.2962 12.9749 88.2962 12.5306 88.2981L11.2481 88.3346L11.2499 88.3364Z" fill="white"/>
<path d="M76.875 87.0257H81.1875V88.3364H78.375V89.8345H80.8125V91.1452H78.375V92.6432H81.1875V93.954H76.875V87.0257Z" fill="white"/>
<path d="M57.9375 87.0257C58.3219 87.0318 58.7062 87.0379 59.0906 87.044C59.4131 87.9409 59.7319 88.836 60.0525 89.7404C60.1612 90.0456 60.27 90.3508 60.3806 90.6561C60.5377 91.0942 60.6937 91.5324 60.8494 91.9706C60.8985 92.1069 60.9478 92.244 60.9984 92.3844C61.1953 92.9405 61.3416 93.3862 61.3416 93.9798H59.8416C59.7178 93.4854 59.5941 92.9911 59.4666 92.4818H57.0291C56.9672 92.8525 56.9053 93.2233 56.8416 93.6053C56.7797 93.7289 56.7178 93.8525 56.6541 93.9798H55.1541C55.5459 92.4406 56.0391 90.9463 56.5828 89.467C56.6974 89.1487 56.6974 89.1487 56.8134 88.8229C57.4509 87.0627 57.4509 87.0627 57.9366 87.0365L57.9375 87.0257ZM58.1531 89.2914C58.0582 89.5292 57.9656 89.767 57.8719 90.0049C57.8197 90.1374 57.7674 90.2708 57.7136 90.4056C57.5619 90.81 57.5619 90.81 57.5906 91.3493H58.9031C58.8154 90.5891 58.7381 89.9506 58.3406 89.2895H58.1531V89.2914Z" fill="white"/>
<path d="M37.3125 96.201H39C39.3207 97.0998 39.6413 98.0005 39.9619 98.8975C40.0709 99.2046 40.1794 99.5098 40.29 99.8169C40.447 100.257 40.6032 100.697 40.7588 101.135C40.8079 101.272 40.8572 101.41 40.9079 101.551C41.251 102.521 41.251 102.521 41.251 102.938H39.751C39.6272 102.506 39.5035 102.073 39.376 101.628H36.9385C36.7529 102.275 36.7529 102.275 36.5635 102.938H35.0635C35.4554 101.394 35.9541 99.9049 36.5054 98.4069C36.6224 98.0867 36.6224 98.0867 36.7416 97.759C36.931 97.2384 37.1222 96.716 37.3135 96.1954L37.3125 96.201ZM38.0625 98.2608C37.9677 98.4986 37.875 98.7364 37.7813 98.9742C37.7292 99.1068 37.6769 99.2401 37.623 99.375C37.4714 99.7794 37.4714 99.7794 37.5 100.319H38.8125C38.7597 100.045 38.7045 99.7719 38.6485 99.4985C38.6027 99.2701 38.6027 99.2701 38.5562 99.0379C38.4627 98.5979 38.4627 98.5979 38.0631 98.2589L38.0625 98.2608Z" fill="white"/>
<path d="M24.1875 96.201H25.875C26.1957 97.0998 26.5163 98.0005 26.8369 98.8975C26.9459 99.2046 27.0544 99.5098 27.165 99.8169C27.322 100.257 27.4782 100.697 27.6338 101.135C27.6829 101.272 27.7322 101.41 27.7829 101.551C28.126 102.521 28.126 102.521 28.126 102.938H26.626C26.5022 102.506 26.3785 102.073 26.251 101.628H23.8135C23.6279 102.275 23.6279 102.275 23.4385 102.938H21.9385C22.3679 101.446 22.8666 99.9798 23.3804 98.5192C23.4974 98.184 23.4974 98.184 23.6166 97.8414C23.8079 97.2946 23.9972 96.7478 24.1885 96.2029L24.1875 96.201ZM24.9375 98.2608C24.8427 98.4986 24.75 98.7364 24.6563 98.9742C24.6042 99.1068 24.5519 99.2401 24.498 99.375C24.3464 99.7794 24.3464 99.7794 24.375 100.319H25.6875C25.6347 100.045 25.5795 99.7719 25.5235 99.4985C25.4777 99.2701 25.4777 99.2701 25.4312 99.0379C25.3377 98.5979 25.3377 98.5979 24.9381 98.2589L24.9375 98.2608Z" fill="white"/>
<path d="M15.9375 87.0257H20.25V88.3364C19.3219 88.3982 18.3937 88.46 17.4375 88.5237C17.3756 88.9562 17.3138 89.3888 17.25 89.8345H19.875V91.1452H17.25V92.6432H20.25V93.954H15.9375V87.0257Z" fill="white"/>
<path d="M49.3125 96.201H53.625V97.5118H50.625V98.8226H53.25V100.133C52.0425 100.226 52.0425 100.226 50.8125 100.321C50.7506 100.753 50.6888 101.186 50.625 101.631H53.625V102.942H49.3125V96.201Z" fill="white"/>
<path d="M27.9375 87.0257H32.25V88.3364H29.4375V89.8345C29.5978 89.8323 29.7581 89.8301 29.9231 89.8279C30.1294 89.8262 30.3375 89.8245 30.5512 89.8228C30.7575 89.8206 30.9638 89.8184 31.1775 89.8162C31.6875 89.8345 31.6875 89.8345 31.875 90.0221V91.1457H29.4375V93.9544H27.9375V87.0261V87.0257Z" fill="white"/>
<path d="M62.8124 96.201H64.4999C64.933 97.0044 65.3661 97.8077 65.8124 98.6353C65.9903 98.3376 66.1686 98.0399 66.3524 97.7346C66.6636 97.216 66.9768 96.7048 67.3124 96.201C67.678 96.1462 67.678 96.1462 68.0849 96.1658C68.3249 96.1774 68.5649 96.1891 68.8124 96.201L67.6949 98.4293C67.5976 98.626 67.5976 98.626 67.498 98.8263C67.3368 99.1447 67.1643 99.4574 66.9899 99.7682C66.7011 100.429 66.6543 100.98 66.6205 101.697C66.6082 101.931 66.5959 102.163 66.5832 102.403C66.5762 102.579 66.5692 102.755 66.562 102.937H65.062C65.0724 102.777 65.0828 102.618 65.0935 102.453C65.1056 100.188 64.1729 98.6147 62.9935 96.7048C62.8071 96.3845 62.8071 96.3845 62.8071 96.1973L62.8124 96.201Z" fill="white"/>
<path d="M51.375 59.125C51.84 59.2177 51.84 59.2177 52.3125 59.3123C52.56 60.0538 52.8075 60.7953 53.0625 61.5593C53.1244 60.756 53.1862 59.9527 53.25 59.125H54V64.5553H53.25C52.9406 63.6902 52.6313 62.8251 52.3125 61.9338C52.2506 62.7989 52.1888 63.664 52.125 64.5553H51.375V59.125Z" fill="white"/>
<path d="M36 59.125H37.5C37.5945 59.889 37.6875 60.6549 37.7812 61.4095C37.8081 61.6267 37.8349 61.8439 37.8626 62.0668C37.8879 62.2765 37.9134 62.4843 37.9395 62.6997C37.9631 62.8925 37.9866 63.0835 38.0109 63.282C38.0625 63.797 38.0625 63.797 38.0625 64.546H37.3125C37.1888 64.1752 37.065 63.8045 36.9375 63.4225H36.1875V64.546H35.4375C35.5269 62.7147 35.6812 60.932 36 59.1157V59.125ZM36.5625 60.2485C36.5006 61.0519 36.4388 61.8552 36.375 62.6828H36.9375C36.9476 62.3476 36.9549 62.0125 36.9609 61.6754C36.9653 61.4885 36.9696 61.3009 36.9741 61.1099C36.9885 60.5931 36.9885 60.5931 36.5616 60.2485H36.5625Z" fill="white"/>
<path d="M47.4375 59.125H48.9375C49.0327 59.7841 49.125 60.4433 49.2187 61.1099C49.2455 61.2954 49.2724 61.4806 49.3001 61.6716C49.4362 62.6453 49.5326 63.5816 49.5007 64.5553H48.7507C48.627 64.1846 48.5032 63.8138 48.3757 63.4318H48.0007C47.877 63.8026 47.7532 64.1733 47.6257 64.5553H46.8757C46.9828 62.7277 47.1776 60.9414 47.4382 59.125H47.4375ZM48.1875 60.2485C47.8612 60.5743 47.9306 61.0331 47.895 61.4769C47.8793 61.666 47.8635 61.8551 47.8474 62.0518C47.836 62.1982 47.8247 62.3439 47.8129 62.4955C48.0604 62.5573 48.3079 62.6191 48.5629 62.6828C48.501 61.8795 48.4391 61.0762 48.3754 60.2485H48.1879H48.1875Z" fill="white"/>
<path d="M36.9376 65.6788H37.6876C37.7495 67.1001 37.8113 68.5251 37.8751 69.9856C38.1226 70.0474 38.3701 70.1092 38.6251 70.1729C38.687 68.6899 38.7488 67.2143 38.8126 65.6788H39.5626C39.579 66.3455 39.589 67.0121 39.5978 67.6824C39.6049 67.9652 39.6049 67.9652 39.6121 68.2536C39.6299 70.0493 39.6299 70.0493 39.0009 70.744C38.3559 70.9425 38.3559 70.9425 37.6884 70.9313C37.1728 70.5455 36.9628 70.3246 36.854 69.6842C36.8579 69.4997 36.8619 69.3153 36.8659 69.1262C36.8683 68.9258 36.8707 68.7254 36.8732 68.5195C36.8795 68.3116 36.8858 68.1038 36.8924 67.8884C36.8957 67.6768 36.8991 67.4671 36.9026 67.2499C36.9115 66.7293 36.9238 66.2088 36.9392 65.6882L36.9376 65.6788Z" fill="white"/>
<path d="M55.8749 65.6789C56.3024 65.9841 56.4224 66.1526 56.5124 66.6732C56.5184 67.2162 56.5225 67.7574 56.5187 68.3004C56.5224 68.4895 56.5262 68.6786 56.53 68.8734C56.5299 69.0548 56.5298 69.2367 56.5297 69.4239C56.53 69.59 56.5304 69.7553 56.5307 69.9276C56.4366 70.3602 56.4366 70.3602 56.0976 70.701C55.4751 71.0343 55.042 70.9069 54.3726 70.7347C53.827 69.9164 53.9357 69.1692 53.9395 68.2068C53.9364 68.0264 53.9334 67.8454 53.9303 67.66C53.9302 67.487 53.9301 67.3136 53.9299 67.1357C53.9294 66.9774 53.9288 66.8192 53.9283 66.6563C54.112 65.5609 54.9089 65.5759 55.8783 65.6789H55.8749ZM54.9374 66.2406C54.7124 66.4249 54.7124 66.4249 54.7293 66.7762C54.7303 66.9243 54.7313 67.072 54.7323 67.2256C54.7329 67.3855 54.7335 67.5458 54.7341 67.7105C54.7357 67.8787 54.7373 68.0476 54.7389 68.2199C54.7397 68.3888 54.7406 68.5569 54.7414 68.7311C54.7436 69.1505 54.7467 69.5681 54.7506 69.9875C55.06 70.0493 55.3693 70.1111 55.6881 70.1748C55.9056 69.525 55.9075 68.9988 55.9112 68.3135C55.9139 68.0832 55.9165 67.8547 55.9193 67.6188C55.8791 67.0383 55.8086 66.7275 55.5011 66.2425H54.9386L54.9374 66.2406Z" fill="white"/>
<path d="M40.875 65.6788C42.5625 65.6788 42.5625 65.6788 43.05 65.9485C43.5019 66.7537 43.4419 67.6487 43.2103 68.5326C43.1844 68.6427 43.1586 68.7535 43.1319 68.8659C43.1938 68.9277 43.2557 68.9895 43.3194 69.0531C43.3329 69.3377 43.3352 69.6224 43.3312 69.907C43.3295 70.0617 43.3278 70.216 43.326 70.3751C43.3239 70.4946 43.3217 70.6148 43.3194 70.7365H42.5694V69.0513H41.6319C41.5701 69.6074 41.5082 70.1635 41.4444 70.7365H40.8819V65.6807L40.875 65.6788ZM41.625 66.2406C41.3944 66.4297 41.3944 66.4297 41.4188 66.8155C41.4209 66.9698 41.4231 67.1244 41.4254 67.2836C41.427 67.4383 41.4287 67.5926 41.4305 67.7517C41.4326 67.8712 41.4348 67.9914 41.4371 68.1131C42.0089 68.3022 42.0089 68.3022 42.5621 68.1131V66.4278C42.2508 66.3563 41.9396 66.2941 41.6246 66.2406H41.625Z" fill="white"/>
<path d="M41.0626 59.125C41.5576 59.1385 41.7733 59.152 42.1989 59.4171C42.3864 59.7448 42.3864 59.7448 42.3864 60.4938C41.6364 60.4938 41.6364 60.4938 41.3326 60.2129C41.2475 60.1202 41.1626 60.0276 41.0739 59.9321H40.6989C40.8958 60.9657 40.8958 60.9657 41.6476 61.6885C42.2251 62.2034 42.2983 62.312 42.4089 63.0348C42.4359 63.6322 42.4125 63.8213 42.092 64.3456C41.5108 64.6883 41.1751 64.7145 40.5095 64.6152C40.157 64.3812 40.157 64.3812 39.947 64.0535V63.3045H40.697C40.7589 63.4281 40.8208 63.5517 40.8845 63.679H41.447C41.4211 63.1228 41.3984 62.7015 41.0026 62.2858C40.7176 62.0574 40.4251 61.8383 40.1345 61.6192C39.9133 61.1792 39.9151 60.8927 39.9114 60.4021C39.9087 60.2534 39.9061 60.1043 39.9033 59.9508C39.9886 59.1774 40.3308 59.183 41.0602 59.125H41.0626Z" fill="white"/>
<path d="M35.0626 65.6789C35.6251 66.0534 35.6251 66.0534 35.7544 66.544C35.7737 66.6908 35.7931 66.838 35.8129 66.9896H35.0629C34.9392 66.8042 34.8154 66.6189 34.6879 66.4279C34.5023 66.3661 34.3167 66.3043 34.1254 66.2406V67.7386C34.3336 67.8197 34.5436 67.9008 34.7592 67.9839C35.4379 68.3004 35.4379 68.3004 35.8129 68.8622C35.8283 69.2722 35.8283 69.2722 35.7777 69.716C35.7634 69.863 35.7492 70.01 35.7346 70.1617C35.6254 70.5474 35.6254 70.5474 35.0633 70.9219C34.4071 70.9922 34.4071 70.9922 33.7508 70.9219C33.3871 70.583 33.3871 70.583 33.1883 70.1729V69.6112H33.9383C34.0621 69.7965 34.1858 69.9819 34.3133 70.1729C34.4989 70.1111 34.6846 70.0493 34.8758 69.9857V69.0494C34.6152 68.9277 34.6152 68.9277 34.3489 68.8041C33.4339 68.321 33.4339 68.321 33.1883 67.9259C33.1154 67.1619 33.0884 66.6619 33.3871 65.9597C33.9421 65.5309 34.3827 65.6058 35.0633 65.6789H35.0626Z" fill="white"/>
<path d="M52.125 65.6788C52.4888 65.8773 52.4888 65.8773 52.6875 66.2406C52.7228 66.9316 52.7228 66.9316 52.6875 67.5514H52.125C52.0013 67.1806 51.8775 66.8099 51.75 66.4279H51.1875V69.9857C51.435 70.0475 51.6825 70.1092 51.9375 70.1729C51.9994 69.7404 52.0613 69.3078 52.125 68.8621H52.6875C52.7781 70.2403 52.7781 70.2403 52.395 70.7534C51.7407 71.0043 51.2963 70.9152 50.625 70.7417C50.0794 69.9234 50.1882 69.1763 50.1919 68.2138C50.1889 68.0335 50.1859 67.8524 50.1828 67.667C50.1826 67.494 50.1825 67.3206 50.1824 67.1427C50.1818 66.9845 50.1813 66.8262 50.1807 66.6633C50.3644 65.5679 51.1613 65.5829 52.1307 65.6859L52.125 65.6788Z" fill="white"/>
<path d="M44.625 65.6788H46.875V66.4278H45.375V67.9259H46.875V68.4876H45.375V70.7347H44.625V65.6788Z" fill="white"/>
<path d="M44.25 59.125H45V64.5553H44.25V59.125Z" fill="white"/>
<path d="M56.25 61.1848C56.7412 61.255 56.7412 61.255 57.1875 61.372C57.3047 61.7241 57.3047 61.7241 57.375 62.121C57.2513 62.2446 57.1275 62.3682 57 62.4956C56.5088 62.4253 56.5088 62.4253 56.0625 62.3083C55.9453 61.9563 55.9453 61.9563 55.875 61.5593C55.9988 61.4357 56.1225 61.3121 56.25 61.1848Z" fill="white"/>
<path d="M32.8125 60.9975C33.21 61.0677 33.21 61.0677 33.5625 61.1848C33.6797 61.6304 33.6797 61.6304 33.75 62.121C33.6263 62.2446 33.5025 62.3682 33.375 62.4955C32.9775 62.4253 32.9775 62.4253 32.625 62.3083C32.5078 61.8626 32.5078 61.8626 32.4375 61.372C32.5613 61.2484 32.685 61.1249 32.8125 60.9975Z" fill="white"/>
<path d="M43.3125 74.4797H44.25C44.0025 74.5415 43.755 74.6033 43.5 74.667V75.2287C43.8713 75.3214 43.8713 75.3214 44.25 75.416H43.5V76.165C43.8713 76.2577 43.8713 76.2577 44.25 76.3523H43.3125V74.4797Z" fill="white"/>
<path d="M53.25 73.918C53.3119 74.1033 53.3737 74.2887 53.4375 74.4797C53.5612 74.5415 53.685 74.6033 53.8125 74.667C53.6269 74.946 53.6269 74.946 53.4375 75.2287V74.8542H52.5C52.7475 74.7924 52.995 74.7306 53.25 74.667V73.918Z" fill="white"/>
<path d="M39.75 74.8542C39.8672 75.2063 39.8672 75.2063 39.9375 75.6033C39.8137 75.7268 39.69 75.8504 39.5625 75.9778C39.4453 75.6257 39.4453 75.6257 39.375 75.2288C39.4988 75.1052 39.6225 74.9816 39.75 74.8542Z" fill="white"/>
<path d="M38.8125 73.918C38.8744 74.0416 38.9362 74.1651 39 74.2925C38.8241 74.6894 38.8241 74.6894 38.625 75.0415C38.617 74.7288 38.6174 74.4179 38.625 74.1052C38.6869 74.0434 38.7487 73.9816 38.8125 73.918Z" fill="white"/>
<path d="M46.6875 75.7905C46.8113 75.9759 46.935 76.1613 47.0625 76.3523H46.5C46.5619 76.1669 46.6238 75.9815 46.6875 75.7905Z" fill="white"/>
<path d="M36 74.2925L36.1875 75.0415C36.0637 74.9797 35.94 74.9179 35.8125 74.8542C35.8744 74.6689 35.9363 74.4835 36 74.2925Z" fill="white"/>
<path d="M50.4375 74.2925H50.625V75.2287H50.4375V74.2925Z" fill="white"/>
<path d="M50.8125 75.6032C51.375 75.7905 51.375 75.7905 51.375 75.7905L50.8125 75.6032Z" fill="white"/>
<path d="M48.75 74.2925C49.3125 74.4797 49.3125 74.4797 49.3125 74.4797L48.75 74.2925Z" fill="white"/>
<path d="M41.625 74.2925C42.1875 74.4797 42.1875 74.4797 42.1875 74.4797L41.625 74.2925Z" fill="white"/>
<path d="M53.0625 73.5435L53.25 73.918C53.1262 73.8562 53.0025 73.7944 52.875 73.7307C52.9369 73.6689 52.9988 73.6071 53.0625 73.5435Z" fill="white"/>
</svg>
