<svg width="500" height="500" viewBox="0 0 500 500" fill="none" xmlns="http://www.w3.org/2000/svg">
<path d="M305.649 203.71C305.977 203.799 305.977 203.799 306.314 203.891C312.863 205.739 318.811 209.357 322.253 215.396C324.568 219.714 325.573 224.153 325.573 229.045H306.856C306.557 227.402 306.557 227.402 306.253 225.723C305.283 223.19 303.678 221.617 301.212 220.469C297.559 218.929 292.336 219.125 288.654 220.506C286.197 221.65 284.548 222.961 283.31 225.428C282.613 227.439 282.679 230.229 283.366 232.222C284.695 234.789 286.346 235.906 289.042 236.903C290.769 237.41 292.543 237.748 294.295 238.098C295.427 238.322 296.556 238.557 297.676 238.793C298.508 238.966 299.346 239.137 300.178 239.306C308.872 241.094 318.018 243.111 323.452 250.781C327.105 256.518 327.799 263.856 326.45 270.409C324.766 277.294 320.775 283.061 314.708 286.775C311.659 288.515 308.399 289.731 305.018 290.64C304.82 290.694 304.622 290.749 304.42 290.804C298.17 292.405 289.81 292.335 283.59 290.64C283.373 290.582 283.152 290.524 282.928 290.463C275.683 288.446 269.556 284.635 265.692 278.022C263.407 273.855 262.752 270.081 262.752 265.279H281.166C281.465 266.475 281.764 267.671 282.072 268.903C283.001 271.008 284.445 272.557 286.54 273.523C289.178 274.508 291.521 274.707 294.327 274.719C294.665 274.725 295.002 274.731 295.348 274.738C298.971 274.755 302.804 274.107 305.642 271.688C307.239 270.03 307.97 268.245 308.072 265.951C307.982 263.948 307.492 262.025 306.225 260.425C304.662 259.244 303.086 258.598 301.213 258.148C300.969 258.086 300.722 258.025 300.468 257.961C297.208 257.158 293.888 256.533 290.566 255.901C282.114 254.28 273.42 251.734 268.137 244.397C264.212 238.297 262.976 230.868 264.333 223.742C265.305 219.968 266.795 216.737 269.134 213.596C269.268 213.414 269.4 213.231 269.538 213.043C273.945 207.397 282.006 203.864 288.948 202.867C294.322 202.263 300.42 202.179 305.673 203.622L305.649 203.71Z" fill="white"/>
<path d="M430.625 204.313H449.04C451.241 210.292 453.387 216.271 455.53 222.281C455.91 223.356 456.29 224.434 456.671 225.512C456.747 225.728 456.824 225.943 456.903 226.167C457.056 226.602 457.211 227.036 457.364 227.474C457.592 228.12 457.821 228.764 458.046 229.41C459.275 232.883 460.513 236.385 461.759 239.858C462.144 240.933 462.524 242.005 462.907 243.089C463.003 243.362 463.102 243.636 463.202 243.916C463.978 246.094 464.75 248.265 465.52 250.439C466.082 252.024 466.642 253.609 467.207 255.21C467.35 255.611 467.492 256.013 467.632 256.415C469.212 260.884 470.802 265.323 472.403 269.762C472.53 270.118 472.659 270.474 472.789 270.84C473.383 272.497 473.982 274.161 474.576 275.822C476.281 280.563 477.927 285.334 479.558 290.075H459.634C458.644 287.179 458.644 287.179 457.634 284.217C457.431 283.619 457.227 283.024 457.016 282.408C456.847 281.913 456.678 281.421 456.509 280.925C456.427 280.686 456.345 280.445 456.261 280.201C455.358 277.555 454.479 274.916 453.595 272.259H425.822C424.428 276.456 423.034 280.623 421.596 284.942C420.699 287.481 420.699 287.481 419.785 290.075H400.164C401.904 284.851 403.635 279.627 405.506 274.463C405.868 273.458 406.23 272.452 406.592 271.447C406.975 270.378 407.362 269.309 407.747 268.246C409.134 264.381 410.511 260.546 411.881 256.681C412.132 255.98 412.383 255.276 412.633 254.576C414.427 249.563 416.225 244.52 418.007 239.508C418.981 236.766 419.957 234.012 420.934 231.294C421.267 230.364 421.596 229.437 421.928 228.507C424.798 220.445 427.724 212.382 430.652 204.35L430.625 204.313ZM439.681 229.981C439.187 231.442 438.709 232.904 438.263 234.389C436.572 239.976 434.7 245.502 432.798 250.997C432.695 251.299 432.591 251.604 432.481 251.915C432.283 252.492 432.083 253.069 431.884 253.643C431.752 254.026 431.752 254.026 431.617 254.419C431.539 254.643 431.462 254.869 431.381 255.098C431.188 255.651 431.188 255.651 431.217 256.255H448.122C447.636 254.023 447.636 254.023 446.984 251.876C446.881 251.58 446.78 251.284 446.676 250.979C446.567 250.668 446.458 250.354 446.343 250.034C446.108 249.349 445.873 248.663 445.635 247.975C445.266 246.912 444.897 245.849 444.529 244.774C442.833 239.882 441.299 234.96 439.971 229.978H439.67L439.681 229.981Z" fill="white"/>
<path d="M210.86 204.313H229.273C231.439 210.172 233.561 216.06 235.644 221.979C236.014 223.032 236.386 224.086 236.76 225.149C236.837 225.364 236.913 225.578 236.99 225.801C237.145 226.239 237.299 226.677 237.455 227.112C237.689 227.77 237.921 228.428 238.153 229.09C239.692 233.438 241.232 237.817 242.772 242.165C242.981 242.757 243.192 243.346 243.399 243.937C245.642 250.249 247.898 256.59 250.131 262.901C250.831 264.867 251.528 266.827 252.226 268.789C252.639 269.952 253.053 271.117 253.467 272.292C253.617 272.712 253.617 272.712 253.769 273.144C255.363 277.643 256.969 282.112 258.599 286.581C258.677 286.797 258.756 287.013 258.836 287.233C259.045 287.81 259.255 288.387 259.464 288.964C259.747 289.779 259.747 289.779 259.747 290.081H239.824C238.834 287.185 238.834 287.185 237.826 284.223C237.621 283.625 237.417 283.03 237.206 282.414C237.037 281.919 236.868 281.427 236.699 280.931C236.617 280.692 236.534 280.451 236.451 280.207C235.548 277.561 234.67 274.922 233.785 272.265H206.012C204.021 278.153 202.027 284.011 199.975 290.081H180.354C181.374 286.669 181.374 286.669 181.881 285.25C181.996 284.926 182.11 284.603 182.228 284.268C182.35 283.924 182.472 283.583 182.599 283.229C182.73 282.861 182.86 282.496 182.994 282.115C183.348 281.119 183.701 280.125 184.057 279.129C184.356 278.289 184.655 277.45 184.953 276.61C187.363 269.816 189.783 263.052 192.229 256.288C193.692 252.211 195.151 248.135 196.606 244.058C196.73 243.711 196.853 243.367 196.98 243.011C198.453 238.904 199.918 234.767 201.388 230.63C201.531 230.225 201.675 229.818 201.82 229.413C201.926 229.112 201.926 229.112 202.035 228.806C202.391 227.797 202.75 226.789 203.106 225.786C203.177 225.589 203.246 225.391 203.317 225.188C205.787 218.213 208.298 211.268 210.865 204.323L210.86 204.313ZM219.916 229.981C219.415 231.463 218.929 232.946 218.477 234.45C216.925 239.553 215.245 244.626 213.495 249.669C213.362 250.055 213.362 250.055 213.225 250.451C213.057 250.934 212.89 251.417 212.721 251.9C212.644 252.12 212.568 252.341 212.491 252.568C212.393 252.85 212.393 252.85 212.291 253.138C211.977 254.165 211.732 255.213 211.473 256.249H228.378C227.985 254.482 227.609 252.927 227.019 251.236C226.911 250.925 226.911 250.925 226.8 250.605C226.647 250.161 226.493 249.72 226.337 249.276C225.926 248.102 225.519 246.924 225.113 245.743C225.033 245.507 224.951 245.269 224.867 245.025C223.157 240.042 221.486 235.06 220.217 229.956H219.916V229.981Z" fill="white"/>
<path d="M338.251 204.313C380.211 204.313 380.211 204.313 384.74 206.05C385.054 206.166 385.054 206.166 385.375 206.284C388.543 207.504 391.261 209.334 393.827 211.569C394.131 211.831 394.131 211.831 394.445 212.1C397.615 215.038 399.789 218.955 401.087 223.031C401.182 223.322 401.182 223.322 401.278 223.617C403.02 229.203 403.093 236.149 401.389 241.765C401.283 242.118 401.177 242.472 401.066 242.834C398.638 250.172 393.972 255.366 387.118 258.868C382.018 261.221 376.674 261.731 371.12 261.71C370.761 261.71 370.402 261.709 370.033 261.709C368.705 261.707 367.376 261.703 366.048 261.699C363.071 261.693 360.101 261.687 357.022 261.681V290.065H338.306V204.307L338.251 204.313ZM356.968 220.922C356.961 224.032 356.955 227.142 356.952 230.222C356.95 231.663 356.948 233.106 356.945 234.54C356.942 235.929 356.94 237.321 356.939 238.707C356.939 239.239 356.937 239.77 356.936 240.302C356.934 241.045 356.934 241.784 356.934 242.527C356.932 242.749 356.931 242.971 356.931 243.201C356.842 244.212 356.842 244.212 357.269 245.055C358.214 245.093 359.152 245.112 360.099 245.116C360.534 245.119 360.534 245.119 360.978 245.121C361.596 245.124 362.213 245.126 362.831 245.127C363.759 245.13 364.688 245.139 365.615 245.149C370.777 245.177 375.969 245.12 379.954 241.435C382.385 238.702 382.782 235.245 382.692 231.742C382.489 228.511 381.443 225.884 379.07 223.679C375.99 221.134 372.338 220.79 368.444 220.826C368.112 220.827 367.782 220.827 367.441 220.828C366.397 220.832 365.349 220.839 364.301 220.847C363.59 220.85 362.875 220.853 362.162 220.855C360.423 220.862 358.69 220.872 356.939 220.885L356.968 220.922Z" fill="white"/>
<path d="M28.2255 216.09H132.071C133.474 221.707 133.474 221.707 133.655 223.972C133.678 224.226 133.7 224.479 133.724 224.742C134.451 233.559 132.824 242.105 129.346 250.227C129.045 250.529 129.045 250.529 128.38 250.566C128.084 250.565 127.789 250.565 127.484 250.565C127.143 250.566 126.805 250.566 126.451 250.567C126.074 250.566 125.694 250.565 125.304 250.564C124.906 250.565 124.507 250.565 124.097 250.565C122.986 250.566 121.875 250.565 120.776 250.563C119.581 250.562 118.382 250.562 117.184 250.563C115.11 250.563 113.048 250.562 110.965 250.56C107.968 250.558 104.958 250.557 101.969 250.556C97.1092 250.556 92.2489 250.554 87.3888 250.551C82.6493 250.548 77.9401 250.546 73.2007 250.545C72.9093 250.545 72.6181 250.544 72.3192 250.544C70.8582 250.544 69.3971 250.544 67.942 250.543C55.8066 250.54 43.7015 250.535 31.4151 250.528C31.1235 249.957 30.8324 249.384 30.5426 248.81C30.3808 248.49 30.2197 248.173 30.0537 247.844C29.4469 246.572 29.0242 245.292 28.6409 243.948C28.566 243.691 28.4915 243.435 28.4142 243.169C27.1222 238.61 26.5154 234.201 26.5094 229.46C26.5088 229.253 26.5083 229.046 26.5078 228.835C26.5072 224.456 27.0301 220.35 28.0958 216.092L28.2255 216.09ZM40.9043 221.224C39.398 223.304 38.4199 225.24 38.3957 227.806C38.3932 228.008 38.3907 228.208 38.388 228.416C38.3808 229.078 38.3782 229.742 38.3761 230.403C38.3735 230.865 38.3706 231.327 38.3679 231.789C38.3629 232.756 38.3606 233.722 38.3597 234.691C38.3581 235.929 38.3466 237.167 38.3329 238.405C38.3239 239.36 38.3217 240.314 38.3215 241.265C38.3202 241.721 38.3164 242.177 38.3101 242.636C38.302 243.273 38.3035 243.913 38.3072 244.55C38.3057 244.913 38.3041 245.275 38.3025 245.65C38.4101 246.631 38.4101 246.631 39.2112 247.298C40.0233 247.803 40.4156 247.942 41.3575 247.917C41.5785 247.917 41.7983 247.917 42.0277 247.916C42.9606 247.739 43.4827 247.475 44.2254 246.88C44.4342 245.887 44.4342 245.887 44.3727 244.746C44.369 244.368 44.3651 243.991 44.3613 243.601C44.3476 243.121 44.3337 242.641 44.3196 242.146C44.2729 239.857 44.2729 239.857 44.2254 237.526H54.4891C54.4703 241.844 54.4703 241.844 54.4619 243.172C54.4613 243.526 54.4605 243.879 54.4597 244.241C54.4581 244.601 54.4566 244.963 54.4548 245.334C54.4587 246.331 54.4587 246.331 54.79 247.484H60.8275C60.848 244.742 60.8646 241.989 60.8742 239.241C60.8791 237.966 60.8853 236.692 60.8956 235.406C60.9056 234.174 60.9109 232.942 60.9134 231.722C60.915 231.254 60.9182 230.786 60.9232 230.318C60.9636 226.332 60.6062 223.342 57.8138 220.292C55.6041 218.136 52.8933 218.378 49.9953 218.387C49.621 218.382 49.2495 218.377 48.8631 218.372C45.6935 218.37 43.2182 218.913 40.9239 221.199L40.9043 221.224ZM68.3749 221.828C66.7779 223.79 66.3463 225.663 66.5637 228.169C67.0768 230.675 68.7644 232.517 70.82 233.936C72.6374 234.972 74.6539 235.449 76.6764 235.96C78.4514 236.418 80.0273 236.875 81.1744 238.39C81.4186 239.314 81.3135 239.933 81.0422 240.842C79.9766 241.944 78.8325 242.011 77.3593 242.126C74.1292 241.914 71.7142 240.501 69.3898 238.321C68.6019 237.629 68.3725 237.53 67.2767 237.339C66.0541 237.566 65.556 237.786 64.7469 238.735C64.3063 239.942 64.3063 239.942 64.4451 241.15C66.3378 244.442 69.6373 246.676 73.2901 247.673C77.1842 248.219 80.7463 247.974 84.1877 245.997C85.9416 244.62 87.7197 242.887 87.9913 240.531C88.1776 238.203 87.6683 236.002 86.2374 234.13C83.8406 231.65 80.4113 230.657 77.151 229.872C75.877 229.555 74.9051 229.18 73.8001 228.459H73.1964C73.121 228.027 73.0534 227.592 72.9887 227.157C72.931 226.795 72.931 226.795 72.872 226.423C72.8943 225.741 72.8943 225.741 73.2856 225.219C74.8371 224.065 77.1193 224.358 78.9305 224.533C80.6513 225.101 82.1003 226.04 83.4587 227.251C84.5092 226.792 85.2578 226.17 86.1 225.403C86.3412 225.184 86.583 224.965 86.8307 224.738C87.0126 224.571 87.196 224.403 87.383 224.231C87.1322 222.498 85.6895 221.604 84.3643 220.608C79.3834 217.642 72.7723 217.878 68.3649 221.815L68.3749 221.828ZM96.7512 222.129C96.4403 222.354 96.1292 222.579 95.8093 222.809C93.2132 225.294 91.5227 228.516 91.2509 232.109C91.1504 236.73 92.4856 240.142 95.6282 243.463C98.5745 246.281 101.756 247.48 105.832 247.6C110.541 247.471 113.801 245.725 117.061 242.376C117.916 241.359 118.211 240.818 118.163 239.474C117.877 238.327 117.605 237.931 116.69 237.21C115.83 236.778 115.232 236.814 114.275 236.908C113.4 237.469 112.844 238.007 112.237 238.852C110.852 240.432 108.917 241.322 106.834 241.51C104.147 241.577 102.245 241.051 100.011 239.568C98.2274 237.702 97.4575 235.884 97.3518 233.287C97.4525 230.826 98.0884 228.909 99.8151 227.127C102.143 225.167 104.706 224.907 107.664 225.116C109.668 225.545 111.468 226.662 112.766 228.226C112.872 228.394 112.977 228.561 113.086 228.736C114.362 228.549 115.356 228.099 116.497 227.511L117.475 227.009C117.84 226.818 117.84 226.818 118.214 226.623C117.825 224.379 115.479 222.456 113.686 221.187C108.253 217.986 101.823 218.192 96.7813 222.093L96.7512 222.129Z" fill="white"/>
<path d="M113.355 180.76C113.657 180.977 113.961 181.195 114.272 181.418C116.035 182.711 117.684 184.073 119.314 185.555C119.954 186.144 120.612 186.709 121.276 187.271C125.2 190.683 128.34 195.333 130.876 199.832C131.183 200.382 131.497 200.925 131.811 201.472C138.875 213.943 140.415 230.038 136.672 243.747C132.355 258.694 122.846 271.921 109.141 279.681C108.25 280.161 107.35 280.626 106.442 281.076C106.226 281.184 106.01 281.293 105.787 281.402C92.4136 287.985 76.3236 289.042 62.0147 284.422C53.6226 281.517 46.1664 277.054 39.7363 270.924C39.4382 270.639 39.1387 270.356 38.8368 270.076C27.8787 259.809 22.2941 244.771 21.7205 229.914C21.4437 213.759 27.8787 198.812 38.9877 187.337C39.1683 187.141 39.3499 186.944 39.5341 186.742C47.6244 178.166 59.79 172.852 71.231 171.04C71.4538 171.005 71.6778 170.969 71.9041 170.933C85.9715 168.807 101.639 172.267 113.261 180.716L113.355 180.76ZM40.9047 188.611C40.6661 188.83 40.4277 189.049 40.1831 189.276C29.9194 199.059 24.3951 213.493 23.9423 227.625C23.7446 237.288 26.0011 246.981 30.6439 255.467C30.8295 255.82 31.0153 256.17 31.2054 256.536C33.2672 260.31 35.8543 263.752 38.8127 266.923C39.2323 267.379 39.6307 267.853 40.0141 268.339C40.9017 269.435 41.9371 270.284 43.0207 271.184C43.2563 271.382 43.2563 271.382 43.4978 271.586C46.3082 273.941 49.2031 275.994 52.3729 277.836L52.9253 278.162C61.0458 282.903 70.5851 285.198 79.9432 285.198C80.1506 285.198 80.3566 285.198 80.5711 285.198C95.8761 285.142 109.732 278.736 120.72 268.227C122.474 266.427 124.011 264.483 125.49 262.46C125.616 262.288 125.742 262.115 125.873 261.94C131.337 254.391 134.779 245.694 136.047 236.484C136.077 236.281 136.107 236.077 136.138 235.868C138.01 221.616 133.947 206.668 125.271 195.405C122.952 192.325 122.952 192.325 120.35 189.517H119.747C119.647 189.218 119.547 188.919 119.445 188.611C118.711 187.832 117.857 187.176 117.03 186.497C116.807 186.312 116.807 186.312 116.58 186.123C108.037 179.087 97.8335 174.618 86.8453 173.198C86.5373 173.159 86.2323 173.119 85.9155 173.078C69.1312 171.342 53.313 177.517 40.9361 188.901L40.9047 188.611Z" fill="white"/>
<path d="M161.051 168.078C162.071 168.342 162.071 168.342 162.675 168.947C162.735 169.796 162.757 170.614 162.752 171.463C162.753 171.727 162.754 171.991 162.755 172.263C162.758 173.16 162.757 174.057 162.755 174.95C162.757 175.597 162.758 176.24 162.759 176.886C162.763 178.668 162.763 180.449 162.762 182.231C162.762 184.148 162.766 186.066 162.768 187.968C162.773 191.713 162.775 195.487 162.775 199.232C162.776 202.281 162.777 205.331 162.779 208.381C162.779 209.26 162.78 210.136 162.781 211.014C162.781 211.232 162.781 211.452 162.781 211.675C162.785 217.805 162.787 223.965 162.787 230.095C162.787 230.327 162.787 230.557 162.787 230.796C162.787 231.971 162.787 233.145 162.786 234.329C162.786 234.679 162.786 234.679 162.786 235.036C162.786 235.507 162.786 235.978 162.786 236.452C162.786 243.79 162.791 251.127 162.799 258.465C162.808 266.709 162.813 274.952 162.813 283.196C162.813 284.075 162.813 284.953 162.813 285.829C162.813 286.045 162.813 286.261 162.813 286.484C162.813 289.957 162.816 293.46 162.822 296.932C162.827 300.435 162.827 303.938 162.823 307.441C162.821 309.337 162.821 311.246 162.827 313.148C162.831 314.884 162.831 316.621 162.825 318.342C162.824 318.973 162.825 319.601 162.829 320.232C162.833 321.084 162.83 321.935 162.825 322.787C162.828 323.035 162.831 323.285 162.834 323.538C162.813 325.182 162.813 325.182 162.131 325.954C161.122 326.399 160.401 326.215 159.353 325.944C158.581 324.783 158.665 323.841 158.671 322.501C158.67 322.237 158.669 321.972 158.668 321.702C158.665 320.81 158.666 319.916 158.668 319.026C158.667 318.382 158.666 317.739 158.664 317.099C158.66 315.326 158.66 313.566 158.661 311.784C158.661 309.876 158.658 307.98 158.655 306.047C158.65 302.303 158.648 298.558 158.648 294.814C158.648 291.764 158.646 288.744 158.644 285.694C158.644 284.819 158.643 283.946 158.643 283.07C158.643 282.853 158.642 282.636 158.642 282.412C158.639 276.282 158.636 270.183 158.637 264.053C158.637 263.822 158.637 263.591 158.637 263.355C158.637 262.186 158.637 261.018 158.637 259.852C158.637 259.62 158.637 259.387 158.637 259.149C158.637 258.678 158.637 258.21 158.637 257.739C158.637 250.431 158.633 243.123 158.624 235.816C158.615 227.602 158.61 219.419 158.611 211.206C158.611 210.33 158.611 209.457 158.611 208.581C158.611 208.366 158.611 208.15 158.611 207.929C158.611 204.457 158.607 200.984 158.602 197.511C158.597 194.039 158.596 190.536 158.6 187.063C158.602 185.173 158.602 183.289 158.597 181.386C158.592 179.659 158.593 177.944 158.598 176.193C158.599 175.565 158.598 174.939 158.595 174.311C158.59 173.463 158.593 172.614 158.599 171.766C158.595 171.519 158.592 171.274 158.589 171.02C158.603 169.945 158.664 169.308 159.293 168.42C159.957 167.979 159.957 167.979 161.05 168.018L161.051 168.078Z" fill="white"/>
<path d="M58.7147 186.196C59.1705 186.288 59.6265 186.379 60.0823 186.469C64.0368 187.278 64.0368 187.278 64.7613 188.006C64.4082 188.156 64.055 188.306 63.6896 188.459C57.5314 191.107 51.4939 194.71 48.4751 200.991C46.8149 205.248 46.9658 208.087 46.9658 213.069H28.2495C27.7182 212.006 28.3558 210.814 28.6963 209.718C31.715 200.628 38.5374 193.109 47.0202 188.821C50.5823 187.097 54.7783 185.228 58.763 186.17L58.7147 186.196Z" fill="white"/>
<path d="M81.9597 185.29C82.2737 185.355 82.2737 185.355 82.5907 185.422C86.6962 186.316 90.4394 187.832 93.7298 190.434C93.9781 190.62 94.2249 190.806 94.4815 190.996C97.138 193.264 99.2511 196.703 99.5229 200.267C99.5772 203.437 98.8617 205.189 96.6581 207.514C93.5186 210.364 88.6886 212.798 84.3717 212.798C84.4151 212.574 84.4589 212.351 84.504 212.119C85.476 206.593 85.3642 201.308 82.2671 196.416C77.6483 190.105 69.7091 187.207 62.2527 185.999C61.2777 185.857 60.3057 185.728 59.3276 185.621C59.4271 185.422 59.5268 185.223 59.6295 185.017C66.6027 183.577 75.0552 183.855 81.9683 185.319L81.9597 185.29Z" fill="white"/>
<path d="M120.6 183.176C121.348 183.861 122.082 184.559 122.815 185.26C123.073 185.501 123.332 185.743 123.597 185.993C125.674 187.995 127.431 190.191 129.152 192.516C129.273 192.679 129.394 192.842 129.52 193.011C135.527 201.224 139.029 210.585 140.629 220.611C140.679 220.925 140.679 220.925 140.731 221.245C141.639 228.009 141.247 235.437 139.722 242.05C139.63 242.452 139.63 242.452 139.536 242.859C136.185 256.78 127.793 270.097 115.869 278.19C115.669 278.328 115.468 278.467 115.262 278.609C102.161 287.547 85.739 291.473 69.9811 288.755C57.5136 286.321 46.465 280.663 37.3786 271.845C37.1528 271.631 36.9257 271.416 36.6934 271.199C26.0674 260.932 19.7884 245.441 19.5167 230.736C19.4255 218.023 22.4056 205.823 29.5389 195.104C29.7379 194.805 29.7379 194.805 29.9404 194.5C31.4468 192.277 33.0497 190.242 34.8912 188.279C35.4859 187.645 36.0443 186.999 36.6028 186.331C40.9801 181.349 46.625 177.544 52.4814 174.555C52.6907 174.447 52.901 174.339 53.1154 174.229C74.8202 163.086 102.623 166.77 120.735 183.046L120.6 183.176ZM65.0545 170.977C64.6198 171.092 64.6198 171.092 64.179 171.211C56.8435 173.243 50.1117 176.737 44.044 181.326C43.6274 181.634 43.6274 181.634 43.2019 181.945C38.553 185.539 34.3267 190.008 31.0665 194.9C30.8523 195.22 30.6377 195.54 30.4173 195.869C29.7986 196.838 29.2159 197.823 28.6515 198.825C28.5339 199.032 28.4166 199.239 28.2952 199.45C23.1935 208.509 20.6578 218.263 20.7182 228.62C20.7187 228.873 20.7192 229.125 20.7198 229.387C20.7336 233.162 20.888 236.816 21.719 240.5L21.8712 241.224C24.739 254.752 32.316 266.952 43.1534 275.648C43.4374 275.884 43.7209 276.119 44.0136 276.364C55.6963 285.816 71.6654 289.892 86.578 288.413C98.3511 287.063 109.702 282.524 118.577 274.764C118.812 274.561 119.048 274.359 119.289 274.151C131.334 263.552 138.821 249.057 139.968 233.083C140.867 217.079 135.651 201.377 124.995 189.298C116.27 179.575 105.071 173.173 92.3922 170.305C92.1679 170.251 91.9423 170.198 91.7129 170.143C87.9697 169.285 84.1359 169.307 80.302 169.285C79.9218 169.282 79.9218 169.282 79.5323 169.278C74.6117 169.243 69.8723 169.84 65.1027 171.117L65.0545 170.977Z" fill="white"/>
<path d="M74.4127 191.329C75.2669 191.897 76.0368 192.482 76.8277 193.141C75.9734 193.711 75.2127 194.047 74.2618 194.424C69.4922 196.399 65.5979 198.923 63.1225 203.574C61.8878 206.572 62.2472 209.885 62.3317 213.055C60.5325 213.063 58.7393 213.068 56.9281 213.072C56.3153 213.073 55.7025 213.076 55.0896 213.078C54.2112 213.082 53.3328 213.083 52.4544 213.085C52.0408 213.087 52.0408 213.087 51.6181 213.09C50.963 213.09 50.305 213.074 49.6499 213.055C48.9164 212.322 49.2545 210.223 49.2514 209.19C49.3353 203.302 51.6091 198.32 55.8323 194.213C61.6887 189.079 67.6357 187.358 74.3977 191.317L74.4127 191.329Z" fill="white"/>
<path d="M27.0177 214.58H133.278C136.248 222.009 136.028 232.517 134.183 240.247C134.133 240.475 134.083 240.7 134.031 240.936C133.162 244.831 131.761 248.274 130.258 252.018H30.3371C29.3047 249.956 28.4323 248.062 27.753 245.918C27.6634 245.635 27.574 245.351 27.4817 245.061C24.4026 234.885 24.7315 224.859 27.0168 214.562L27.0177 214.58ZM27.6215 215.486C27.4267 216.335 27.232 217.183 27.0419 218.035C26.9875 218.271 26.9329 218.509 26.877 218.751C24.5103 229.259 25.8597 240.673 30.409 250.457C30.8739 251.227 30.8739 251.227 31.6829 251.348C31.9823 251.347 32.2807 251.347 32.5916 251.346C33.1108 251.35 33.1108 251.35 33.639 251.355C34.0195 251.351 34.4028 251.346 34.7952 251.342C35.2028 251.342 35.6103 251.344 36.0178 251.346C37.1408 251.349 38.2638 251.343 39.3988 251.335C40.6094 251.329 41.8199 251.331 43.0213 251.332C45.1193 251.333 47.2175 251.328 49.3306 251.32C52.3493 251.308 55.3982 251.304 58.4169 251.302C63.3376 251.298 68.2581 251.288 73.1787 251.274C77.9483 251.26 82.7481 251.25 87.5177 251.243C87.8123 251.243 88.1063 251.242 88.4112 251.242C89.8905 251.24 91.3666 251.238 92.8489 251.236C105.105 251.22 117.391 251.194 129.678 251.16C130.064 250.263 130.447 249.366 130.831 248.469C130.939 248.22 131.047 247.971 131.157 247.711C132.268 245.103 133.01 242.457 133.599 239.679L133.749 238.985C135.204 231.919 135.24 223.886 133.127 216.941C133.045 216.673 132.964 216.404 132.88 216.126C132.787 215.821 132.787 215.821 132.692 215.51C101.297 215.26 101.297 215.26 70.2037 215.172H69.2376C55.3816 215.174 41.5557 215.319 27.5788 215.51L27.6215 215.486Z" fill="white"/>
<path d="M104.6 189.517C107.526 192.331 109.46 195.526 109.642 199.693C109.466 202.985 107.951 205.31 105.566 207.514C102.979 209.649 99.5589 211.712 96.2082 212.346C95.9094 212.246 95.6104 212.147 95.3026 212.044C95.4523 211.923 95.6024 211.802 95.7553 211.678C98.8344 209.115 101.008 206.152 101.4 202.076C101.493 198.06 100.006 194.195 97.2647 191.296C92.1027 186.676 84.8274 184.803 78.0957 183.988V183.686C86.6387 182.536 97.8383 183.743 104.6 189.544V189.517Z" fill="white"/>
<path d="M78.0348 194.651C79.7887 195.771 81.0838 197.7 81.9591 199.573C81.6181 200.596 81.3736 200.759 80.5435 201.403C78.2824 203.332 77.1625 205.781 76.5284 208.619C76.4288 210.015 76.3293 211.41 76.2266 212.847H64.4534C63.584 209.375 64.1033 205.811 65.8028 202.671C67.5416 200.007 74.2553 193.28 78.0288 194.638L78.0348 194.651Z" fill="white"/>
<path d="M103.694 187.403C108.705 188.119 113.445 191.329 116.464 195.345C118.181 198.054 118.93 200.811 118.495 204.012C117.91 206.37 116.409 208.209 114.36 209.477C111.468 211.117 107.99 212.919 104.609 212.769C104.873 212.415 105.137 212.065 105.4 211.712C105.566 211.489 105.732 211.268 105.901 211.038C106.221 210.616 106.544 210.196 106.876 209.782C109.81 206.098 111.102 202.082 110.65 197.371C109.865 193.597 107.329 190.879 104.612 188.312C104.31 188.011 104.008 187.708 103.706 187.406L103.694 187.403Z" fill="white"/>
<path d="M84.0723 300.339H86.1854C87.3959 302.918 88.4645 305.533 89.506 308.19C90.5535 306.218 91.429 304.204 92.2319 302.12C92.7965 300.665 92.7964 300.665 93.1285 300.333H95.2416V311.505H93.1285C93.0289 309.811 92.9292 308.123 92.8266 306.372C92.244 307.948 92.244 307.948 91.6613 309.512C91.0486 311.158 91.0486 311.158 90.7135 311.493C90.0101 311.506 89.3038 311.506 88.6004 311.493C88.4178 311.086 88.2351 310.675 88.054 310.267C87.9525 310.04 87.8508 309.811 87.7461 309.576C87.3204 308.606 86.9038 307.634 86.4873 306.662C86.3876 308.256 86.2881 309.863 86.1854 311.493H84.0723V300.321V300.339Z" fill="white"/>
<path d="M96.4494 315.135H98.8644C99.8605 317.726 100.857 320.329 101.883 322.987C102.846 321.084 102.846 321.084 103.67 319.151C103.807 318.795 103.807 318.795 103.947 318.432C104.038 318.194 104.129 317.955 104.222 317.708C104.317 317.46 104.413 317.213 104.511 316.956C104.743 316.352 104.973 315.748 105.202 315.141H107.617V326.012H105.504C105.404 324.417 105.305 322.811 105.202 321.18C104.619 322.656 104.619 322.656 104.037 324.133C103.424 325.677 103.424 325.677 103.089 326.012H100.674C100.076 324.417 99.4786 322.811 98.8628 321.18C98.7631 322.776 98.6636 324.382 98.5609 326.012H96.4478V315.141L96.4494 315.135Z" fill="white"/>
<path d="M116.071 192.839C119.633 194.113 123.92 197.429 125.641 200.871C126.323 202.746 126.338 204.464 125.603 206.337C123.261 209.779 119.113 211.772 115.158 212.799C115.357 212.612 115.557 212.424 115.762 212.231C118.609 209.353 120.381 206.614 120.592 202.508C120.559 199.005 118.811 196.136 116.456 193.63C116.058 193.189 116.058 193.189 116.058 192.887L116.071 192.839Z" fill="white"/>
<path d="M52.3756 224.243C53.2963 224.817 53.9695 225.484 54.4858 226.43C54.6587 227.335 54.6304 228.193 54.58 229.111C54.5489 229.92 54.5177 230.73 54.4858 231.563H44.5239C44.2221 227.335 44.2221 227.335 44.6181 226.097C46.8127 223.697 49.3575 223.22 52.3762 224.231L52.3756 224.243Z" fill="white"/>
<path d="M108.223 300.339C110.638 300.339 110.638 300.339 111.332 300.949C111.509 301.227 111.685 301.504 111.869 301.791C112.066 302.091 112.262 302.392 112.464 302.7C112.66 303.017 112.856 303.334 113.056 303.66C113.261 303.977 113.466 304.294 113.677 304.621C114.182 305.403 114.677 306.191 115.169 306.982C115.268 304.79 115.368 302.603 115.471 300.339H117.584V311.511C115.169 311.511 115.169 311.511 114.505 310.929C114.258 310.53 114.258 310.53 114.007 310.122C113.824 309.836 113.641 309.552 113.451 309.256C113.179 308.803 113.179 308.803 112.902 308.338C112.616 307.885 112.616 307.885 112.325 307.42C111.857 306.674 111.398 305.919 110.94 305.167C110.84 307.26 110.74 309.364 110.638 311.508H108.223V300.336V300.339Z" fill="white"/>
<path d="M69.5828 300.943C70.9381 301.99 71.6114 303.144 71.9706 304.808C72.1728 306.695 71.8309 308.371 70.6393 309.881C69.2809 311.197 67.8137 311.717 65.93 311.762C64.0312 311.518 62.9113 310.744 61.7341 309.262C60.7318 307.689 60.9824 305.699 61.1031 303.917C61.6103 302.338 62.4645 301.534 63.82 300.595C65.7731 299.732 67.7444 299.898 69.5857 300.958L69.5828 300.943ZM63.8169 303.6C63.2222 304.79 63.3763 306.23 63.515 307.525C64.0584 308.431 64.3906 308.869 65.3263 309.337C66.5127 309.449 67.2282 309.449 68.2877 308.884C69.1602 307.888 69.4529 307.03 69.5525 305.714C69.3639 304.454 69.1389 303.811 68.2877 302.863C66.5127 301.876 65.2086 302.199 63.82 303.6H63.8169Z" fill="white"/>
<path d="M75.9219 315.135C76.8668 315.104 77.8146 315.073 78.7898 315.041C79.2304 315.02 79.2304 315.02 79.6772 314.999C81.5941 314.969 82.9374 315.358 84.3864 316.645C85.4793 318.103 85.7902 319.526 85.7116 321.326C85.4566 322.95 84.797 324.095 83.6137 325.22C82.5662 325.894 81.7813 326.033 80.5648 326.023C80.3217 326.023 80.0787 326.022 79.8282 326.022C79.3663 326.017 79.3663 326.017 78.8984 326.014C77.4313 326.004 77.4312 326.004 75.937 325.994V315.124L75.9219 315.135ZM78.3369 317.249V323.891C81.1534 324.199 81.1534 324.199 82.2915 323.174C83.2121 321.922 83.2817 321.226 83.1789 319.671C82.6446 318.254 82.4544 317.949 81.0658 317.255H78.3489L78.3369 317.249Z" fill="white"/>
<path d="M73.5067 300.339C74.4154 300.32 75.3241 300.301 76.2598 300.282C76.5427 300.274 76.8244 300.265 77.1171 300.257C78.6627 300.242 79.7133 300.386 81.0415 301.244C81.9532 302.156 82.1978 302.984 82.249 304.264C81.8657 305.363 81.5638 306.157 80.7396 306.982C80.8589 308.093 81.2378 309.068 81.6634 310.092C81.7728 310.359 81.8819 310.626 81.9954 310.901C82.0791 311.102 82.1627 311.303 82.249 311.508H79.5321C79.2792 310.968 79.028 310.427 78.7775 309.884C78.6375 309.582 78.4974 309.28 78.3518 308.972C78.0228 308.187 78.0228 308.187 78.0228 307.583H75.9096V311.508H73.4946V300.335L73.5067 300.339ZM75.9217 302.452V305.472C76.6493 305.491 76.6493 305.491 77.3949 305.51C77.6681 305.517 77.9413 305.524 78.2221 305.531C78.9979 305.546 78.9979 305.546 79.5442 304.867C79.6448 303.961 79.6448 303.961 79.5442 303.055C78.9979 302.379 78.9979 302.379 78.2221 302.391C77.9489 302.398 77.6756 302.405 77.3949 302.412C76.909 302.424 76.4229 302.437 75.9217 302.45V302.452Z" fill="white"/>
<path d="M42.7154 300.339C48.783 300.339 48.783 300.339 50.5038 301.67C51.198 302.603 51.2011 303.736 51.1618 304.871C50.7664 305.72 50.7664 305.72 50.2562 306.381C49.8397 306.894 49.8397 306.894 49.6524 307.589C49.9097 308.595 49.9097 308.595 50.371 309.627C50.5891 310.159 50.5891 310.159 50.8116 310.699C50.9276 310.968 51.0435 311.237 51.1618 311.514H48.4449C48.3604 311.256 48.2762 310.998 48.189 310.732C47.6366 308.887 47.6366 308.887 46.3656 307.592C45.7226 307.496 45.7226 307.496 44.8231 307.598V311.523H42.71V300.351L42.7154 300.339ZM44.8286 302.452V305.472C45.3085 305.497 45.7884 305.522 46.2805 305.548C46.6851 305.569 46.6851 305.569 47.0987 305.59C47.8895 305.54 47.8895 305.54 48.4118 304.914C48.8495 304.259 48.8495 304.259 48.5261 303.452C48.2092 302.785 48.2092 302.785 47.847 302.453C46.8386 302.409 45.8367 302.44 44.8286 302.452Z" fill="white"/>
<path d="M128.75 301.547C129.499 302.247 129.653 302.516 129.94 303.546C129.946 303.807 129.952 304.068 129.959 304.337C128.383 304.47 128.383 304.47 127.544 304.337C127.033 303.838 126.532 303.337 126.034 302.827C124.86 302.703 123.84 302.768 122.714 303.129C121.989 305.134 122.037 306.843 122.714 308.866C123.83 309.238 124.875 309.383 126.034 309.168C126.283 308.919 126.532 308.67 126.789 308.413C127.544 307.658 127.544 307.658 128.171 307.559C128.769 307.564 129.364 307.609 129.959 307.659C129.936 308.586 129.842 309.247 129.24 309.972C127.894 311.195 126.623 311.871 124.742 311.893C123.16 311.789 122.116 311.43 120.878 310.374C119.468 308.544 119.106 306.901 119.369 304.636C119.864 302.957 120.513 301.586 122.086 300.711C124.467 299.823 126.674 299.959 128.727 301.541L128.75 301.547Z" fill="white"/>
<path d="M61.7336 315.437C62.9833 316.144 63.4603 316.989 64.0338 318.288V318.891C62.4399 318.998 62.4399 318.998 61.6188 318.891C61.2052 318.502 60.8008 318.097 60.4113 317.683C59.2341 317.364 58.582 317.261 57.4499 317.74C56.7315 318.335 56.4507 318.604 56.1851 319.495C56.0577 321.098 56.0278 322.127 57.0907 323.42C57.8967 324.054 58.3103 324.024 59.3548 323.988C60.4264 323.822 60.4264 323.822 60.997 323.1C61.7305 322.411 61.9328 322.435 62.9018 322.438C63.2762 322.464 63.6474 322.488 64.0338 322.514C63.6564 324.278 62.76 325.151 61.3169 326.138C59.5812 326.718 57.7548 326.709 56.0643 325.949C54.6546 325.149 53.9663 324.035 53.4622 322.506C53.1757 318.702 53.1757 318.702 54.3679 317.071C56.4628 314.976 58.8657 314.176 61.7336 315.429V315.437Z" fill="white"/>
<path d="M23.6976 300.339C24.6063 300.314 25.5149 300.289 26.4507 300.263C26.7336 300.252 27.0153 300.241 27.308 300.23C28.9715 300.208 29.9403 300.411 31.2324 301.546C32.0082 302.782 32.2286 303.66 31.9871 305.08C31.6429 306.333 31.1751 306.931 30.0249 307.589C29.1254 307.873 28.3223 307.924 27.3835 307.909C26.7497 307.9 26.7497 307.9 26.1005 307.89V311.514H23.6855V300.341L23.6976 300.339ZM26.1126 302.452V305.774C26.6832 305.793 26.6832 305.793 27.2628 305.812C27.4766 305.819 27.6915 305.826 27.9089 305.833C28.6213 305.814 28.6213 305.814 29.4303 305.169C29.556 304.112 29.556 304.112 29.4303 303.055C28.8898 302.388 28.8898 302.388 28.1745 302.391L26.1097 302.45L26.1126 302.452Z" fill="white"/>
<path d="M131.769 300.339H138.712V302.452H134.184V304.868H138.108V306.982H134.184V309.398H138.712V311.511H131.769V300.339Z" fill="white"/>
<path d="M101.28 300.339C101.899 300.349 102.517 300.358 103.136 300.368C103.655 301.815 104.169 303.258 104.685 304.717C104.86 305.209 105.035 305.701 105.213 306.193C105.466 306.9 105.717 307.606 105.968 308.313C106.047 308.533 106.126 308.754 106.208 308.98C106.525 309.877 106.76 310.596 106.76 311.553H104.345C104.146 310.756 103.947 309.959 103.741 309.137H99.8171C99.7174 309.735 99.6178 310.333 99.5152 310.949C99.4156 311.148 99.3159 311.348 99.2133 311.553H96.7983C97.4291 309.071 98.2232 306.661 99.0986 304.276C99.2831 303.762 99.2831 303.762 99.4698 303.237C100.496 300.398 100.496 300.398 101.278 300.356L101.28 300.339ZM101.627 303.992C101.474 304.376 101.325 304.759 101.174 305.143C101.09 305.357 101.006 305.572 100.919 305.789C100.675 306.441 100.675 306.441 100.721 307.311H102.834C102.693 306.085 102.569 305.055 101.929 303.989H101.627V303.992Z" fill="white"/>
<path d="M68.073 315.135H70.7899C71.3062 316.584 71.8224 318.037 72.3386 319.483C72.5141 319.979 72.6887 320.471 72.8668 320.966C73.1196 321.676 73.3711 322.385 73.6216 323.092C73.7006 323.313 73.78 323.535 73.8616 323.762C74.414 325.327 74.414 325.327 74.414 325.999H71.999C71.7997 325.303 71.6005 324.604 71.3953 323.887H67.4709C67.1721 324.93 67.1721 324.93 66.8671 325.999H64.4521C65.0831 323.509 65.886 321.108 66.7736 318.692C66.962 318.176 66.962 318.176 67.1539 317.647C67.4588 316.808 67.7667 315.966 68.0746 315.126L68.073 315.135ZM69.2805 318.457C69.1279 318.84 68.9787 319.224 68.8278 319.607C68.7439 319.821 68.6597 320.036 68.5729 320.253C68.3289 320.906 68.3289 320.906 68.3749 321.776H70.488C70.403 321.334 70.3142 320.893 70.224 320.453C70.1503 320.084 70.1503 320.084 70.0754 319.71C69.9249 319 69.9249 319 69.2815 318.454L69.2805 318.457Z" fill="white"/>
<path d="M46.9417 315.135H49.6586C50.1749 316.584 50.6911 318.037 51.2072 319.483C51.3827 319.979 51.5574 320.471 51.7355 320.966C51.9882 321.676 52.2397 322.385 52.4902 323.092C52.5693 323.313 52.6487 323.535 52.7303 323.762C53.2827 325.327 53.2827 325.327 53.2827 325.999H50.8677C50.6684 325.303 50.4692 324.604 50.2639 323.887H46.3396C46.0407 324.93 46.0407 324.93 45.7358 325.999H43.3208C44.0121 323.593 44.815 321.229 45.6423 318.873C45.8306 318.333 45.8306 318.333 46.0225 317.78C46.3305 316.899 46.6353 316.017 46.9433 315.138L46.9417 315.135ZM48.1492 318.457C47.9966 318.84 47.8473 319.224 47.6965 319.607C47.6126 319.821 47.5284 320.036 47.4416 320.253C47.1975 320.906 47.1975 320.906 47.2436 321.776H49.3567C49.2717 321.334 49.1828 320.893 49.0927 320.453C49.0189 320.084 49.0189 320.084 48.944 319.71C48.7935 319 48.7935 319 48.1502 318.454L48.1492 318.457Z" fill="white"/>
<path d="M33.6592 300.339H40.6023V302.452C39.1081 302.552 37.6137 302.652 36.0742 302.754C35.9745 303.452 35.875 304.15 35.7723 304.868H39.9986V306.982H35.7723V309.398H40.6023V311.511H33.6592V300.339Z" fill="white"/>
<path d="M87.3931 315.135H94.3362V317.249H89.5062V319.363H93.7324V321.476C91.7884 321.626 91.7884 321.626 89.8081 321.779C89.7084 322.476 89.6089 323.174 89.5062 323.891H94.3362V326.006H87.3931V315.135Z" fill="white"/>
<path d="M52.9795 300.339H59.9226V302.452H55.3945V304.868C55.6526 304.865 55.9107 304.861 56.1763 304.858C56.5085 304.855 56.8435 304.852 57.1876 304.849C57.5197 304.846 57.8518 304.842 58.1959 304.839C59.017 304.868 59.017 304.868 59.3189 305.171V306.983H55.3945V311.512H52.9795V300.339Z" fill="white"/>
<path d="M109.128 315.135H111.845C112.542 316.431 113.24 317.726 113.958 319.061C114.245 318.58 114.532 318.1 114.828 317.608C115.329 316.772 115.833 315.947 116.373 315.135C116.962 315.047 116.962 315.047 117.617 315.078C118.003 315.097 118.39 315.116 118.788 315.135L116.989 318.728C116.832 319.046 116.832 319.046 116.672 319.369C116.412 319.882 116.135 320.386 115.854 320.887C115.389 321.953 115.314 322.842 115.259 323.998C115.239 324.375 115.22 324.749 115.199 325.136C115.188 325.42 115.177 325.704 115.165 325.998H112.75C112.767 325.739 112.784 325.483 112.801 325.217C112.82 321.564 111.319 319.027 109.42 315.947C109.12 315.431 109.12 315.431 109.12 315.129L109.128 315.135Z" fill="white"/>
<path d="M90.7139 255.346C91.4625 255.495 91.4625 255.495 92.2232 255.648C92.6217 256.844 93.0202 258.039 93.4307 259.271C93.5304 257.976 93.6299 256.68 93.7326 255.346H94.9401V264.103H93.7326C93.2345 262.708 92.7365 261.313 92.2232 259.875C92.1236 261.27 92.0241 262.665 91.9214 264.103H90.7139V255.346Z" fill="white"/>
<path d="M65.9598 255.346H68.3748C68.527 256.578 68.6767 257.813 68.8276 259.03C68.8709 259.38 68.914 259.73 68.9586 260.09C68.9993 260.428 69.0404 260.763 69.0824 261.11C69.1204 261.421 69.1582 261.729 69.1974 262.049C69.2804 262.88 69.2804 262.88 69.2804 264.088H68.0729C67.8738 263.49 67.6745 262.892 67.4692 262.276H66.2617V264.088H65.0542C65.1981 261.134 65.4466 258.26 65.9598 255.331V255.346ZM66.8654 257.157C66.7658 258.453 66.6663 259.748 66.5636 261.083H67.4692C67.4855 260.542 67.4972 260.002 67.5069 259.458C67.514 259.157 67.5209 258.855 67.5281 258.547C67.5513 257.713 67.5528 257.713 66.8654 257.157Z" fill="white"/>
<path d="M84.3742 255.346H86.7892C86.9425 256.409 87.0911 257.472 87.242 258.547C87.2851 258.846 87.3284 259.144 87.373 259.452C87.5921 261.023 87.7473 262.532 87.696 264.103H86.4885C86.2893 263.505 86.09 262.907 85.8847 262.291H85.281C85.0818 262.889 84.8825 263.487 84.6772 264.103H83.4697C83.6422 261.155 83.9547 258.275 84.3742 255.346ZM85.5817 257.157C85.0564 257.683 85.1681 258.423 85.1108 259.138C85.0855 259.443 85.0601 259.748 85.0342 260.065C85.0158 260.302 84.9976 260.537 84.9786 260.781C85.3771 260.881 85.7756 260.98 86.1861 261.083C86.0865 259.788 85.9868 258.492 85.8842 257.157H85.5817Z" fill="white"/>
<path d="M67.4696 265.914H68.6771C68.7767 268.206 68.8762 270.504 68.9789 272.86C69.3774 272.959 69.7759 273.059 70.1864 273.162C70.2861 270.77 70.3856 268.391 70.4883 265.914H71.6958C71.7222 266.99 71.7383 268.065 71.7525 269.145C71.7639 269.602 71.7639 269.602 71.7755 270.067C71.8042 272.962 71.8042 272.962 70.7915 274.083C69.753 274.403 69.753 274.403 68.6783 274.385C67.8482 273.763 67.5101 273.406 67.335 272.374C67.3412 272.076 67.3477 271.779 67.3541 271.474C67.358 271.151 67.3618 270.827 67.3659 270.495C67.376 270.16 67.3862 269.825 67.3968 269.478C67.4021 269.136 67.4076 268.798 67.4132 268.448C67.4275 267.608 67.4473 266.769 67.4721 265.93L67.4696 265.914Z" fill="white"/>
<path d="M97.9583 265.915C98.6466 266.407 98.8398 266.678 98.9847 267.518C98.9944 268.394 99.001 269.266 98.9949 270.142C99.0008 270.447 99.0069 270.752 99.0131 271.066C99.0129 271.359 99.0127 271.652 99.0126 271.954C99.0131 272.222 99.0137 272.488 99.0142 272.766C98.8627 273.464 98.8627 273.464 98.3169 274.013C97.3147 274.551 96.6174 274.345 95.5396 274.068C94.6612 272.748 94.8362 271.543 94.8423 269.991C94.8374 269.7 94.8325 269.408 94.8275 269.109C94.8274 268.83 94.8272 268.551 94.8269 268.264C94.8261 268.009 94.8251 267.753 94.8243 267.491C95.1201 265.724 96.4031 265.748 97.9638 265.915H97.9583ZM96.449 266.82C96.0867 267.118 96.0867 267.118 96.1139 267.684C96.1155 267.923 96.1171 268.161 96.1188 268.409C96.1197 268.667 96.1207 268.925 96.1217 269.191C96.1242 269.462 96.1268 269.734 96.1294 270.012C96.1307 270.285 96.1321 270.556 96.1334 270.837C96.137 271.513 96.1419 272.186 96.1482 272.863C96.6464 272.962 97.1443 273.062 97.6576 273.165C98.0078 272.117 98.0108 271.268 98.0168 270.163C98.0211 269.792 98.0253 269.423 98.0298 269.043C97.9651 268.107 97.8516 267.606 97.3565 266.823H96.4509L96.449 266.82Z" fill="white"/>
<path d="M73.8086 265.914C76.5255 265.914 76.5255 265.914 77.3103 266.349C78.0379 267.648 77.9413 269.091 77.5684 270.516C77.5267 270.694 77.4852 270.873 77.4422 271.054C77.5419 271.154 77.6415 271.253 77.7441 271.356C77.7658 271.815 77.7695 272.274 77.7631 272.733C77.7603 272.982 77.7576 273.231 77.7547 273.488C77.7513 273.68 77.7478 273.874 77.7441 274.071H76.5366V271.353H75.0272C74.9277 272.25 74.828 273.147 74.7253 274.071H73.8197V265.917L73.8086 265.914ZM75.0161 266.82C74.6448 267.125 74.6448 267.125 74.6841 267.747C74.6875 267.996 74.691 268.246 74.6947 268.502C74.6973 268.752 74.7001 269.001 74.7029 269.257C74.7063 269.45 74.7099 269.644 74.7136 269.84C75.6342 270.145 75.6342 270.145 76.5248 269.84V267.122C76.0236 267.007 75.5232 266.907 75.0161 266.82Z" fill="white"/>
<path d="M74.1106 255.346C74.9076 255.367 75.2548 255.389 75.9401 255.817C76.2419 256.345 76.2419 256.345 76.2419 257.553C75.0344 257.553 75.0344 257.553 74.5453 257.1C74.4083 256.951 74.2716 256.801 74.1288 256.647H73.5251C73.8421 258.314 73.8421 258.314 75.0525 259.48C75.9822 260.31 76.1001 260.485 76.2782 261.651C76.3216 262.614 76.2839 262.919 75.7679 263.765C74.8322 264.317 74.2917 264.359 73.2201 264.199C72.6526 263.822 72.6526 263.822 72.3145 263.293V262.086H73.522C73.6217 262.285 73.7213 262.484 73.8239 262.69H74.7295C74.6878 261.793 74.6513 261.113 74.014 260.443C73.5552 260.075 73.0842 259.721 72.6164 259.368C72.2602 258.658 72.2631 258.196 72.2572 257.405C72.2528 257.165 72.2486 256.925 72.2441 256.677C72.3815 255.43 72.9324 255.439 74.1067 255.346H74.1106Z" fill="white"/>
<path d="M64.4507 265.915C65.3563 266.519 65.3563 266.519 65.5645 267.31C65.5956 267.546 65.6268 267.784 65.6587 268.028H64.4512C64.252 267.729 64.0527 267.431 63.8474 267.123C63.5486 267.023 63.2498 266.923 62.9418 266.82V269.236C63.277 269.367 63.6151 269.498 63.9622 269.632C65.0549 270.142 65.0549 270.142 65.6587 271.048C65.6835 271.709 65.6835 271.709 65.602 272.425C65.579 272.662 65.5561 272.899 65.5326 273.144C65.3568 273.766 65.3568 273.766 64.4518 274.37C63.3953 274.483 63.3953 274.483 62.3387 274.37C61.7531 273.823 61.7531 273.823 61.4331 273.162V272.256H62.6406C62.8399 272.555 63.039 272.854 63.2443 273.162C63.5431 273.062 63.8421 272.962 64.1499 272.86V271.35C63.7304 271.154 63.7304 271.154 63.3016 270.954C61.8285 270.175 61.8285 270.175 61.4331 269.538C61.3157 268.306 61.2722 267.5 61.7531 266.367C62.6467 265.676 63.3549 265.797 64.4507 265.915Z" fill="white"/>
<path d="M91.9214 265.914C92.5071 266.235 92.5071 266.235 92.827 266.82C92.8838 267.935 92.8838 267.935 92.827 268.934H91.9214C91.7222 268.336 91.5229 267.739 91.3176 267.122H90.412V272.86C90.8105 272.96 91.2089 273.059 91.6195 273.162C91.7192 272.464 91.8188 271.767 91.9214 271.048H92.827C92.9729 273.27 92.9729 273.27 92.3561 274.098C91.3026 274.502 90.5872 274.359 89.5064 274.079C88.628 272.759 88.8031 271.555 88.8091 270.002C88.8042 269.712 88.7994 269.42 88.7944 269.121C88.7941 268.842 88.7939 268.562 88.7938 268.275C88.7928 268.02 88.792 267.765 88.791 267.502C89.0868 265.736 90.3698 265.76 91.9305 265.926L91.9214 265.914Z" fill="white"/>
<path d="M79.8462 265.914H83.4687V267.122H81.0537V269.538H83.4687V270.444H81.0537V274.068H79.8462V265.914Z" fill="white"/>
<path d="M79.2427 255.346H80.4502V264.103H79.2427V255.346Z" fill="white"/>
<path d="M98.5627 258.667C99.3536 258.781 99.3536 258.781 100.072 258.969C100.261 259.537 100.261 259.537 100.374 260.177C100.175 260.376 99.9755 260.576 99.7702 260.781C98.9794 260.668 98.9794 260.668 98.2609 260.479C98.0722 259.911 98.0722 259.911 97.959 259.271C98.1583 259.072 98.3575 258.873 98.5627 258.667Z" fill="white"/>
<path d="M60.8284 258.365C61.4683 258.479 61.4683 258.479 62.0359 258.667C62.2246 259.386 62.2246 259.386 62.3377 260.177C62.1386 260.376 61.9393 260.576 61.734 260.781C61.094 260.668 61.094 260.668 60.5265 260.479C60.3378 259.76 60.3378 259.76 60.2246 258.969C60.4239 258.77 60.6231 258.571 60.8284 258.365Z" fill="white"/>
<path d="M77.7329 280.107H79.2423C78.8438 280.207 78.4453 280.306 78.0348 280.409V281.315C78.6326 281.464 78.6326 281.464 79.2423 281.617H78.0348V282.825C78.6326 282.974 78.6326 282.974 79.2423 283.127H77.7329V280.107Z" fill="white"/>
<path d="M93.7324 279.201C93.8321 279.5 93.9316 279.799 94.0343 280.107C94.2334 280.207 94.4328 280.306 94.638 280.409C94.3392 280.859 94.3392 280.859 94.0343 281.315V280.711H92.5249C92.9234 280.611 93.3219 280.511 93.7324 280.409V279.201Z" fill="white"/>
<path d="M71.9973 280.711C72.186 281.279 72.186 281.279 72.2992 281.919C72.0999 282.118 71.9007 282.317 71.6954 282.523C71.5067 281.955 71.5067 281.955 71.3936 281.315C71.5929 281.116 71.792 280.916 71.9973 280.711Z" fill="white"/>
<path d="M70.4881 279.201C70.5877 279.4 70.6872 279.6 70.7899 279.805C70.5067 280.445 70.5067 280.445 70.1862 281.013C70.1733 280.509 70.1739 280.007 70.1862 279.503C70.2858 279.403 70.3853 279.304 70.4881 279.201Z" fill="white"/>
<path d="M83.1671 282.221C83.3664 282.52 83.5656 282.819 83.7709 283.127H82.8652C82.9649 282.828 83.0646 282.529 83.1671 282.221Z" fill="white"/>
<path d="M65.9601 279.805L66.262 281.013C66.0626 280.913 65.8635 280.814 65.6582 280.711C65.7579 280.412 65.8575 280.113 65.9601 279.805Z" fill="white"/>
<path d="M89.2046 279.805H89.5065V281.315H89.2046V279.805Z" fill="white"/>
<path d="M89.8081 281.919C90.7137 282.221 90.7137 282.221 90.7137 282.221L89.8081 281.919Z" fill="white"/>
<path d="M86.4873 279.805C87.3929 280.107 87.3929 280.107 87.3929 280.107L86.4873 279.805Z" fill="white"/>
<path d="M75.0161 279.805C75.9217 280.107 75.9217 280.107 75.9217 280.107L75.0161 279.805Z" fill="white"/>
<path d="M93.4308 278.597L93.7327 279.201C93.5333 279.101 93.3342 279.002 93.1289 278.899C93.2286 278.799 93.3282 278.7 93.4308 278.597Z" fill="white"/>
</svg>
