<svg width="236" height="233" viewBox="0 0 236 233" fill="none" xmlns="http://www.w3.org/2000/svg">
<mask id="mask0_89_4374" style="mask-type:alpha" maskUnits="userSpaceOnUse" x="6" y="3" width="200" height="200">
<rect x="6" y="3" width="200" height="200" rx="100" fill="black"/>
</mask>
<g mask="url(#mask0_89_4374)">
<line x1="90.3457" y1="0.0478516" x2="90.3457" y2="279.048" stroke="white" stroke-opacity="0.2" stroke-width="0.5"/>
<line x1="74.3457" y1="0.0478516" x2="74.3457" y2="279.048" stroke="white" stroke-opacity="0.2" stroke-width="0.5"/>
<line x1="58.3457" y1="0.0478516" x2="58.3457" y2="279.048" stroke="white" stroke-opacity="0.2" stroke-width="0.5"/>
<line x1="42.3457" y1="0.0478516" x2="42.3457" y2="279.048" stroke="white" stroke-opacity="0.2" stroke-width="0.5"/>
<line x1="26.3457" y1="0.0478516" x2="26.3457" y2="279.048" stroke="white" stroke-opacity="0.2" stroke-width="0.5"/>
<line x1="10.3457" y1="0.0478516" x2="10.3457" y2="279.048" stroke="white" stroke-opacity="0.2" stroke-width="0.5"/>
<line y1="-0.25" x2="279" y2="-0.25" transform="matrix(-1 8.74228e-08 8.74228e-08 1 279.096 187.048)" stroke="white" stroke-opacity="0.2" stroke-width="0.5"/>
<line x1="106.346" y1="0.0478516" x2="106.346" y2="279.048" stroke="white" stroke-opacity="0.2" stroke-width="0.5"/>
<line y1="-0.25" x2="279" y2="-0.25" transform="matrix(-1 8.74228e-08 8.74228e-08 1 279.096 171.048)" stroke="white" stroke-opacity="0.2" stroke-width="0.5"/>
<line x1="122.346" y1="0.0478516" x2="122.346" y2="279.048" stroke="white" stroke-opacity="0.2" stroke-width="0.5"/>
<line y1="-0.25" x2="279" y2="-0.25" transform="matrix(-1 8.74228e-08 8.74228e-08 1 279.096 155.048)" stroke="white" stroke-opacity="0.2" stroke-width="0.5"/>
<line x1="138.346" y1="0.0478516" x2="138.346" y2="279.048" stroke="white" stroke-opacity="0.2" stroke-width="0.5"/>
<line y1="-0.25" x2="279" y2="-0.25" transform="matrix(-1 8.74228e-08 8.74228e-08 1 279.096 139.048)" stroke="white" stroke-opacity="0.2" stroke-width="0.5"/>
<line x1="154.346" y1="0.0478516" x2="154.346" y2="279.048" stroke="white" stroke-opacity="0.2" stroke-width="0.5"/>
<line y1="-0.25" x2="279" y2="-0.25" transform="matrix(-1 8.74228e-08 8.74228e-08 1 279.096 123.048)" stroke="white" stroke-opacity="0.2" stroke-width="0.5"/>
<line x1="170.346" y1="0.0478516" x2="170.346" y2="279.048" stroke="white" stroke-opacity="0.2" stroke-width="0.5"/>
<line y1="-0.25" x2="279" y2="-0.25" transform="matrix(-1 8.74228e-08 8.74228e-08 1 279.096 107.048)" stroke="white" stroke-opacity="0.2" stroke-width="0.5"/>
<line x1="186.346" y1="0.0478516" x2="186.346" y2="279.048" stroke="white" stroke-opacity="0.2" stroke-width="0.5"/>
<line y1="-0.25" x2="279" y2="-0.25" transform="matrix(-1 8.74228e-08 8.74228e-08 1 279.096 91.0479)" stroke="white" stroke-opacity="0.2" stroke-width="0.5"/>
<line x1="202.346" y1="0.0478516" x2="202.346" y2="279.048" stroke="white" stroke-opacity="0.2" stroke-width="0.5"/>
<line y1="-0.25" x2="279" y2="-0.25" transform="matrix(-1 8.74228e-08 8.74228e-08 1 279.096 75.0479)" stroke="white" stroke-opacity="0.2" stroke-width="0.5"/>
<line y1="-0.25" x2="279" y2="-0.25" transform="matrix(-1 8.74228e-08 8.74228e-08 1 279.096 59.0479)" stroke="white" stroke-opacity="0.2" stroke-width="0.5"/>
<line y1="-0.25" x2="279" y2="-0.25" transform="matrix(-1 8.74228e-08 8.74228e-08 1 279.096 43.0479)" stroke="white" stroke-opacity="0.2" stroke-width="0.5"/>
<line y1="-0.25" x2="279" y2="-0.25" transform="matrix(-1 8.74228e-08 8.74228e-08 1 279.096 27.0479)" stroke="white" stroke-opacity="0.2" stroke-width="0.5"/>
<line y1="-0.25" x2="279" y2="-0.25" transform="matrix(-1 8.74228e-08 8.74228e-08 1 279.096 11.0479)" stroke="white" stroke-opacity="0.2" stroke-width="0.5"/>
</g>
</svg>
