<svg width="304" height="279" viewBox="0 0 304 279" fill="none" xmlns="http://www.w3.org/2000/svg">
<mask id="mask0_61_5715" style="mask-type:alpha" maskUnits="userSpaceOnUse" x="9" y="4" width="295" height="271">
<rect x="9" y="4" width="295" height="271" rx="135.5" fill="black"/>
</mask>
<g mask="url(#mask0_61_5715)">
<line x1="91.2915" y1="4.37114e-08" x2="91.2915" y2="279" stroke="black" stroke-opacity="0.2" stroke-width="2"/>
<line x1="75.2915" y1="4.37114e-08" x2="75.2915" y2="279" stroke="black" stroke-opacity="0.2" stroke-width="2"/>
<line x1="59.2915" y1="4.37114e-08" x2="59.2915" y2="279" stroke="black" stroke-opacity="0.2" stroke-width="2"/>
<line x1="43.2915" y1="4.37114e-08" x2="43.2915" y2="279" stroke="black" stroke-opacity="0.2" stroke-width="2"/>
<line x1="27.2915" y1="4.37114e-08" x2="27.2915" y2="279" stroke="black" stroke-opacity="0.2" stroke-width="2"/>
<line x1="11.2915" y1="4.37114e-08" x2="11.2915" y2="279" stroke="black" stroke-opacity="0.2" stroke-width="2"/>
<line y1="-1" x2="279" y2="-1" transform="matrix(-1 8.74228e-08 8.74228e-08 1 279.292 187)" stroke="black" stroke-opacity="0.2" stroke-width="2"/>
<line y1="-1" x2="279" y2="-1" transform="matrix(-1 8.74228e-08 8.74228e-08 1 279.292 203.5)" stroke="black" stroke-opacity="0.2" stroke-width="2"/>
<line y1="-1" x2="279" y2="-1" transform="matrix(-1 8.74228e-08 8.74228e-08 1 279.292 219.5)" stroke="black" stroke-opacity="0.2" stroke-width="2"/>
<line y1="-1" x2="279" y2="-1" transform="matrix(-1 8.74228e-08 8.74228e-08 1 279.292 235.5)" stroke="black" stroke-opacity="0.2" stroke-width="2"/>
<line y1="-1" x2="279" y2="-1" transform="matrix(-1 8.74228e-08 8.74228e-08 1 279.292 251.5)" stroke="black" stroke-opacity="0.2" stroke-width="2"/>
<line y1="-1" x2="279" y2="-1" transform="matrix(-1 8.74228e-08 8.74228e-08 1 279.292 267.5)" stroke="black" stroke-opacity="0.2" stroke-width="2"/>
<line x1="107.292" y1="4.37114e-08" x2="107.291" y2="279" stroke="black" stroke-opacity="0.2" stroke-width="2"/>
<line y1="-1" x2="279" y2="-1" transform="matrix(-1 8.74228e-08 8.74228e-08 1 279.292 171)" stroke="black" stroke-opacity="0.2" stroke-width="2"/>
<line x1="123.292" y1="4.37114e-08" x2="123.291" y2="279" stroke="black" stroke-opacity="0.2" stroke-width="2"/>
<line y1="-1" x2="279" y2="-1" transform="matrix(-1 8.74228e-08 8.74228e-08 1 279.292 155)" stroke="black" stroke-opacity="0.2" stroke-width="2"/>
<line x1="139.292" y1="4.37114e-08" x2="139.291" y2="279" stroke="black" stroke-opacity="0.2" stroke-width="2"/>
<line y1="-1" x2="279" y2="-1" transform="matrix(-1 8.74228e-08 8.74228e-08 1 279.292 139)" stroke="black" stroke-opacity="0.2" stroke-width="2"/>
<line x1="155.292" y1="4.37114e-08" x2="155.291" y2="279" stroke="black" stroke-opacity="0.2" stroke-width="2"/>
<line y1="-1" x2="279" y2="-1" transform="matrix(-1 8.74228e-08 8.74228e-08 1 279.292 123)" stroke="black" stroke-opacity="0.2" stroke-width="2"/>
<line x1="171.292" y1="4.37114e-08" x2="171.291" y2="279" stroke="black" stroke-opacity="0.2" stroke-width="2"/>
<line y1="-1" x2="279" y2="-1" transform="matrix(-1 8.74228e-08 8.74228e-08 1 279.292 107)" stroke="black" stroke-opacity="0.2" stroke-width="2"/>
<line x1="187.292" y1="4.37114e-08" x2="187.291" y2="279" stroke="black" stroke-opacity="0.2" stroke-width="2"/>
<line y1="-1" x2="279" y2="-1" transform="matrix(-1 8.74228e-08 8.74228e-08 1 279.292 91)" stroke="black" stroke-opacity="0.2" stroke-width="2"/>
<line x1="203.292" y1="4.37114e-08" x2="203.291" y2="279" stroke="black" stroke-opacity="0.2" stroke-width="2"/>
<line y1="-1" x2="279" y2="-1" transform="matrix(-1 8.74228e-08 8.74228e-08 1 279.292 75)" stroke="black" stroke-opacity="0.2" stroke-width="2"/>
<line x1="219.292" y1="4.37114e-08" x2="219.291" y2="279" stroke="black" stroke-opacity="0.2" stroke-width="2"/>
<line y1="-1" x2="279" y2="-1" transform="matrix(-1 8.74228e-08 8.74228e-08 1 279.292 59)" stroke="black" stroke-opacity="0.2" stroke-width="2"/>
<line x1="235.292" y1="4.37114e-08" x2="235.291" y2="279" stroke="black" stroke-opacity="0.2" stroke-width="2"/>
<line y1="-1" x2="279" y2="-1" transform="matrix(-1 8.74228e-08 8.74228e-08 1 279.292 43)" stroke="black" stroke-opacity="0.2" stroke-width="2"/>
<line x1="251.292" y1="4.37114e-08" x2="251.291" y2="279" stroke="black" stroke-opacity="0.2" stroke-width="2"/>
<line y1="-1" x2="279" y2="-1" transform="matrix(-1 8.74228e-08 8.74228e-08 1 279.292 27)" stroke="black" stroke-opacity="0.2" stroke-width="2"/>
<line x1="267.292" y1="4.37114e-08" x2="267.292" y2="279" stroke="black" stroke-opacity="0.2" stroke-width="2"/>
<line y1="-1" x2="279" y2="-1" transform="matrix(-1 8.74228e-08 8.74228e-08 1 279.292 11)" stroke="black" stroke-opacity="0.2" stroke-width="2"/>
</g>
</svg>
