<svg width="1440" height="73" viewBox="0 0 1440 73" fill="none" xmlns="http://www.w3.org/2000/svg">
<path d="M0 29.1998L34.3 26.7589C68.6 24.4092 137 19.3904 206 20.6907C274.3 21.8998 343 29.1998 411 37.7089C480 46.3092 549 55.8904 617 55.9589C685.7 55.8904 754 46.3092 823 38.9407C891.4 31.7092 960 26.6904 1029 30.4089C1097.1 33.9904 1166 46.3092 1234 48.6589C1302.9 51.0998 1371 43.7998 1406 40.1498L1440 36.4998V72.9998H1405.7C1371.4 72.9998 1303 72.9998 1234 72.9998C1165.7 72.9998 1097 72.9998 1029 72.9998C960 72.9998 891 72.9998 823 72.9998C754.3 72.9998 686 72.9998 617 72.9998C548.6 72.9998 480 72.9998 411 72.9998C342.9 72.9998 274 72.9998 206 72.9998C137.1 72.9998 69 72.9998 34 72.9998H0V29.1998Z" fill="#F8F7F4"/>
</svg>
