<svg width="33" height="33" viewBox="0 0 33 33" fill="none" xmlns="http://www.w3.org/2000/svg">
<g id="Frame" clip-path="url(#clip0_76_6836)">
<path id="Vector" d="M27.3334 9.979H4.33337V6.979C4.33337 6.71379 4.22802 6.45943 4.04048 6.2719C3.85294 6.08436 3.59859 5.979 3.33337 5.979C3.06816 5.979 2.8138 6.08436 2.62627 6.2719C2.43873 6.45943 2.33337 6.71379 2.33337 6.979V26.979C2.33337 27.2442 2.43873 27.4986 2.62627 27.6861C2.8138 27.8736 3.06816 27.979 3.33337 27.979C3.59859 27.979 3.85294 27.8736 4.04048 27.6861C4.22802 27.4986 4.33337 27.2442 4.33337 26.979V22.979H30.3334V26.979C30.3334 27.2442 30.4387 27.4986 30.6263 27.6861C30.8138 27.8736 31.0682 27.979 31.3334 27.979C31.5986 27.979 31.8529 27.8736 32.0405 27.6861C32.228 27.4986 32.3334 27.2442 32.3334 26.979V14.979C32.3334 13.6529 31.8066 12.3812 30.8689 11.4435C29.9312 10.5058 28.6595 9.979 27.3334 9.979ZM4.33337 11.979H13.3334V20.979H4.33337V11.979ZM15.3334 20.979V11.979H27.3334C28.129 11.979 28.8921 12.2951 29.4547 12.8577C30.0173 13.4203 30.3334 14.1834 30.3334 14.979V20.979H15.3334Z" fill="white"/>
</g>
<defs>
<clipPath id="clip0_76_6836">
<rect width="32" height="32" fill="white" transform="translate(0.333374 0.979004)"/>
</clipPath>
</defs>
</svg>
