<svg width="32" height="33" viewBox="0 0 32 33" fill="none" xmlns="http://www.w3.org/2000/svg">
<g id="Frame">
<path id="Vector" d="M26 7.979H22.535L20.8312 5.424C20.74 5.28719 20.6164 5.17501 20.4714 5.09739C20.3264 5.01976 20.1645 4.9791 20 4.979H12C11.8355 4.9791 11.6736 5.01976 11.5286 5.09739C11.3836 5.17501 11.26 5.28719 11.1687 5.424L9.46375 7.979H6C5.20435 7.979 4.44129 8.29507 3.87868 8.85768C3.31607 9.42029 3 10.1834 3 10.979V24.979C3 25.7747 3.31607 26.5377 3.87868 27.1003C4.44129 27.6629 5.20435 27.979 6 27.979H26C26.7956 27.979 27.5587 27.6629 28.1213 27.1003C28.6839 26.5377 29 25.7747 29 24.979V10.979C29 10.1834 28.6839 9.42029 28.1213 8.85768C27.5587 8.29507 26.7956 7.979 26 7.979ZM27 24.979C27 25.2442 26.8946 25.4986 26.7071 25.6861C26.5196 25.8736 26.2652 25.979 26 25.979H6C5.73478 25.979 5.48043 25.8736 5.29289 25.6861C5.10536 25.4986 5 25.2442 5 24.979V10.979C5 10.7138 5.10536 10.4594 5.29289 10.2719C5.48043 10.0844 5.73478 9.979 6 9.979H10C10.1647 9.97911 10.3268 9.93855 10.4721 9.86092C10.6173 9.78329 10.7411 9.67099 10.8325 9.534L12.535 6.979H19.4638L21.1675 9.534C21.2589 9.67099 21.3827 9.78329 21.5279 9.86092C21.6732 9.93855 21.8353 9.97911 22 9.979H26C26.2652 9.979 26.5196 10.0844 26.7071 10.2719C26.8946 10.4594 27 10.7138 27 10.979V24.979ZM16 11.979C14.9122 11.979 13.8488 12.3016 12.9444 12.9059C12.0399 13.5103 11.3349 14.3693 10.9187 15.3742C10.5024 16.3792 10.3935 17.4851 10.6057 18.552C10.8179 19.6189 11.3417 20.5989 12.1109 21.3681C12.8801 22.1373 13.8601 22.6611 14.927 22.8733C15.9939 23.0855 17.0998 22.9766 18.1048 22.5603C19.1098 22.1441 19.9687 21.4391 20.5731 20.5346C21.1774 19.6302 21.5 18.5668 21.5 17.479C21.4983 16.0208 20.9184 14.6228 19.8873 13.5917C18.8562 12.5607 17.4582 11.9807 16 11.979ZM16 20.979C15.3078 20.979 14.6311 20.7737 14.0555 20.3891C13.4799 20.0046 13.0313 19.4579 12.7664 18.8184C12.5015 18.1789 12.4322 17.4751 12.5673 16.7962C12.7023 16.1173 13.0356 15.4936 13.5251 15.0041C14.0146 14.5146 14.6383 14.1813 15.3172 14.0463C15.9961 13.9112 16.6999 13.9805 17.3394 14.2454C17.9789 14.5103 18.5256 14.9589 18.9101 15.5345C19.2947 16.1101 19.5 16.7868 19.5 17.479C19.5 18.4073 19.1313 19.2975 18.4749 19.9539C17.8185 20.6103 16.9283 20.979 16 20.979Z" fill="white"/>
</g>
</svg>
