<svg width="33" height="33" viewBox="0 0 33 33" fill="none" xmlns="http://www.w3.org/2000/svg">
<g id="Frame">
<path id="Vector" d="M9.66664 11.979V5.97899C9.66664 5.71378 9.77199 5.45942 9.95953 5.27189C10.1471 5.08435 10.4014 4.97899 10.6666 4.97899C10.9319 4.97899 11.1862 5.08435 11.3737 5.27189C11.5613 5.45942 11.6666 5.71378 11.6666 5.97899V11.979C11.6666 12.2442 11.5613 12.4986 11.3737 12.6861C11.1862 12.8736 10.9319 12.979 10.6666 12.979C10.4014 12.979 10.1471 12.8736 9.95953 12.6861C9.77199 12.4986 9.66664 12.2442 9.66664 11.979ZM27.6666 5.97899V28.979C27.6666 29.2442 27.5613 29.4986 27.3737 29.6861C27.1862 29.8736 26.9319 29.979 26.6666 29.979C26.4014 29.979 26.1471 29.8736 25.9595 29.6861C25.772 29.4986 25.6666 29.2442 25.6666 28.979V22.979H19.6666C19.4014 22.979 19.1471 22.8736 18.9595 22.6861C18.772 22.4986 18.6666 22.2442 18.6666 21.979C18.7131 19.5836 19.0156 17.2 19.5691 14.869C20.7916 9.80774 23.1091 6.41524 26.2729 5.06024C26.4249 4.99511 26.5908 4.96871 26.7556 4.98342C26.9203 4.99814 27.0789 5.05349 27.217 5.14454C27.3551 5.23559 27.4685 5.35948 27.547 5.50511C27.6254 5.65074 27.6666 5.81357 27.6666 5.97899ZM25.6666 7.71649C21.6454 10.7877 20.8579 18.269 20.7041 20.979H25.6666V7.71649ZM15.6529 5.81524C15.6333 5.68394 15.5878 5.55784 15.5189 5.44432C15.4501 5.3308 15.3594 5.23211 15.252 5.15403C15.1446 5.07594 15.0228 5.02002 14.8936 4.98952C14.7644 4.95902 14.6304 4.95455 14.4994 4.97637C14.3685 4.9982 14.2432 5.04588 14.1308 5.11664C14.0185 5.1874 13.9214 5.27982 13.8452 5.3885C13.7689 5.49719 13.7151 5.61997 13.6868 5.74968C13.6585 5.87939 13.6563 6.01343 13.6804 6.14399L14.6666 12.0577C14.6666 13.1186 14.2452 14.136 13.4951 14.8862C12.7449 15.6363 11.7275 16.0577 10.6666 16.0577C9.60577 16.0577 8.58835 15.6363 7.83821 14.8862C7.08806 14.136 6.66664 13.1186 6.66664 12.0577L7.65164 6.14399C7.67569 6.01343 7.67352 5.87939 7.64523 5.74968C7.61694 5.61997 7.5631 5.49719 7.48686 5.3885C7.41062 5.27982 7.31351 5.1874 7.20117 5.11664C7.08884 5.04588 6.96355 4.9982 6.83259 4.97637C6.70164 4.95455 6.56765 4.95902 6.43844 4.98952C6.30924 5.02002 6.18739 5.07594 6.08003 5.15403C5.97266 5.23211 5.88191 5.3308 5.81308 5.44432C5.74426 5.55784 5.69872 5.68394 5.67914 5.81524L4.67914 11.8152C4.67058 11.8694 4.6664 11.9242 4.66664 11.979C4.66863 13.3963 5.17153 14.7672 6.08647 15.8496C7.00141 16.9319 8.26949 17.6561 9.66664 17.894V28.979C9.66664 29.2442 9.77199 29.4986 9.95953 29.6861C10.1471 29.8736 10.4014 29.979 10.6666 29.979C10.9319 29.979 11.1862 29.8736 11.3737 29.6861C11.5613 29.4986 11.6666 29.2442 11.6666 28.979V17.894C13.0638 17.6561 14.3319 16.9319 15.2468 15.8496C16.1617 14.7672 16.6646 13.3963 16.6666 11.979C16.6665 11.9241 16.6619 11.8694 16.6529 11.8152L15.6529 5.81524Z" fill="white"/>
</g>
</svg>
