<svg width="33" height="33" viewBox="0 0 33 33" fill="none" xmlns="http://www.w3.org/2000/svg">
<g id="Frame">
<path id="Vector" d="M19.6666 11.979C20.4577 11.979 21.2311 11.7444 21.8889 11.3049C22.5467 10.8654 23.0594 10.2406 23.3621 9.50974C23.6649 8.77884 23.7441 7.97457 23.5898 7.19864C23.4354 6.42272 23.0544 5.70999 22.495 5.15058C21.9356 4.59117 21.2229 4.21021 20.447 4.05586C19.671 3.90152 18.8668 3.98074 18.1359 4.28349C17.405 4.58624 16.7803 5.09893 16.3407 5.75672C15.9012 6.41452 15.6666 7.18788 15.6666 7.97901C15.6666 9.03987 16.088 10.0573 16.8382 10.8074C17.5883 11.5576 18.6057 11.979 19.6666 11.979ZM19.6666 5.97901C20.0622 5.97901 20.4489 6.0963 20.7778 6.31607C21.1067 6.53583 21.363 6.84819 21.5144 7.21364C21.6657 7.57909 21.7054 7.98122 21.6282 8.36919C21.551 8.75715 21.3605 9.11351 21.0808 9.39322C20.8011 9.67292 20.4448 9.86341 20.0568 9.94058C19.6688 10.0177 19.2667 9.97814 18.9012 9.82677C18.5358 9.67539 18.2234 9.41904 18.0037 9.09015C17.7839 8.76125 17.6666 8.37457 17.6666 7.97901C17.6666 7.44857 17.8773 6.93986 18.2524 6.56479C18.6275 6.18972 19.1362 5.97901 19.6666 5.97901ZM28.0804 18.564C28.0041 18.599 27.1441 18.974 25.6216 18.974C23.8904 18.974 21.3029 18.489 18.0354 16.474C17.538 17.8858 16.8923 19.2409 16.1091 20.5165C17.5159 20.9496 18.8392 21.6178 20.0229 22.4928C22.4066 24.3103 23.6666 26.8978 23.6666 29.979C23.6666 30.2442 23.5613 30.4986 23.3737 30.6861C23.1862 30.8736 22.9318 30.979 22.6666 30.979C22.4014 30.979 22.147 30.8736 21.9595 30.6861C21.772 30.4986 21.6666 30.2442 21.6666 29.979C21.6666 24.7665 17.3304 22.8903 14.8991 22.2478C14.8304 22.3353 14.7591 22.424 14.6879 22.5103C12.2329 25.4853 9.15661 27.0328 5.73411 27.0328C5.34429 27.0346 4.95462 27.0166 4.56661 26.979C4.3014 26.9525 4.05758 26.8217 3.88879 26.6154C3.72001 26.4091 3.64009 26.1442 3.66661 25.879C3.69313 25.6138 3.82393 25.37 4.03022 25.2012C4.23651 25.0324 4.5014 24.9525 4.76661 24.979C8.00661 25.3015 10.8254 24.0428 13.1416 21.229C14.7029 19.3365 15.7666 17.0278 16.2979 15.354C11.4329 12.5228 8.32536 14.9328 8.29161 14.959C8.18975 15.046 8.07144 15.1116 7.94373 15.152C7.81601 15.1924 7.68148 15.2067 7.54812 15.1941C7.41477 15.1815 7.2853 15.1422 7.16742 15.0786C7.04953 15.015 6.94562 14.9284 6.86186 14.8238C6.7781 14.7193 6.7162 14.599 6.67982 14.4701C6.64345 14.3412 6.63334 14.2063 6.65011 14.0734C6.66687 13.9405 6.71017 13.8123 6.77742 13.6965C6.84467 13.5806 6.93452 13.4795 7.04161 13.399C7.22911 13.249 11.6941 9.77401 18.2304 14.2203C23.9141 18.084 27.2216 16.759 27.2529 16.744C27.3727 16.6874 27.5025 16.6552 27.6349 16.6493C27.7672 16.6433 27.8995 16.6637 28.0239 16.7093C28.1483 16.7548 28.2624 16.8247 28.3596 16.9147C28.4568 17.0048 28.5351 17.1132 28.59 17.2338C28.6449 17.3544 28.6753 17.4847 28.6794 17.6171C28.6835 17.7496 28.6613 17.8815 28.614 18.0052C28.5667 18.129 28.4953 18.2421 28.4039 18.3381C28.3125 18.434 28.2029 18.5108 28.0816 18.564H28.0804Z" fill="white"/>
</g>
</svg>
