<svg width="32" height="33" viewBox="0 0 32 33" fill="none" xmlns="http://www.w3.org/2000/svg">
<g id="Frame">
<path id="Vector" d="M29 8.979H26V6.979C26 6.71379 25.8946 6.45943 25.7071 6.2719C25.5196 6.08436 25.2652 5.979 25 5.979H7C6.73478 5.979 6.48043 6.08436 6.29289 6.2719C6.10536 6.45943 6 6.71379 6 6.979V8.979H3C2.46957 8.979 1.96086 9.18972 1.58579 9.56479C1.21071 9.93986 1 10.4486 1 10.979V12.979C1 14.3051 1.52678 15.5769 2.46447 16.5145C2.92876 16.9788 3.47995 17.3471 4.08658 17.5984C4.69321 17.8497 5.34339 17.979 6 17.979H6.45625C7.04531 19.8458 8.16846 21.499 9.68688 22.7344C11.2053 23.9698 13.0524 24.7332 15 24.9303V27.979H12C11.7348 27.979 11.4804 28.0844 11.2929 28.2719C11.1054 28.4594 11 28.7138 11 28.979C11 29.2442 11.1054 29.4986 11.2929 29.6861C11.4804 29.8736 11.7348 29.979 12 29.979H20C20.2652 29.979 20.5196 29.8736 20.7071 29.6861C20.8946 29.4986 21 29.2442 21 28.979C21 28.7138 20.8946 28.4594 20.7071 28.2719C20.5196 28.0844 20.2652 27.979 20 27.979H17V24.9265C20.9925 24.5228 24.305 21.7215 25.51 17.979H26C27.3261 17.979 28.5979 17.4522 29.5355 16.5145C30.4732 15.5769 31 14.3051 31 12.979V10.979C31 10.4486 30.7893 9.93986 30.4142 9.56479C30.0391 9.18972 29.5304 8.979 29 8.979ZM6 15.979C5.20435 15.979 4.44129 15.6629 3.87868 15.1003C3.31607 14.5377 3 13.7747 3 12.979V10.979H6V14.979C6 15.3123 6.01625 15.6457 6.04875 15.979H6ZM24 14.8665C24 19.3065 20.375 22.9465 16 22.979C13.8783 22.979 11.8434 22.1362 10.3431 20.6359C8.84285 19.1356 8 17.1007 8 14.979V7.979H24V14.8665ZM29 12.979C29 13.7747 28.6839 14.5377 28.1213 15.1003C27.5587 15.6629 26.7956 15.979 26 15.979H25.9375C25.9785 15.6096 25.9994 15.2382 26 14.8665V10.979H29V12.979Z" fill="white"/>
</g>
</svg>
