<svg width="327" height="327" viewBox="0 0 327 327" fill="none" xmlns="http://www.w3.org/2000/svg">
<g clip-path="url(#clip0_15_1548)">
<path d="M239 0H87.4C39.1 0 0 39.1 0 87.4V239C0 287.2 39.1 326.4 87.4 326.4H239C287.2 326.4 326.4 287.3 326.4 239V87.4C326.4 39.1 287.3 0 239 0Z" fill="#164AD0"/>
<path fill-rule="evenodd" clip-rule="evenodd" d="M326 79.1C306.6 62.6 288.4 36.4 267 4.60002C268.9 5.30002 270.8 6.00002 272.7 6.70002C291.8 35.1 308.2 58.4 325.4 73.9C325.6 75.6 325.9 77.4 326 79.1ZM326.4 99.7C302.9 83.2 281.1 51.8 253.1 11.4L252.6 10.7C250.2 7.30002 247.8 3.80002 245.4 0.300024C243.7 0.200024 242.1 0.100024 240.4 0.100024C243.6 4.70002 246.8 9.30002 249.9 13.8C278.4 54.9 300.9 87.4 325.7 104.1C325.9 104.3 326.2 104.4 326.4 104.6V99.7ZM326.4 122.8C324 121.5 321.6 120.1 319.2 118.5C294.5 102.1 271.2 69.5 241.7 28.3L241.5 28C235 18.9 228.4 9.60003 221.3 2.44156e-05H215.7C223.5 10.7 230.8 20.9 238 30.9L238.1 31C267.9 72.6 291.4 105.4 316.7 122.3C319.9 124.4 323.1 126.3 326.4 127.9V122.8ZM326.4 144.5C321.1 142.5 315.8 139.8 310.5 136.3C285.3 119.7 261 86.8 230.2 45.1V45C220.4 31.7 210.2 17.9 198.9 3.10002C198 2.10002 197.2 1.00002 196.3 2.44156e-05H189.7C191.4 2.00002 193.1 4.00002 194.8 6.20002C206.1 20.9 216.2 34.7 226.1 48C257.2 90.1 281.8 123.4 307.7 140.5C313.9 144.6 320.1 147.7 326.4 149.8V144.5ZM326.4 164.8C318.1 163 310 159.4 301.7 154C276 137.2 250.6 103.8 218.4 61.5V61.4C208.5 48.4 198.3 35 187 20.7C180.7 12.7 173.8 5.80002 166.1 -0.0999756H156.6C166.3 6.30002 175 14.4 182.6 24.1C193.8 38.3 203.9 51.7 213.8 64.6L214 64.9C246.5 107.6 272.2 141.3 298.7 158.6C307.9 164.6 317 168.5 326.4 170.4V164.8ZM326.4 184.1C315.1 183.2 304.1 179.1 292.9 171.8C266.7 154.8 240.1 120.9 206.5 78C196.6 65.4 186.4 52.4 175.2 38.4C160.2 19.7 141.4 6.80002 119.2 2.44156e-05H87.3999C85.3999 2.44156e-05 83.2999 0.100024 81.2999 0.200024C92.6999 0.400024 103.4 1.80002 113.5 4.60002C136.2 10.7 155.3 23.4 170.5 42.2C181.2 55.5 191 68 200.4 80L201.7 81.7C250.9 144.5 284.3 187 326.3 190.1V184.1H326.4ZM326.4 202.1C311.9 202.8 298.2 198.6 284 189.5C257.3 172.3 229.5 137.9 194.3 94.2L194.1 93.9C184.4 81.8 174.3 69.3 163.3 56C146.9 36.1 126.3 22.8 102 16.5C83.0999 11.6 62.0999 10.8 39.3999 14.3C35.4999 16.9 31.7999 19.8 28.2999 22.9C31.6999 22.2 35.1999 21.5 38.7999 20.9C61.1999 17.3 81.8999 17.9 100.4 22.7C123.3 28.7 142.8 41.3 158.3 60.1C169.4 73.5 179.5 86.1 189.3 98.2C224.8 142.3 252.9 177.1 280.5 194.9C294.9 204.1 309 208.7 323.8 208.6C324.7 208.6 325.5 208.6 326.4 208.5V202.1ZM326.4 219.1C308.8 222.2 292.3 218.2 275.1 207.2C247.8 189.7 218.7 154.7 182 110.3C172.3 98.6 162.3 86.6 151.5 73.7C134.6 53.8 113.6 40.5 88.9999 34.3C69.3999 29.4 47.4999 28.9 23.9999 32.9C22.0999 33.2 20.1999 33.6 18.2999 34C16.1999 36.7 14.2999 39.5 12.5999 42.4C16.6999 41.4 20.9999 40.6 25.3999 39.8C47.8999 36 68.7999 36.5 87.3999 41.2C110.5 47 130.3 59.5 146.2 78.3C157 91.1 167 103.2 176.7 114.8C215.3 161.4 243.2 195.1 271.4 213.1C286.2 222.6 300.7 227.2 315.7 227.1C319.3 227.1 322.9 226.8 326.5 226.2V219.1H326.4ZM326.4 235.1C305.5 241.2 286.5 237.8 266.1 224.8C238.2 207.1 209.3 173.1 169.4 126.1C160 115 150.2 103.5 139.6 91.3C122.3 71.3 100.9 58.1 75.8999 52C55.9999 47.2 33.8999 46.9 10.1999 51.1C9.3999 51.3 8.4999 51.4 7.6999 51.6C6.4999 54.3 5.3999 57.1 4.4999 59.9C6.8999 59.4 9.2999 58.9 11.7999 58.5C34.4999 54.5 55.4999 54.8 74.3999 59.4C97.7999 65.1 117.9 77.5 134.1 96.3C144.6 108.5 154.4 120 163.8 131.1C204.2 178.6 233.3 212.9 262.2 231.3C277.5 241 292.3 245.8 307.6 245.6C313.8 245.5 320.1 244.7 326.5 243C326.6 241.7 326.6 240.5 326.6 239.2V235.1H326.4ZM325.7 250.5C301.7 259.9 280.4 257.3 257 242.5C228.4 224.4 198.2 189.8 156.4 141.8L154.9 140.1C146.2 130.2 137.3 119.9 127.7 109.1C110 88.9 88.0999 75.7 62.7999 69.8C44.2999 65.5 23.7999 65 2.0999 68.5C1.3999 71.2 0.999902 74 0.599902 76.8C22.3999 73.1 42.7999 73.3 61.0999 77.6C84.6999 83.1 105.1 95.5 121.7 114.2C131.6 125.4 140.9 136.1 149.9 146.4L150.4 147C192.6 195.5 223.1 230.5 252.7 249.2C268.5 259.2 283.7 264.1 299.2 263.9C307.3 263.8 315.5 262.4 324 259.5C324.7 256.6 325.3 253.6 325.7 250.5ZM322 266.4C264.1 292.8 224.2 248 143.1 157.1C134.4 147.3 125.4 137.2 115.8 126.6C97.5999 106.5 75.3999 93.3 49.6999 87.6C34.2999 84.1 17.6999 83.3 -9.76548e-05 85.1C-9.76548e-05 85.9 -9.76548e-05 86.6 -9.76548e-05 87.4V93.6C17.0999 91.7 33.1999 92.5 47.9999 95.8C71.8999 101.2 92.5999 113.4 109.5 132.2C119.1 142.8 128.1 152.9 136.8 162.7L136.9 162.8C181.1 212.3 213 248.1 243.3 267.2C259.4 277.3 274.5 282.3 289.6 282.5C290.1 282.5 290.5 282.5 291 282.5C299.7 282.4 308.5 280.8 317.6 277.5C319.3 273.8 320.8 270.2 322 266.4ZM313.8 284.3C302.4 289.6 291.6 292 281.1 291.9C267.6 291.7 253.7 287 238.6 277.5C208.5 258.6 175.4 222.4 129.6 172.2L127.3 169.7C119.8 161.5 112.1 153.1 104 144.3C85.3999 124.1 62.7999 111 36.6999 105.4C25.0999 102.9 12.8999 101.9 -9.76548e-05 102.3V111.3C12.1999 110.9 23.8999 111.8 34.8999 114.2C59.0999 119.4 80.0999 131.6 97.3999 150.4C106.1 159.9 114.4 168.9 122.4 177.7L123 178.4C169.3 229.1 202.8 265.8 233.9 285.3C250.4 295.6 265.8 300.8 281 301C281.6 301 282.3 301 282.9 301C289.8 300.9 296.8 299.9 304 297.8C307.6 293.5 310.9 289.1 313.8 284.3ZM294.6 306.5C287 308.9 279.7 310 272.5 309.8C258.9 309.5 244.7 304.6 229.3 295C198.4 275.6 163.7 238.4 115.6 186.9C108.1 178.8 100.3 170.5 92.0999 161.8C73.0999 141.5 49.9999 128.5 23.5999 123C15.9999 121.4 8.0999 120.5 -9.76548e-05 120.1V129.6C7.4999 129.9 14.6999 130.8 21.6999 132.3C46.1999 137.4 67.4999 149.5 85.1999 168.3C92.6999 176.3 99.9999 184.1 107 191.6L108.7 193.4C157.2 245.4 192.3 283 224.3 303C241.2 313.6 256.9 318.9 272.3 319.3C272.8 319.3 273.3 319.3 273.8 319.3C281.3 316 288.3 311.7 294.6 306.5ZM249.8 325.8C240.3 323.4 230.3 319 219.8 312.4C188 292.5 151.5 254.3 101.1 201.3L98.6999 198.8C92.6999 192.5 86.5999 186.1 80.1999 179.4C60.6999 159.1 37.2999 146 10.4999 140.7C6.9999 140 3.4999 139.4 -9.76548e-05 139V149.1C2.9999 149.5 5.8999 150 8.6999 150.5C33.3999 155.5 54.9999 167.5 72.9999 186.3C78.7999 192.4 84.4999 198.3 89.9999 204.1C91.2999 205.5 92.5999 206.8 93.8999 208.2C144.8 261.7 181.7 300.3 214.5 320.8C217.8 322.9 221.1 324.7 224.3 326.4H239C242.7 326.4 246.3 326.2 249.8 325.8ZM205.1 326.4C173.4 305.2 136.4 267.1 86.0999 215.3C84.5999 213.7 82.9999 212.1 81.3999 210.5C77.1999 206.1 72.7999 201.7 68.3999 197.1C49.0999 177.3 26.0999 164.5 -9.76548e-05 159V169.7C23.0999 175 43.5999 186.7 60.7999 204.4C66.8999 210.6 72.7999 216.7 78.4999 222.6L78.5999 222.7C123.2 268.5 157.4 303.8 187.2 326.5H205.1V326.4ZM172.3 326.4C144.7 303.7 112.1 270.8 70.4999 228.8C69.1999 227.5 67.7999 226.1 66.4999 224.8C63.1999 221.5 59.8999 218.1 56.4999 214.7C40.0999 198.2 21.0999 186.6 -9.76548e-05 180V191.5C18.0999 197.7 34.3999 208 48.6999 222.3C52.0999 225.7 55.3999 229.1 58.6999 232.4L60.1999 233.9L62.6999 236.5L62.7999 236.6C99.3999 273.5 129.3 303.7 155.4 326.4H172.3ZM142.2 326.4C117.3 304.2 88.4999 275.8 54.2999 241.9L44.5999 232.3C31.2999 219.1 16.3999 209.1 -9.76548e-05 202.3V214.8C13.2999 221 25.4999 229.5 36.4999 240.4L46.1999 250C76.2999 279.8 102.2 305.4 125.1 326.4H142.2ZM112.5 326.4C90.3999 306.1 65.5999 282 37.0999 254.3L32.5999 249.9C22.5999 240.1 11.5999 232.1 -0.100098 225.8V239C-0.100098 239.2 -0.100098 239.4 -0.100098 239.5C8.4999 244.7 16.6999 251 24.1999 258.4L28.6999 262.8C53.3999 286.7 75.1999 308 94.9999 326.4H112.5ZM82.7999 326.3C64.0999 309 43.5999 289.3 20.8999 267.6L20.7999 267.5C14.4999 261.5 7.7999 256.1 0.899902 251.4C1.8999 258.2 3.5999 264.7 5.9999 270.8C8.0999 272.6 10.1999 274.5 12.2999 276.4C29.3999 292.8 45.2999 308 60.1999 322C67.2999 324.4 74.8999 325.9 82.7999 326.3ZM30.4999 305.4C28.5999 303.6 26.6999 301.9 24.7999 300C26.5999 301.9 28.4999 303.7 30.4999 305.4Z" fill="url(#paint0_linear_15_1548)"/>
<path d="M170.7 128.4C176 124.1 180.5 126 183.9 128.7C186.9 131.3 189.8 134.4 189.8 134.4L200.4 145L218.9 163.5L232.6 177.2C241.8 186.3 256.6 186.3 265.7 177.2L279.7 163.2C262.9 146.5 216.1 100.1 215.6 99.7C206.5 89.8 192.2 82 176.7 82C176.4 82 176 82 175.7 82C148.1 82.5 125.7 104.8 125 132.4C125 132.8 125 133.1 125 133.5C125 134.1 125 134.6 125 135.2C125.1 139.2 125.7 143.1 126.6 146.8C128.9 155.6 133.4 163.5 139.6 169.8L140.3 170.5L140.4 170.6L153 182C153.9 182.9 155 183.7 155.9 184.6C156.3 185 156.9 185.5 157.4 186.2C157.5 186.3 157.6 186.5 157.7 186.6C157.7 186.7 157.8 186.7 157.8 186.8C157.8 186.9 157.9 186.9 157.9 187C158 187.1 158.1 187.2 158.1 187.4C158.1 187.5 158.2 187.5 158.2 187.6C158.3 187.7 158.3 187.8 158.4 187.9C158.4 188 158.5 188 158.5 188.1C158.6 188.3 158.6 188.4 158.7 188.6V188.7C158.8 188.8 158.8 189 158.9 189.1C158.9 189.2 158.9 189.2 159 189.3C159.1 189.5 159.1 189.7 159.2 189.9V190C159.2 190.2 159.3 190.4 159.3 190.6C159.3 190.7 159.3 190.7 159.3 190.8C159.3 191 159.4 191.3 159.4 191.5C159.4 191.7 159.4 192 159.5 192.2C159.5 192.3 159.5 192.3 159.5 192.4C159.5 192.6 159.5 192.9 159.5 193.1C159.5 193.4 159.5 193.6 159.5 193.9C159.2 198.2 155.5 201.7 151.1 201.7C148.8 201.7 146.8 200.8 145.3 199.4C145.3 199.4 145.2 199.4 145.2 199.3C145.2 199.3 145.2 199.3 145.1 199.3C144.9 199.1 144.7 199 144.5 198.8C143.7 198.2 142.9 197.4 141.9 196.5L98.2 154L94.2 150.2C84.9 140.9 69.9 140.9 60.6 150.2L46.8 164L46.9001 164.1L46.8 164.2L110.3 227.4L115.1 232.2C126.8 242.4 143.1 247.5 160.5 243.8C180.4 239.6 196 223.6 199.8 203.5C200.4 200.4 200.7 197.3 200.8 194.3C200.8 193.6 200.8 192.9 200.8 192.2C200.7 186.9 199.8 181.8 198.3 177C196 170 192.1 163.7 187.1 158.4C185.6 156.8 184 155.1 182.5 153.5C176 146.7 172 142.7 171.8 142.5C169.3 140.4 167.9 137.5 167.9 134.7C167.9 132.2 168.8 130.1 170.7 128.4Z" fill="white"/>
</g>
<defs>
<linearGradient id="paint0_linear_15_1548" x1="-9.76494e-05" y1="163.206" x2="326.411" y2="163.206" gradientUnits="userSpaceOnUse">
<stop stop-color="#48C4EC"/>
<stop offset="0.1" stop-color="#43B8E9"/>
<stop offset="0.28" stop-color="#379AE2"/>
<stop offset="0.52" stop-color="#236AD7"/>
<stop offset="1" stop-color="#164AD0"/>
</linearGradient>
<clipPath id="clip0_15_1548">
<rect width="327" height="327" fill="white"/>
</clipPath>
</defs>
</svg>
