<svg width="33" height="33" viewBox="0 0 33 33" fill="none" xmlns="http://www.w3.org/2000/svg">
<g id="Frame" clip-path="url(#clip0_76_6818)">
<path id="Vector" d="M31.8046 10.104C31.6452 10.0185 31.4655 9.97792 31.2848 9.98651C31.104 9.99509 30.929 10.0525 30.7784 10.1528L26.3334 13.1103V9.979C26.3334 9.44857 26.1227 8.93986 25.7476 8.56479C25.3725 8.18972 24.8638 7.979 24.3334 7.979H4.33337C3.80294 7.979 3.29423 8.18972 2.91916 8.56479C2.54409 8.93986 2.33337 9.44857 2.33337 9.979V23.979C2.33337 24.5094 2.54409 25.0181 2.91916 25.3932C3.29423 25.7683 3.80294 25.979 4.33337 25.979H24.3334C24.8638 25.979 25.3725 25.7683 25.7476 25.3932C26.1227 25.0181 26.3334 24.5094 26.3334 23.979V20.854L30.7784 23.8178C30.9435 23.925 31.1365 23.9811 31.3334 23.979C31.5986 23.979 31.8529 23.8736 32.0405 23.6861C32.228 23.4986 32.3334 23.2442 32.3334 22.979V10.979C32.3321 10.7991 32.2823 10.6228 32.1893 10.4688C32.0962 10.3148 31.9633 10.1888 31.8046 10.104ZM24.3334 23.979H4.33337V9.979H24.3334V23.979ZM30.3334 21.1103L26.3334 18.444V15.514L30.3334 12.854V21.1103Z" fill="white"/>
</g>
<defs>
<clipPath id="clip0_76_6818">
<rect width="32" height="32" fill="white" transform="translate(0.333374 0.979004)"/>
</clipPath>
</defs>
</svg>
